<svg xmlns="http://www.w3.org/2000/svg" viewBox="0 0 500 500"><g id="freepik--background-complete--inject-20"><rect x="41.31" y="71.09" width="70.07" height="73.05" style="fill:#e0e0e0"></rect><rect x="36.56" y="71.09" width="70.07" height="73.05" style="fill:#ebebeb"></rect><rect x="45.98" y="80.91" width="51.24" height="53.41" style="fill:#fafafa"></rect><path d="M46,134.68a9,9,0,0,1-1.28,1.45c-.82.86-2,2-3.26,3.29s-2.47,2.41-3.34,3.21a8.94,8.94,0,0,1-1.47,1.25,11.64,11.64,0,0,1,1.28-1.44c.82-.86,2-2,3.27-3.3s2.48-2.41,3.34-3.22A8.58,8.58,0,0,1,46,134.68Z" style="fill:#e0e0e0"></path><path d="M97.22,134.54a10.47,10.47,0,0,1,1.45,1.28c.86.83,2,2,3.29,3.27s2.41,2.47,3.22,3.34a11.56,11.56,0,0,1,1.25,1.46,9.18,9.18,0,0,1-1.45-1.27c-.86-.82-2-2-3.3-3.27s-2.41-2.48-3.22-3.35A9.39,9.39,0,0,1,97.22,134.54Z" style="fill:#e0e0e0"></path><path d="M97.08,81.05a9.67,9.67,0,0,1,1.28-1.45c.82-.86,2-2,3.26-3.29s2.47-2.41,3.34-3.21a8.94,8.94,0,0,1,1.47-1.25,11.64,11.64,0,0,1-1.28,1.44c-.82.86-2,2-3.27,3.3S99.41,79,98.54,79.81A8.58,8.58,0,0,1,97.08,81.05Z" style="fill:#e0e0e0"></path><path d="M45.84,81.19a10.47,10.47,0,0,1-1.45-1.28c-.86-.83-2-2-3.29-3.27s-2.41-2.47-3.22-3.34a11.56,11.56,0,0,1-1.25-1.46,9.18,9.18,0,0,1,1.45,1.27c.86.82,2,2,3.3,3.27s2.41,2.48,3.22,3.35A9.39,9.39,0,0,1,45.84,81.19Z" style="fill:#e0e0e0"></path><path d="M97.08,134.32s0-.09,0-.26,0-.42,0-.74c0-.67,0-1.63,0-2.88,0-2.53,0-6.21,0-10.88,0-9.36,0-22.69-.09-38.65l.17.17L46,81.1h0l.2-.19c0,19.61,0,38,0,53.41l-.17-.17,37,.09,10.39,0,2.74,0h0l-2.72,0-10.35,0L46,134.49h-.16v-.17c0-15.46,0-33.8,0-53.41v-.19H46l51.09,0h.17v.17c0,16-.07,29.38-.09,38.75,0,4.66,0,8.33,0,10.85,0,1.24,0,2.19,0,2.85v.72C97.08,134.24,97.08,134.32,97.08,134.32Z" style="fill:#e0e0e0"></path><path d="M59.51,103.22s-1.1,13.23,13.22,13.23C72.73,109.39,66.91,103.82,59.51,103.22Z" style="fill:#ebebeb"></path><path d="M85.71,103.23s-13.22-1.09-13.22,13.23C79.54,116.46,85.11,110.64,85.71,103.23Z" style="fill:#ebebeb"></path><path d="M72.09,96s-10.8,9.69.59,20.45C78,110.83,77.53,102,72.09,96Z" style="fill:#e0e0e0"></path><rect x="404.99" y="78.9" width="73.23" height="106.14" style="fill:#e0e0e0"></rect><rect x="401.32" y="78.9" width="73.23" height="106.14" style="fill:#f5f5f5"></rect><rect x="410.42" y="90.39" width="55.03" height="83.15" style="fill:#fff"></rect><path d="M465.45,173.54s0-.14,0-.41,0-.66,0-1.18c0-1,0-2.57,0-4.56,0-4,0-9.79-.05-17.13,0-14.66-.05-35.42-.09-59.87l.18.18-55,0h0l.2-.2c0,31.37,0,60.29,0,83.15l-.16-.16,40.06.08,11.06,0,2.91,0,1,0-1,0h-2.87l-11,0-40.16.09h-.16v-.16c0-22.86,0-51.78,0-83.15v-.2h.21l55,0h.19v.18c0,24.5-.06,45.3-.09,60,0,7.32,0,13.12,0,17.09,0,2,0,3.49,0,4.53,0,.5,0,.88,0,1.15S465.45,173.54,465.45,173.54Z" style="fill:#e0e0e0"></path><path d="M474.76,78.9a14,14,0,0,1-1.31,1.89c-.85,1.14-2.06,2.69-3.44,4.36s-2.66,3.16-3.61,4.21A12.52,12.52,0,0,1,464.78,91a14.45,14.45,0,0,1,1.4-1.83l3.53-4.27,3.52-4.28A12.85,12.85,0,0,1,474.76,78.9Z" style="fill:#e0e0e0"></path><path d="M465.73,173.27a68.15,68.15,0,0,0,9.6,12" style="fill:#fff"></path><path d="M475.33,185.27a10.41,10.41,0,0,1-1.67-1.52,51.62,51.62,0,0,1-3.62-4.08,53.37,53.37,0,0,1-3.19-4.43,11.43,11.43,0,0,1-1.12-2,14.57,14.57,0,0,1,1.35,1.81c.81,1.13,1.94,2.68,3.27,4.34s2.59,3.1,3.51,4.14A16,16,0,0,1,475.33,185.27Z" style="fill:#e0e0e0"></path><path d="M401.31,185l9.59-11.83" style="fill:#fff"></path><path d="M410.9,173.12a71.76,71.76,0,0,1-4.64,6,71.45,71.45,0,0,1-4.95,5.79c-.08-.07,2-2.77,4.64-6A73.9,73.9,0,0,1,410.9,173.12Z" style="fill:#e0e0e0"></path><path d="M401.32,78.9A65.39,65.39,0,0,1,406,84.46a67.37,67.37,0,0,1,4.34,5.81,66.51,66.51,0,0,1-4.65-5.56A68.92,68.92,0,0,1,401.32,78.9Z" style="fill:#e0e0e0"></path><rect x="429.88" y="107.27" width="18.43" height="52.32" style="fill:#e0e0e0"></rect><rect x="58.71" y="181.82" width="48.65" height="12.87" style="fill:#ebebeb"></rect><path d="M86.79,208.25s0-.09,0-.24l0-.66c0-.6,0-1.45,0-2.53,0-2.22,0-5.42-.08-9.45l.15.16-48.65.09.25-.24h0v12.87l-.24-.25,34.67.11,10.23.07,2.77,0,.72,0,.26,0h-.23l-.69,0-2.71,0L73,208.38l-34.84.11H37.9V195.38h0l.25-.25,48.65.09h.15v.15c0,4.07-.06,7.3-.08,9.54,0,1.07,0,1.9,0,2.5,0,.26,0,.47,0,.63A.85.85,0,0,1,86.79,208.25Z" style="fill:#ebebeb"></path><rect x="223.55" y="368.72" width="48.65" height="12.87" style="fill:#ebebeb"></rect><path d="M251.63,395.15s0-.08,0-.23l0-.67c0-.6,0-1.45,0-2.53,0-2.22,0-5.41-.09-9.44l.15.15-48.64.1c.1-.11-.25.24.24-.25h0v6.52q0,3.23,0,6.33l-.24-.24,34.67.11,10.24.07,2.76,0h.73l.25,0h-.22l-.69,0-2.72,0-10.18.07-34.84.11h-.24v-6.57c0-1.08,0-2.16,0-3.25V382.3h0c.5-.5.14-.14.26-.25l48.64.1h.16v.15c0,4.06-.07,7.29-.09,9.53,0,1.07,0,1.9,0,2.5,0,.26,0,.47,0,.63S251.64,395.15,251.63,395.15Z" style="fill:#ebebeb"></path><rect x="253.86" y="36" width="48.65" height="12.87" style="fill:#ebebeb"></rect><path d="M281.94,62.43a1.17,1.17,0,0,1,0-.23v-.66c0-.61,0-1.45,0-2.54,0-2.22-.05-5.41-.08-9.44l.15.15-48.65.1c.11-.11-.25.24.24-.25h0V62.43l-.24-.24L268,62.3l10.23.07,2.77,0h.72l.26,0-.23,0H281l-2.71,0-10.18.07-34.84.11H233V49.58h0l.25-.25,48.65.1h.15v.15c0,4.06-.06,7.29-.08,9.53,0,1.07,0,1.9,0,2.5,0,.26,0,.47,0,.64A1.39,1.39,0,0,1,281.94,62.43Z" style="fill:#ebebeb"></path><rect x="322.93" y="210.63" width="48.65" height="12.87" style="fill:#ebebeb"></rect><path d="M351,237.05a2.07,2.07,0,0,1,0-.23l0-.66c0-.61,0-1.45,0-2.53,0-2.23-.05-5.42-.08-9.45l.15.15-48.65.1.25-.25h0v3.28c0,1.1,0,2.18,0,3.25v6.33l-.24-.24,34.67.11,10.23.07,2.77,0,.72,0H351s-.07,0-.23,0h-.69l-2.71,0-10.18.07-34.84.11h-.24v-.25q0-3.11,0-6.33v-6.53h0l.25-.25L351,224h.15v.15c0,4.07-.06,7.29-.08,9.54,0,1.06,0,1.9,0,2.5,0,.26,0,.46,0,.63S351,237.06,351,237.05Z" style="fill:#ebebeb"></path><path d="M455.4,268.69a1.17,1.17,0,0,1,0-.23l0-.66c0-.61,0-1.45,0-2.54,0-2.22-.05-5.41-.09-9.44l.16.15-48.65.1c.11-.11-.25.24.24-.25h0v12.85l-.25-.24,34.67.11,10.24.07,2.77,0h.72l.26,0-.23,0h-.69l-2.72,0-10.18.07-34.84.11h-.24V255.84h0l.25-.25,48.65.1h.15v.15c0,4.06-.07,7.29-.09,9.53,0,1.07,0,1.9,0,2.5l0,.64A1.39,1.39,0,0,1,455.4,268.69Z" style="fill:#ebebeb"></path><path d="M462,255.82s0-.09,0-.25,0-.41,0-.68c0-.63,0-1.49,0-2.58,0-2.26-.06-5.44-.1-9.36l.18.18-29.23.07L433,243h0v3.33c0,1.11,0,2.2,0,3.28v6.24l-.24-.24,20.91.11,6.09.07,1.65,0,.58,0a3.28,3.28,0,0,1-.53,0l-1.59,0-6,.06-21.07.11h-.24v-6.48c0-1.08,0-2.17,0-3.28V243h0l.25-.25,29.23.07h.18V243c0,4-.07,7.19-.1,9.47,0,1.07,0,1.92,0,2.54A6.65,6.65,0,0,1,462,255.82Z" style="fill:#ebebeb"></path><path d="M366.35,357.11a1.35,1.35,0,0,1,0-.24v-.66c0-.6,0-1.45,0-2.53,0-2.22,0-5.42-.08-9.44l.15.15-48.65.09.24-.24h0v12.85l-.24-.25,34.67.11,10.23.07,2.77,0,.72,0,.26,0h-.23l-.69,0-2.72,0-10.17.07-34.84.11h-.25V344.26h0l.25-.25,48.65.09h.15v.16c0,4.06-.06,7.29-.08,9.53,0,1.07,0,1.9,0,2.5l0,.63A1.66,1.66,0,0,1,366.35,357.11Z" style="fill:#ebebeb"></path><path d="M373,344.24a.77.77,0,0,1,0-.25c0-.18,0-.41,0-.68,0-.64,0-1.5-.05-2.58,0-2.26-.05-5.45-.09-9.37l.18.18-29.23.07c-.23.22.29-.3.24-.24h0V338q0,3.24,0,6.24l-.24-.23,20.91.11,6.1.07,1.64,0,.59,0-.54,0-1.59,0-6,.07-21.07.11h-.23v-.24q0-3,0-6.24v-6.6h0c-.06.05.47-.48.25-.25l29.23.07h.18v.17c0,4-.07,7.19-.09,9.48,0,1.07,0,1.91,0,2.54S373,344.25,373,344.24Z" style="fill:#ebebeb"></path><path d="M459.75,53.43a1.3,1.3,0,0,1,0-.23l0-.67c0-.6,0-1.45,0-2.53,0-2.22-.05-5.41-.09-9.44l.16.15-48.65.1c.11-.11-.25.24.24-.25h0V53.43l-.25-.24,34.67.11,10.24.07,2.77,0h.72l.26,0h-.23l-.69,0-2.72,0-10.18.07-34.84.11h-.24V40.58h0c.5-.5.14-.14.26-.25l48.65.1h.15v.15c0,4.06-.07,7.29-.09,9.53,0,1.07,0,1.9,0,2.5l0,.63A1.66,1.66,0,0,1,459.75,53.43Z" style="fill:#ebebeb"></path><path d="M182.19,48.54a2.07,2.07,0,0,1,0-.23c0-.17,0-.39,0-.66,0-.61,0-1.45,0-2.54,0-2.22,0-5.41-.09-9.44l.15.15-48.65.1.25-.25h0v6.52c0,2.15,0,4.26,0,6.33l-.24-.24,34.67.11,10.24.07,2.76,0,.73,0h.25s-.07,0-.22,0h-.7l-2.71,0-10.18.07-34.84.11h-.24v-.24q0-3.1,0-6.33V35.69h0l.25-.25,48.65.1h.16v.15c0,4.07-.06,7.29-.08,9.53,0,1.07,0,1.91,0,2.5,0,.26,0,.47,0,.64S182.2,48.55,182.19,48.54Z" style="fill:#ebebeb"></path><path d="M214.71,256.18a1,1,0,0,1,0-.23c0-.17,0-.39,0-.66,0-.61,0-1.45,0-2.53,0-2.23,0-5.42-.08-9.45l.15.15-48.65.1c.11-.11-.25.25.24-.25h0v12.85l-.25-.24,34.67.11,10.24.07,2.77,0,.72,0h.26l-.23,0h-.69l-2.72,0-10.18.06-34.84.11h-.24v-13.1h0c.49-.49.13-.14.25-.25l48.65.1h.15v.15c0,4.07-.07,7.29-.09,9.54,0,1.06,0,1.9,0,2.49l0,.64A1.23,1.23,0,0,1,214.71,256.18Z" style="fill:#ebebeb"></path><path d="M221.3,243.31s0-.09,0-.24,0-.41,0-.69c0-.63,0-1.49,0-2.58,0-2.25-.06-5.44-.1-9.36l.18.18-29.23.07.25-.25h0v6.61c0,2.15,0,4.24,0,6.24l-.24-.23,20.91.11,6.09.06,1.65,0,.58,0a3.28,3.28,0,0,1-.53,0l-1.59,0-6,.07-21.07.11h-.24v-6.48c0-1.08,0-2.17,0-3.28v-3.33h0l.25-.25,29.23.07h.18v.18c0,4-.07,7.19-.1,9.47,0,1.07,0,1.92,0,2.54A4.88,4.88,0,0,1,221.3,243.31Z" style="fill:#ebebeb"></path></g><g id="freepik--Floor--inject-20"><path d="M478.52,464.19c0,.14-99.43.26-222.06.26s-222.09-.12-222.09-.26,99.42-.26,222.09-.26S478.52,464,478.52,464.19Z" style="fill:#263238"></path></g><g id="freepik--picture-2--inject-20"><rect x="285.17" y="48.42" width="86.97" height="90.66" style="fill:#6f4439"></rect><rect x="279.28" y="48.42" width="86.97" height="90.66" style="fill:#ae7461"></rect><rect x="290.97" y="60.6" width="63.59" height="66.29" style="fill:#fafafa"></rect><path d="M291,127.33a12,12,0,0,1-1.59,1.8c-1,1.07-2.45,2.51-4.05,4.09s-3.06,3-4.14,4a11.46,11.46,0,0,1-1.82,1.55A11.51,11.51,0,0,1,281,137c1-1.06,2.46-2.51,4.06-4.09s3.07-3,4.15-4A11.56,11.56,0,0,1,291,127.33Z" style="fill:#6f4439"></path><path d="M354.56,127.17a10.81,10.81,0,0,1,1.8,1.59c1.07,1,2.52,2.45,4.09,4.05s3,3.06,4,4.14a11.46,11.46,0,0,1,1.55,1.82,11.23,11.23,0,0,1-1.79-1.58c-1.07-1-2.52-2.46-4.1-4.06s-3-3.07-4-4.15A12.31,12.31,0,0,1,354.56,127.17Z" style="fill:#6f4439"></path><path d="M354.39,60.78A11.44,11.44,0,0,1,356,59c1-1.07,2.45-2.51,4-4.09s3.06-3,4.14-4A11.46,11.46,0,0,1,366,49.35a11.51,11.51,0,0,1-1.58,1.8c-1,1.06-2.46,2.51-4.06,4.09s-3.07,3-4.15,4A11.56,11.56,0,0,1,354.39,60.78Z" style="fill:#6f4439"></path><path d="M290.8,60.94a11.44,11.44,0,0,1-1.8-1.59c-1.07-1-2.52-2.45-4.09-4.05s-3-3.06-4-4.14a11.46,11.46,0,0,1-1.55-1.82,11.51,11.51,0,0,1,1.8,1.58c1.06,1,2.51,2.46,4.09,4.06s3,3.07,4,4.15A11.56,11.56,0,0,1,290.8,60.94Z" style="fill:#6f4439"></path><path d="M354.39,126.89s0-.11,0-.32,0-.53,0-.92c0-.83,0-2,0-3.58,0-3.13,0-7.7-.06-13.5,0-11.61-.06-28.16-.1-48l.21.21-63.41,0h0l.24-.24c0,24.33,0,47.09,0,66.29l-.21-.21,45.93.11,12.89,0,3.41,0h.05l-3.37,0L337,127l-46.06.1h-.2v-.2c0-19.2,0-42,0-66.29v-.24H291l63.41,0h.21v.2c-.05,19.87-.08,36.46-.11,48.1,0,5.78,0,10.33-.05,13.46,0,1.53,0,2.72,0,3.53,0,.39,0,.69,0,.9S354.39,126.89,354.39,126.89Z" style="fill:#6f4439"></path><path d="M335.4,75.57a1.56,1.56,0,0,0-1.31-.42,7,7,0,0,0-4.43,1.76,21.27,21.27,0,0,0,1.07-3.74c.09-.52.11-1.16-.33-1.44s-1.13.12-1.53.56a9.71,9.71,0,0,0-2.24,4.28c-.23-1.36-.46-2.72-.68-4.09-.08-.44-.21-1-.63-1.11s-1,.35-1.29.86a6,6,0,0,0-.19,4.63L321,74c-.28-.28-.64-.59-1-.51-.64.14-.64,1.07-.38,1.67a6.33,6.33,0,0,0,3.27,3.25l5.36.89c2.1.14,5.38-.27,6.77-1.85C335.45,77,335.84,76.13,335.4,75.57Z" style="fill:#F9A158"></path><path d="M335.45,81.82c-5.1-4-14.07-4.59-20-1.89-6.67,3-11,10.15-11.69,16.95-.62,6.47,2.5,13,5.15,19l25.77.12c3.09-5.1,6.31-10.82,6.52-16.79S340.15,85.51,335.45,81.82Z" style="fill:#455a64"></path><path d="M323.89,78.27l-.11,0-.34.08-.54.12a4.36,4.36,0,0,0-.74.2,14.56,14.56,0,0,0-4.37,2.09,19.7,19.7,0,0,0-5,5.16,29.1,29.1,0,0,0-2.08,3.71,32.9,32.9,0,0,0-1.6,4.28,19.69,19.69,0,0,0-.44,8.74,38.53,38.53,0,0,0,1.94,6.95c.72,1.93,1.35,3.47,1.78,4.55l.48,1.23.12.33,0,.11-.06-.1-.14-.32-.52-1.22c-.45-1.06-1.11-2.59-1.85-4.52a37,37,0,0,1-2-7,19.7,19.7,0,0,1,.42-8.84,33.38,33.38,0,0,1,1.62-4.31,28.46,28.46,0,0,1,2.12-3.74,19.56,19.56,0,0,1,5.06-5.18,14.28,14.28,0,0,1,4.43-2,4.34,4.34,0,0,1,.75-.17l.56-.1.34,0Z" style="fill:#263238"></path><path d="M331.4,115.75a3.39,3.39,0,0,1,.12-.39c.1-.27.22-.63.39-1.08.33-1,.83-2.31,1.41-4s1.22-3.72,1.79-6a39.29,39.29,0,0,0,1.14-7.58,26.42,26.42,0,0,0-.78-7.61,21.21,21.21,0,0,0-2.42-5.75A16.79,16.79,0,0,0,330.41,80c-.34-.36-.66-.59-.85-.78a2.08,2.08,0,0,1-.29-.27,2.18,2.18,0,0,1,.32.24c.2.17.53.39.89.74a15.87,15.87,0,0,1,2.71,3.27A20.68,20.68,0,0,1,335.68,89a26.19,26.19,0,0,1,.81,7.68,38.15,38.15,0,0,1-1.17,7.63c-.57,2.3-1.24,4.33-1.84,6s-1.12,3-1.49,4c-.17.45-.32.81-.42,1.07A1.87,1.87,0,0,1,331.4,115.75Z" style="fill:#263238"></path><path d="M326.42,78.42a1.64,1.64,0,0,1-.1.38L326,79.86c-.15.47-.33,1-.53,1.69S325,83,324.81,83.8c-.49,1.67-1,3.67-1.5,5.91s-1,4.71-1.37,7.33-.63,5.13-.79,7.42c-.06,1.15-.13,2.23-.14,3.25,0,.51,0,1,0,1.48s0,.93,0,1.36c0,.87,0,1.65.06,2.34s0,1.28.09,1.77.05.83.06,1.11a1.64,1.64,0,0,1,0,.39,2,2,0,0,1-.06-.38c0-.28-.06-.65-.11-1.12s-.1-1.07-.13-1.76-.09-1.48-.09-2.35c0-.43,0-.89,0-1.36s0-1,0-1.48c0-1,.07-2.12.12-3.26.14-2.3.39-4.82.77-7.44s.88-5.11,1.39-7.35,1.05-4.24,1.55-5.91c.24-.83.48-1.58.69-2.24s.4-1.22.57-1.68.28-.79.38-1Z" style="fill:#263238"></path><path d="M304.61,98.94a8.35,8.35,0,0,1-1.76.94,8.45,8.45,0,0,1-1.86.71,8.08,8.08,0,0,1,1.76-.93A8.41,8.41,0,0,1,304.61,98.94Z" style="fill:#263238"></path><path d="M305.43,91.54a10.27,10.27,0,0,1-1.93-1,9.15,9.15,0,0,1-1.81-1.19,9.88,9.88,0,0,1,1.93,1A9.54,9.54,0,0,1,305.43,91.54Z" style="fill:#263238"></path><path d="M310.13,85.42a6.36,6.36,0,0,1-.85-1.51,6.3,6.3,0,0,1-.63-1.62,6.36,6.36,0,0,1,.85,1.51A6.3,6.3,0,0,1,310.13,85.42Z" style="fill:#263238"></path><path d="M316.59,79.65a4.38,4.38,0,0,1-.93-1.06,4,4,0,0,1-.74-1.2,4.15,4.15,0,0,1,.93,1.06A3.79,3.79,0,0,1,316.59,79.65Z" style="fill:#263238"></path><path d="M307.54,108a9.51,9.51,0,0,1-1.81,1.12,9.77,9.77,0,0,1-1.92.9,9.51,9.51,0,0,1,1.81-1.12A9.22,9.22,0,0,1,307.54,108Z" style="fill:#263238"></path><path d="M315.23,103.48a6.91,6.91,0,0,1-1.65-.78,7.51,7.51,0,0,1-1.53-1,6.73,6.73,0,0,1,1.65.78A7.18,7.18,0,0,1,315.23,103.48Z" style="fill:#263238"></path><path d="M317.37,93.19a4.59,4.59,0,0,1-1.58.85,5.1,5.1,0,0,1-1.74.45,10.29,10.29,0,0,1,1.65-.68A11.32,11.32,0,0,1,317.37,93.19Z" style="fill:#263238"></path><path d="M319.82,85.43a2.86,2.86,0,0,1-.67-1.25,2.92,2.92,0,0,1-.25-1.4,6.31,6.31,0,0,1,.48,1.32A7.34,7.34,0,0,1,319.82,85.43Z" style="fill:#263238"></path><path d="M314.36,113.58a7.37,7.37,0,0,1,.69-1.73,7.12,7.12,0,0,1,.91-1.63,14.39,14.39,0,0,1-1.6,3.36Z" style="fill:#263238"></path><path d="M327.35,110.82a5.43,5.43,0,0,1-1.51-1.35,5.35,5.35,0,0,1-1.1-1.7c.06,0,.57.71,1.29,1.54S327.39,110.76,327.35,110.82Z" style="fill:#263238"></path><path d="M331.85,99.49a19.05,19.05,0,0,1-3.72,2.13,9.06,9.06,0,0,1,1.8-1.17A9.24,9.24,0,0,1,331.85,99.49Z" style="fill:#263238"></path><path d="M328.82,92.52A8.56,8.56,0,0,1,330.21,91a8.69,8.69,0,0,1,1.56-1.31,8.17,8.17,0,0,1-1.39,1.48A8.69,8.69,0,0,1,328.82,92.52Z" style="fill:#263238"></path><path d="M329,85.12a5.85,5.85,0,0,1-1.43-1,6.16,6.16,0,0,1-1.26-1.19A12.85,12.85,0,0,1,329,85.12Z" style="fill:#263238"></path><path d="M337.54,80.23a6,6,0,0,1-1.41,1.07,6.65,6.65,0,0,1-1.54.86A6.33,6.33,0,0,1,336,81.09,7.12,7.12,0,0,1,337.54,80.23Z" style="fill:#263238"></path><path d="M340.85,87a4.47,4.47,0,0,1-1.47.23,4.4,4.4,0,0,1-1.49,0,4.32,4.32,0,0,1,1.47-.22A4.57,4.57,0,0,1,340.85,87Z" style="fill:#263238"></path><path d="M343,95a14.58,14.58,0,0,1-3.73-.36A14.58,14.58,0,0,1,343,95Z" style="fill:#263238"></path><path d="M341.94,105.36a11.84,11.84,0,0,1-1.73-1.58,11,11,0,0,1-1.55-1.74,21.45,21.45,0,0,1,3.28,3.32Z" style="fill:#263238"></path><path d="M339.12,113.31a7.83,7.83,0,0,1-1.74-1.68,8.18,8.18,0,0,1-1.35-2c.06,0,.68.85,1.54,1.86S339.17,113.26,339.12,113.31Z" style="fill:#263238"></path><g style="opacity:0.30000000000000004"><path d="M329.27,79c0-.07.55.18,1.4.76a14.64,14.64,0,0,1,3.11,3,17.37,17.37,0,0,1,2.84,5.82,27.14,27.14,0,0,1,1,7.84,33.13,33.13,0,0,1-1.05,7.81,41.4,41.4,0,0,1-2,6.06c-1.44,3.35-2.65,5.25-2.78,5.18s.76-2.11,2-5.49a42.16,42.16,0,0,0,2.69-13.57,29.3,29.3,0,0,0-.82-7.54,18.06,18.06,0,0,0-2.47-5.62,19,19,0,0,0-2.71-3.18C329.63,79.42,329.22,79,329.27,79Z"></path></g><g style="opacity:0.30000000000000004"><path d="M326.24,78c.16,0-.17,2.16-.81,5.57s-1.56,8.1-2.36,13.3c-.39,2.61-.7,5.1-.93,7.37-.1,1.13-.21,2.21-.27,3.22s-.12,2-.16,2.82c-.16,3.45-.12,5.59-.31,5.6s-.48-2.12-.55-5.61c0-.88,0-1.83,0-2.86s.09-2.12.15-3.27c.18-2.3.45-4.82.85-7.45.81-5.25,1.88-9.94,2.73-13.31S326.08,78,326.24,78Z"></path></g><g style="opacity:0.30000000000000004"><path d="M323.22,77.77a6.69,6.69,0,0,1-1.61.79,24,24,0,0,0-4.15,2.38A21.19,21.19,0,0,0,309,93.69a21.64,21.64,0,0,0-.48,4.41,27.73,27.73,0,0,0,.31,4.15,43.1,43.1,0,0,0,1.7,6.91c.63,1.94,1.21,3.5,1.59,4.58a5.39,5.39,0,0,1,.49,1.73c-.07,0-.41-.51-.92-1.54s-1.23-2.55-2-4.48a37,37,0,0,1-2-7,26,26,0,0,1-.4-4.33,22.13,22.13,0,0,1,.49-4.67,21.39,21.39,0,0,1,3.73-8.2,20.64,20.64,0,0,1,5.39-5,18.12,18.12,0,0,1,4.46-2.11C322.55,77.77,323.19,77.69,323.22,77.77Z"></path></g></g><g id="freepik--picture-1--inject-20"><rect x="148.01" y="83.49" width="101.93" height="122.34" style="fill:#6f4439"></rect><rect x="140.73" y="83.49" width="101.33" height="122.34" style="fill:#ae7461"></rect><rect x="154.08" y="99.69" width="75.23" height="92.85" style="fill:#fafafa"></rect><path d="M153.86,193a13.35,13.35,0,0,1-1.73,2c-1.12,1.17-2.68,2.75-4.42,4.47s-3.35,3.25-4.53,4.35a13.37,13.37,0,0,1-2,1.69,12.62,12.62,0,0,1,1.73-2c1.11-1.16,2.67-2.74,4.43-4.47s3.35-3.26,4.53-4.36A12.39,12.39,0,0,1,153.86,193Z" style="fill:#6f4439"></path><path d="M229.5,192.54a13.6,13.6,0,0,1,2.06,1.89c1.23,1.21,2.88,2.91,4.69,4.81s3.42,3.64,4.57,4.92a14.37,14.37,0,0,1,1.78,2.16,14.29,14.29,0,0,1-2.06-1.88c-1.22-1.21-2.88-2.91-4.69-4.82s-3.43-3.65-4.58-4.93A13.37,13.37,0,0,1,229.5,192.54Z" style="fill:#6f4439"></path><path d="M229.4,99.68a17.37,17.37,0,0,1,1.74-2.55c1.11-1.51,2.67-3.56,4.42-5.79s3.35-4.23,4.52-5.65a14.18,14.18,0,0,1,2-2.2A17,17,0,0,1,240.34,86c-1.11,1.51-2.68,3.57-4.43,5.8s-3.35,4.24-4.53,5.66A14,14,0,0,1,229.4,99.68Z" style="fill:#6f4439"></path><path d="M154.24,99.8a14.47,14.47,0,0,1-2.13-2.25c-1.26-1.44-3-3.47-4.83-5.74s-3.53-4.34-4.71-5.87a16.74,16.74,0,0,1-1.83-2.57,14.92,14.92,0,0,1,2.12,2.24c1.26,1.44,3,3.47,4.84,5.75s3.53,4.35,4.71,5.88A16.14,16.14,0,0,1,154.24,99.8Z" style="fill:#6f4439"></path><path d="M229.4,192.46s0-.16,0-.45,0-.74,0-1.3c0-1.16,0-2.84,0-5,0-4.42,0-10.85-.07-19,0-16.35-.07-39.64-.12-67.54l.25.29-75.36,0h0l.29-.34c0,34.26,0,66.31,0,93.34l-.25-.29,54.58.15,15.33.07,4.05,0h1l.37,0-.34,0h-1l-4,0-15.27.07-54.74.15h-.24v-.29c0-27,0-59.08,0-93.34v-.34H154l75.36,0h.24v.29c0,28-.09,51.34-.12,67.73,0,8.14-.05,14.55-.07,19,0,2.16,0,3.83,0,5,0,.55,0,1,0,1.27S229.4,192.46,229.4,192.46Z" style="fill:#6f4439"></path><path d="M167.63,115.71c-.71.38-.8,1.35-.8,2.15a4.37,4.37,0,0,0-.92-1.59,1.32,1.32,0,0,0-2.26,1.3,4.42,4.42,0,0,0,.9,1.59c-1.15-.44-2-.65-2.86-.18a1.16,1.16,0,0,0-.3,1.58,2.65,2.65,0,0,0,1.44,1,9.13,9.13,0,0,0,4.24.53l.55-.75a6.12,6.12,0,0,0,2.16-3.68,2.23,2.23,0,0,0-.53-1.65A1.39,1.39,0,0,0,167.63,115.71Z" style="fill:#F9A158"></path><path d="M181.52,150c-5.55-2.44-11.07-5.45-14.8-10.23s-5.28-11.68-2.37-17a7.14,7.14,0,0,1,4.57-3.79,7.86,7.86,0,0,1,5.4,1.36,22.77,22.77,0,0,1,9.54,12.81A39.17,39.17,0,0,1,185,149.3" style="fill:#455a64"></path><path d="M180.09,181.82c.12-.36-13.14-23.44,3.08-33.38s22.72,11.48,19.64,20.24-6.39,13.14-6.39,13.14Z" style="fill:#455a64"></path><path d="M220,129.41c-.56-.58-1.51-.4-2.29-.19A4.24,4.24,0,0,0,219,127.9a1.32,1.32,0,0,0-1.86-1.82,4.18,4.18,0,0,0-1.28,1.3c.11-1.23.08-2.1-.6-2.81a1.16,1.16,0,0,0-1.61.14,2.69,2.69,0,0,0-.59,1.66,9.35,9.35,0,0,0,.63,4.22l.88.34a6.15,6.15,0,0,0,4.12,1.08,2.24,2.24,0,0,0,1.45-.95A1.4,1.4,0,0,0,220,129.41Z" style="fill:#F9A158"></path><path d="M196.54,151.76s-1.89-12.08,4.14-19.06,13-4.5,14.56-1.54,2.49,8.17-.83,12.31-14,12.19-14,12.19Z" style="fill:#455a64"></path><path d="M202.28,163.2a19,19,0,0,1,5-4.14,6.45,6.45,0,0,1,6.26,0,5.31,5.31,0,0,1,2.2,5.08,6.55,6.55,0,0,1-3.21,4.64,8.59,8.59,0,0,1-5.63,1,12.61,12.61,0,0,1-5.33-2.25" style="fill:#455a64"></path><path d="M209.46,181.82c0,.14-9.29.26-20.74.26S168,182,168,181.82s9.28-.26,20.73-.26S209.46,181.67,209.46,181.82Z" style="fill:#263238"></path><path d="M202.21,170.42c-.05,0,.18-.66.45-1.84a21.74,21.74,0,0,0,.59-5.06,22.32,22.32,0,0,0-1.24-7.43,20.93,20.93,0,0,0-1.89-4,16.49,16.49,0,0,0-3-3.7,8.44,8.44,0,0,0-4.12-2.13,10.44,10.44,0,0,0-4.36.24,22.8,22.8,0,0,0-6.89,3,11.65,11.65,0,0,0-3.56,3.58c-.62,1-.8,1.68-.86,1.66a2.91,2.91,0,0,1,.12-.47A7.05,7.05,0,0,1,178,153a11.41,11.41,0,0,1,3.53-3.78,22.74,22.74,0,0,1,7-3.19,10.87,10.87,0,0,1,4.57-.27A8.77,8.77,0,0,1,197.5,148a17,17,0,0,1,3.06,3.83,20.42,20.42,0,0,1,1.9,4.14,21.76,21.76,0,0,1,1.16,7.58,20,20,0,0,1-.76,5.11,11.29,11.29,0,0,1-.45,1.34A1.6,1.6,0,0,1,202.21,170.42Z" style="fill:#263238"></path><path d="M182.29,171.29c-.07.12-.82-.18-1.68-.69s-1.48-1-1.41-1.13.82.18,1.68.69S182.37,171.17,182.29,171.29Z" style="fill:#263238"></path><path d="M181.16,163.44c-.07.13-1-.25-2.09-.83s-1.9-1.17-1.83-1.3a5.14,5.14,0,0,1,2.08.84C180.41,162.73,181.23,163.31,181.16,163.44Z" style="fill:#263238"></path><path d="M183.13,157.83c-.13,0-.55-.73-.94-1.74s-.59-1.87-.46-1.92.56.73,1,1.74S183.27,157.77,183.13,157.83Z" style="fill:#263238"></path><path d="M189.45,154.46a4.32,4.32,0,0,1-.61-2,4.5,4.5,0,0,1-.1-2.09c.15,0,.42.87.61,2A4.31,4.31,0,0,1,189.45,154.46Z" style="fill:#263238"></path><path d="M189.15,159a4.3,4.3,0,0,1-.5,2c-.4,1.06-.84,1.87-1,1.82a4.35,4.35,0,0,1,.5-2C188.58,159.71,189,158.9,189.15,159Z" style="fill:#263238"></path><path d="M195.9,162.74c.08.12-.61.72-1.54,1.34s-1.75,1-1.83.91.61-.72,1.54-1.34S195.82,162.62,195.9,162.74Z" style="fill:#263238"></path><path d="M195.06,157c-.13-.07.18-.94.68-2s1-1.77,1.15-1.71-.18.94-.68,1.95S195.19,157.05,195.06,157Z" style="fill:#263238"></path><path d="M201.4,169.46c-.08.12-.68-.16-1.35-.61s-1.14-.92-1.06-1,.69.15,1.36.61S201.49,169.34,201.4,169.46Z" style="fill:#263238"></path><path d="M194.08,176.79c-.12.08-.63-.56-1.14-1.41s-.81-1.6-.69-1.68.64.56,1.14,1.42S194.2,176.72,194.08,176.79Z" style="fill:#263238"></path><path d="M208.41,161.2c-.15,0-.3-.87-.33-2s0-2,.19-2,.29.87.33,2S208.55,161.2,208.41,161.2Z" style="fill:#263238"></path><path d="M214.47,158.55c.11.09-.4.89-1.14,1.78s-1.43,1.54-1.54,1.45.4-.89,1.14-1.78S214.36,158.46,214.47,158.55Z" style="fill:#263238"></path><path d="M199.87,140.26c-.14.05-.6-.88-1.05-2.08a5.48,5.48,0,0,1-.56-2.25c.14-.05.61.88,1.05,2.07A5.54,5.54,0,0,1,199.87,140.26Z" style="fill:#263238"></path><path d="M205.08,130.31a7.79,7.79,0,0,1-.24,2.78,7.72,7.72,0,0,1-.76,2.69,7.79,7.79,0,0,1,.24-2.78A7.63,7.63,0,0,1,205.08,130.31Z" style="fill:#263238"></path><path d="M212.5,133.85c.07.12-.6.63-1.49,1.13s-1.68.8-1.75.68.6-.64,1.49-1.14S212.43,133.72,212.5,133.85Z" style="fill:#263238"></path><path d="M213.6,140a5.59,5.59,0,0,1-2.34.68,5.94,5.94,0,0,1-2.44.16,11.76,11.76,0,0,1,4.78-.84Z" style="fill:#263238"></path><path d="M203.64,146a9.33,9.33,0,0,1,.23-3.13,9.78,9.78,0,0,1,.74-3.05,9.33,9.33,0,0,1-.23,3.13A9.78,9.78,0,0,1,203.64,146Z" style="fill:#263238"></path><path d="M177.08,143.36c0,.14-.82.16-1.78,0s-1.75-.33-1.73-.47.82-.17,1.79-.05S177.1,143.21,177.08,143.36Z" style="fill:#263238"></path><path d="M181.27,139.29c-.14,0-.29-.81-.33-1.82s.05-1.83.2-1.83.29.8.32,1.81S181.42,139.28,181.27,139.29Z" style="fill:#263238"></path><path d="M176.24,137a3.69,3.69,0,0,1-2.22-.51c-1.16-.51-1.94-1.2-1.86-1.32a35,35,0,0,1,4.08,1.83Z" style="fill:#263238"></path><path d="M176,130.3a10.48,10.48,0,0,1,0-4.64,10.48,10.48,0,0,1,0,4.64Z" style="fill:#263238"></path><path d="M168.93,131.84a6,6,0,0,1-2.44-.31,6.07,6.07,0,0,1-2.33-.81,11.75,11.75,0,0,1,4.77,1.12Z" style="fill:#263238"></path><path d="M169.83,128.72a7.54,7.54,0,0,1-1.44-2.33,7.38,7.38,0,0,1-1-2.56,14.12,14.12,0,0,1,2.42,4.89Z" style="fill:#263238"></path></g><g id="freepik--cactus-4--inject-20"><g id="freepik--2--inject-20"><path d="M378.64,334.36c-.2-.16-1-.71-1.28-.9a11.44,11.44,0,0,0-1.48-.93,7.88,7.88,0,0,0,1.34,1.23c.27.21.95.79,1.16.94s.17.11.3-.06A.19.19,0,0,0,378.64,334.36Z" style="fill:#e0e0e0"></path><path d="M376.9,353.68c-.26,0-1.19.3-1.52.39a12,12,0,0,0-1.67.53,7.46,7.46,0,0,0,1.81-.23c.33-.06,1.22-.21,1.46-.27.08,0,.2-.06.16-.26A.2.2,0,0,0,376.9,353.68Z" style="fill:#e0e0e0"></path><path d="M382.89,368.63c-.24.1-1.09.56-1.4.71a12.26,12.26,0,0,0-1.51.88,7.34,7.34,0,0,0,1.72-.61c.31-.14,1.13-.47,1.36-.59.07,0,.18-.1.1-.29A.2.2,0,0,0,382.89,368.63Z" style="fill:#e0e0e0"></path><path d="M388.41,379.68c-.24.09-1.09.55-1.39.71a10.34,10.34,0,0,0-1.52.88,7.87,7.87,0,0,0,1.72-.62c.31-.14,1.14-.47,1.37-.59.07,0,.18-.1.09-.28A.19.19,0,0,0,388.41,379.68Z" style="fill:#e0e0e0"></path><path d="M393.11,389.71c-.24.09-1.1.55-1.4.7a13.39,13.39,0,0,0-1.52.88,7.29,7.29,0,0,0,1.73-.61c.31-.14,1.13-.47,1.36-.59.07,0,.18-.1.1-.29A.19.19,0,0,0,393.11,389.71Z" style="fill:#e0e0e0"></path><path d="M396.86,398.53c-.23.11-1.05.63-1.34.81a11.3,11.3,0,0,0-1.45,1,7.62,7.62,0,0,0,1.67-.73c.3-.16,1.1-.56,1.32-.69.07,0,.17-.11.07-.29A.18.18,0,0,0,396.86,398.53Z" style="fill:#e0e0e0"></path><path d="M376,342.75c-.26,0-1.23,0-1.57,0a12,12,0,0,0-1.75.12,7.84,7.84,0,0,0,1.82.21c.34,0,1.23.08,1.48.08.08,0,.21,0,.21-.22A.18.18,0,0,0,376,342.75Z" style="fill:#e0e0e0"></path><path d="M385.17,330.56c-.09-.24-.52-1.1-.67-1.41a11.34,11.34,0,0,0-.84-1.54,7.41,7.41,0,0,0,.57,1.74c.13.31.44,1.15.55,1.38,0,.07.1.18.29.1A.19.19,0,0,0,385.17,330.56Z" style="fill:#e0e0e0"></path><path d="M388.1,328.61a33,33,0,0,1-3.94.48c-.15.15-3.1,2.71-3.3,2.93s-3.43,1.53-3.56,1.74a33.9,33.9,0,0,0-.93,4.44s-2,4.29-2,5.17c0,.45,1.14,5.49,1.14,5.49s-.1,5.09-.05,5.28c.09.38,3.18,6.45,3.54,6.84,0,0,2.52,7.9,2.67,8.29a43.22,43.22,0,0,1,3.58,5.53c.82,1.8,1.57,5.69,1.74,5.68a33,33,0,0,1,3.26,4.72c.48,1.44.93,5.24,1,5.42,0,0,1.59,2.3,1.93,2.87,1.07,1.77,1.17,4,2,5.86a9.68,9.68,0,0,0,2.71,2.17c2.3-.54,6.62-1.71,8.12-2.31C406.77,398.93,388.1,328.61,388.1,328.61Z" style="fill:#455a64"></path><path d="M408.84,346c.25-.08,1.2-.27,1.53-.35a12,12,0,0,1,1.73-.29,7.39,7.39,0,0,1-1.72.63c-.33.09-1.18.36-1.43.42a.19.19,0,0,1-.25-.16A.19.19,0,0,1,408.84,346Z" style="fill:#e0e0e0"></path><path d="M410.37,362c.25,0,1.22,0,1.56,0a12.67,12.67,0,0,1,1.75.09,7.72,7.72,0,0,1-1.81.24c-.34,0-1.23.1-1.48.1-.08,0-.21,0-.22-.21A.2.2,0,0,1,410.37,362Z" style="fill:#e0e0e0"></path><path d="M411.07,374.21c.25,0,1.22,0,1.56,0a12.87,12.87,0,0,1,1.75.09,7.72,7.72,0,0,1-1.81.24c-.34,0-1.23.1-1.48.1-.08,0-.21,0-.22-.21A.19.19,0,0,1,411.07,374.21Z" style="fill:#e0e0e0"></path><path d="M411.91,385.16c.26,0,1.23,0,1.57,0a12.87,12.87,0,0,1,1.75.09,7.72,7.72,0,0,1-1.81.24c-.34,0-1.23.1-1.49.1-.07,0-.2,0-.21-.22S411.78,385.18,411.91,385.16Z" style="fill:#e0e0e0"></path><path d="M412.87,394.73c.26,0,1.22.08,1.56.11a10.65,10.65,0,0,1,1.74.21,7.27,7.27,0,0,1-1.82.11c-.34,0-1.23,0-1.49,0-.07,0-.2,0-.2-.22A.2.2,0,0,1,412.87,394.73Z" style="fill:#e0e0e0"></path><path d="M405,335.74c.22-.14,1.09-.55,1.4-.7a13.07,13.07,0,0,1,1.61-.7,7.3,7.3,0,0,1-1.52,1c-.3.16-1.06.63-1.28.75a.2.2,0,0,1-.29-.1A.18.18,0,0,1,405,335.74Z" style="fill:#e0e0e0"></path><path d="M399,328.8c.1-.23.56-1.08.72-1.38a14.19,14.19,0,0,1,.9-1.51,7.55,7.55,0,0,1-.63,1.71c-.15.31-.49,1.14-.61,1.36,0,.07-.1.18-.29.09A.19.19,0,0,1,399,328.8Z" style="fill:#e0e0e0"></path><path d="M392.32,328.62c0-.25,0-1.22-.05-1.56a11.46,11.46,0,0,1,0-1.76,7.4,7.4,0,0,1,.29,1.81c0,.34.13,1.22.14,1.48,0,.07,0,.2-.21.22A.19.19,0,0,1,392.32,328.62Z" style="fill:#e0e0e0"></path><path d="M388.25,328.57l4-1.47c.17.07,3.44,1.14,3.67,1.25s3.19-.07,3.37.07a37,37,0,0,1,2.55,3.59s3.29,3,3.63,3.83c.18.4,1.46,5.4,1.46,5.4s2.21,4.53,2.26,4.72c.09.39.36,7.14.25,7.64,0,0,1.46,8.15,1.52,8.57a48.45,48.45,0,0,0-.33,6.47c.14,2,1.23,5.78,1.1,5.83a37.39,37.39,0,0,0-.44,5.62c.26,1.49,1.52,5.1,1.51,5.31,0,0-.2,2.74-.22,3.38,0,2.05.8,4.06,1,6.11a9.68,9.68,0,0,1-1.09,3.09,60.94,60.94,0,0,1-7,1.33C404.85,399.35,388.25,328.57,388.25,328.57Z" style="fill:#455a64"></path><g style="opacity:0.30000000000000004"><path d="M388.25,328.57l4-1.47c.17.07,3.44,1.14,3.67,1.25s3.19-.07,3.37.07a37,37,0,0,1,2.55,3.59s3.29,3,3.63,3.83c.18.4,1.46,5.4,1.46,5.4s2.21,4.53,2.26,4.72c.09.39.36,7.14.25,7.64,0,0,1.46,8.15,1.52,8.57a48.45,48.45,0,0,0-.33,6.47c.14,2,1.23,5.78,1.1,5.83a37.39,37.39,0,0,0-.44,5.62c.26,1.49,1.52,5.1,1.51,5.31,0,0-.2,2.74-.22,3.38,0,2.05.8,4.06,1,6.11a9.68,9.68,0,0,1-1.09,3.09,60.94,60.94,0,0,1-7,1.33C404.85,399.35,388.25,328.57,388.25,328.57Z"></path></g><path d="M386.94,329.61c-.12-.17-.27-.41-.44-.63a5.47,5.47,0,0,0-.48-.6,1.25,1.25,0,0,0-.29-.22,1.06,1.06,0,0,0,.1.35,4.79,4.79,0,0,0,.38.67c.15.23.31.46.44.63a.15.15,0,0,0,.24,0A.17.17,0,0,0,386.94,329.61Z" style="fill:#e0e0e0"></path><path d="M390.25,328.81c0-.21.05-.48.09-.76a5.72,5.72,0,0,1,.16-.75,1.12,1.12,0,0,1,.16-.33,1.22,1.22,0,0,1,.07.36,4.27,4.27,0,0,1,0,.77c0,.27-.06.55-.09.76a.16.16,0,0,1-.21.14A.15.15,0,0,1,390.25,328.81Z" style="fill:#e0e0e0"></path><path d="M400.39,339.84c.2-.16.46-.37.74-.57a7.28,7.28,0,0,1,.78-.51,1.64,1.64,0,0,1,.43-.15,1.76,1.76,0,0,1-.25.38,7.8,7.8,0,0,1-.7.62c-.26.22-.53.42-.74.57a.19.19,0,0,1-.3-.05A.2.2,0,0,1,400.39,339.84Z" style="fill:#e0e0e0"></path><path d="M395.48,331.71c.11-.23.26-.54.42-.84s.33-.59.48-.8a1.56,1.56,0,0,1,.33-.31,1.81,1.81,0,0,1-.07.44,6.87,6.87,0,0,1-.35.87c-.15.31-.3.61-.43.83s-.1.18-.29.08A.19.19,0,0,1,395.48,331.71Z" style="fill:#e0e0e0"></path><path d="M404.08,350.21c.24-.08.57-.17.9-.25a6.43,6.43,0,0,1,.92-.18,1.49,1.49,0,0,1,.45,0,1.85,1.85,0,0,1-.37.25,7.56,7.56,0,0,1-.89.31c-.32.1-.65.19-.9.25-.07,0-.2,0-.25-.17A.18.18,0,0,1,404.08,350.21Z" style="fill:#e0e0e0"></path><path d="M406,364.51c.25,0,.59-.09.93-.11a6.24,6.24,0,0,1,.93,0,1.46,1.46,0,0,1,.44.1,1.51,1.51,0,0,1-.4.19,8.35,8.35,0,0,1-.92.18c-.34.05-.68.08-.93.1a.21.21,0,0,1-.05-.42Z" style="fill:#e0e0e0"></path><path d="M407.77,377.12a7.69,7.69,0,0,1,.93,0,5.89,5.89,0,0,1,.93.1,1.2,1.2,0,0,1,.42.16,1.49,1.49,0,0,1-.43.13,6.7,6.7,0,0,1-.93,0,8.74,8.74,0,0,1-.93,0c-.08,0-.21,0-.2-.23A.18.18,0,0,1,407.77,377.12Z" style="fill:#e0e0e0"></path><path d="M408.73,387.57l.86,0a6.34,6.34,0,0,1,.85.09,1.35,1.35,0,0,1,.39.15,1.55,1.55,0,0,1-.4.12,7.32,7.32,0,0,1-.85,0c-.32,0-.63,0-.86,0-.07,0-.19,0-.18-.21A.17.17,0,0,1,408.73,387.57Z" style="fill:#e0e0e0"></path><path d="M410.14,397.42c.18.07.42.17.65.28a4,4,0,0,1,.62.32,1,1,0,0,1,.25.22,1.11,1.11,0,0,1-.34,0,5.9,5.9,0,0,1-.66-.23c-.24-.09-.47-.19-.64-.27a.15.15,0,0,1-.08-.22A.15.15,0,0,1,410.14,397.42Z" style="fill:#e0e0e0"></path><path d="M382.23,344.1c-.25-.05-.59-.12-.92-.17a9.31,9.31,0,0,0-.93-.1,1.89,1.89,0,0,0-.45.07,1.77,1.77,0,0,0,.39.22c.25.09.58.16.91.24s.67.13.92.16c.08,0,.2,0,.24-.18A.2.2,0,0,0,382.23,344.1Z" style="fill:#e0e0e0"></path><path d="M383.6,334.58c-.2-.16-.47-.36-.75-.55a7.15,7.15,0,0,0-.8-.5,1.44,1.44,0,0,0-.43-.13,1.47,1.47,0,0,0,.26.37,7.9,7.9,0,0,0,.71.6c.27.21.55.41.76.55.06.05.17.11.3-.06A.2.2,0,0,0,383.6,334.58Z" style="fill:#e0e0e0"></path><path d="M384,355.06a8.93,8.93,0,0,0-.92.19,6.6,6.6,0,0,0-.9.26,1.39,1.39,0,0,0-.38.23,1.81,1.81,0,0,0,.44.05,7.19,7.19,0,0,0,.93-.12c.34-.06.67-.13.92-.2.07,0,.19-.06.15-.26A.19.19,0,0,0,384,355.06Z" style="fill:#e0e0e0"></path><path d="M388.9,368.81c-.24.08-.56.2-.87.33a5.68,5.68,0,0,0-.85.4,1.54,1.54,0,0,0-.35.28,1.61,1.61,0,0,0,.45,0,7.3,7.3,0,0,0,.9-.27c.32-.11.64-.23.87-.33a.18.18,0,0,0,.11-.28A.19.19,0,0,0,388.9,368.81Z" style="fill:#e0e0e0"></path><path d="M393.09,380.8c-.23.11-.53.28-.82.45a7,7,0,0,0-.78.52,1.36,1.36,0,0,0-.3.33,1.54,1.54,0,0,0,.44-.08,6.8,6.8,0,0,0,.85-.39c.31-.16.6-.33.82-.46a.19.19,0,0,0,.07-.29A.2.2,0,0,0,393.09,380.8Z" style="fill:#e0e0e0"></path><path d="M396.85,390.71c-.21.1-.48.25-.75.41a6,6,0,0,0-.72.48,1.33,1.33,0,0,0-.27.3,1.46,1.46,0,0,0,.4-.07,7.32,7.32,0,0,0,.78-.36c.28-.14.55-.3.75-.42a.2.2,0,0,0-.19-.34Z" style="fill:#e0e0e0"></path><path d="M399.87,399.68c-.13.14-.29.34-.45.54s-.31.4-.41.57a1.34,1.34,0,0,0-.12.31,1,1,0,0,0,.29-.18,4.69,4.69,0,0,0,.49-.5,5.85,5.85,0,0,0,.44-.54s.09-.12,0-.22A.14.14,0,0,0,399.87,399.68Z" style="fill:#e0e0e0"></path></g><path d="M388.11,328.58a11.26,11.26,0,0,1-1.81.66,1.92,1.92,0,0,0-.93,1c-.67,1.27-1.62,2.29-2.39,3.49a6.05,6.05,0,0,0-.78,3.67,25.22,25.22,0,0,1-.27,3.47c-.18,1.27-.73,2.88-.41,4.14s.62,2.29.89,3.45a24.2,24.2,0,0,1,.51,3.29,17.51,17.51,0,0,0,.85,5q.84,2.13,1.74,4.23a24.63,24.63,0,0,1,1,2.88c.34,1.15.78,2.68,1.15,4a25.17,25.17,0,0,0,1.79,4.49,33.14,33.14,0,0,1,1.61,3.41c.73,1.95.87,4.15,1.77,6,.67,1.4,1.73,2.67,2.2,4.19.15.51.33,1.31.5,2.15a24.94,24.94,0,0,0,2,6,1.17,1.17,0,0,0,.05.11A41,41,0,0,1,399,398.6c.12.36,1.58,3.81,2.22,3.46,1.29-.72,4.14-2.73,4.14-2.73Z" style="fill:#455a64"></path><g style="opacity:0.2"><path d="M388.11,328.58a11.26,11.26,0,0,1-1.81.66,1.92,1.92,0,0,0-.93,1c-.67,1.27-1.62,2.29-2.39,3.49a6.05,6.05,0,0,0-.78,3.67,25.22,25.22,0,0,1-.27,3.47c-.18,1.27-.73,2.88-.41,4.14s.62,2.29.89,3.45a24.2,24.2,0,0,1,.51,3.29,17.51,17.51,0,0,0,.85,5q.84,2.13,1.74,4.23a24.63,24.63,0,0,1,1,2.88c.34,1.15.78,2.68,1.15,4a25.17,25.17,0,0,0,1.79,4.49,33.14,33.14,0,0,1,1.61,3.41c.73,1.95.87,4.15,1.77,6,.67,1.4,1.73,2.67,2.2,4.19.15.51.33,1.31.5,2.15a24.94,24.94,0,0,0,2,6,1.17,1.17,0,0,0,.05.11A41,41,0,0,1,399,398.6c.12.36,1.58,3.81,2.22,3.46,1.29-.72,4.14-2.73,4.14-2.73Z"></path></g><path d="M405.32,399.33a6.23,6.23,0,0,1-.68.53c-.46.34-1.14.83-2,1.43l-.71.47-.39.24c-.14.06-.24.22-.52.19s-.57-.48-.79-.77a8.94,8.94,0,0,1-.56-1,12.12,12.12,0,0,1-1-2.27c-.26-.84-.46-1.73-.74-2.64s-.77-1.77-1.17-2.76a24.66,24.66,0,0,1-1.07-3.11c-.29-1.11-.52-2.25-.8-3.4a12.9,12.9,0,0,0-1.64-3.25,11.73,11.73,0,0,1-1.47-3.68,21.34,21.34,0,0,0-1.12-3.87c-.6-1.24-1.15-2.49-1.8-3.79a24.84,24.84,0,0,1-1.53-4.1c-.42-1.4-.77-2.82-1.23-4.16s-.93-2.64-1.48-3.92c-.27-.64-.53-1.28-.78-1.91a11.91,11.91,0,0,1-.67-1.93,25.91,25.91,0,0,1-.48-3.91,48.29,48.29,0,0,0-1.44-7.05,10.8,10.8,0,0,1,.4-3.29,22.73,22.73,0,0,0,.34-3c.06-.95,0-1.87.13-2.75a4.84,4.84,0,0,1,.94-2.31,32.44,32.44,0,0,0,2.24-3.19,2,2,0,0,1,1-1c.41-.14.74-.22,1-.3a2.71,2.71,0,0,0,.8-.28c.05,0-.23.2-.77.38l-1,.34a1.82,1.82,0,0,0-.89,1,32.36,32.36,0,0,1-2.18,3.26,4.53,4.53,0,0,0-.85,2.18c-.11.84,0,1.76-.09,2.73a21.86,21.86,0,0,1-.32,3,10.92,10.92,0,0,0-.37,3.17,46.82,46.82,0,0,1,1.5,7.06,26.21,26.21,0,0,0,.48,3.83,11.6,11.6,0,0,0,.66,1.87q.38.93.78,1.89c.54,1.26,1,2.6,1.5,4s.82,2.76,1.24,4.16c.73,2.84,2.16,5.29,3.31,7.86a21.58,21.58,0,0,1,1.12,3.94,11.44,11.44,0,0,0,1.4,3.54,13.58,13.58,0,0,1,1.67,3.37c.28,1.18.5,2.34.78,3.42a24.55,24.55,0,0,0,1,3.07,28.5,28.5,0,0,1,1.15,2.8c.28.94.47,1.83.7,2.66a13.68,13.68,0,0,0,.92,2.23c.17.33.35.65.54.95s.4.59.61.67c0,0,.22-.08.35-.15l.39-.23.72-.45,2.08-1.34A4.44,4.44,0,0,1,405.32,399.33Z" style="fill:#263238"></path><path d="M404.57,396.88c-.14,0-3.59-13.75-7.7-30.79s-7.34-30.89-7.2-30.92,3.59,13.75,7.7,30.8S404.71,396.85,404.57,396.88Z" style="fill:#263238"></path><path d="M388.12,328.6c1.22-.06,2.06-.48,3.16.24a40.14,40.14,0,0,0,3.75,2.07c1.34.69,1.7,1.55,2.39,2.87a23.87,23.87,0,0,0,1.82,3,21.69,21.69,0,0,1,2.05,3.52,20.34,20.34,0,0,1,1,3.45,23.36,23.36,0,0,0,1,3.16,18.18,18.18,0,0,1,1.54,4.89c.15,1.51.28,3,.38,4.53a25.65,25.65,0,0,0,.41,3c.23,1.18.53,2.74.79,4.05a24.37,24.37,0,0,1,.45,4.82A34.74,34.74,0,0,0,407,372c.25,2.15,1.08,4.28,1.13,6.45a31.47,31.47,0,0,0,0,4.45c.1.52.31,1.32.54,2.15a25.15,25.15,0,0,1,.92,6.22.49.49,0,0,1,0,.12,49,49,0,0,0,.93,5.21c.05.35.14,3.4-.53,3.38a46.69,46.69,0,0,1-4.79-.68Z" style="fill:#455a64"></path><path d="M405.5,399.31a5.43,5.43,0,0,1,.85.1c.55.08,1.37.21,2.43.33l.84.07a2.1,2.1,0,0,0,.43,0c.06,0,.15-.13.19-.27a7.28,7.28,0,0,0,.2-2.05c0-1.49-.63-3.14-.9-5.05-.16-1-.11-2-.23-3a24.75,24.75,0,0,0-.52-3.18l-.87-3.39a18.59,18.59,0,0,1,0-3.73,13.7,13.7,0,0,0-.46-3.77,20.87,20.87,0,0,1-.7-4c0-1.38-.12-2.81-.13-4.21a25.75,25.75,0,0,0-.53-4.23c-.27-1.44-.6-2.83-.79-4.26-.09-.71-.19-1.41-.28-2.11s-.12-1.39-.18-2.07-.12-1.36-.17-2a10.2,10.2,0,0,0-.29-1.94,28.24,28.24,0,0,0-1.31-3.61,25.52,25.52,0,0,1-1.12-3.55,14.77,14.77,0,0,0-1-3.28,23.36,23.36,0,0,0-1.6-2.79,29.2,29.2,0,0,1-1.63-2.54c-1.2-4-4.84-4.42-6.47-5.79a2.94,2.94,0,0,0-2.29-.39l-.64.05c-.15,0-.22,0-.22,0s.29,0,.84-.14a6.64,6.64,0,0,1,1.05-.11,2.38,2.38,0,0,1,1.37.44,38.65,38.65,0,0,0,3.42,1.83,4.41,4.41,0,0,1,1.92,1.57c.5.74.85,1.57,1.34,2.38s1,1.64,1.64,2.49a22.15,22.15,0,0,1,1.66,2.83,15.08,15.08,0,0,1,1,3.36,24.66,24.66,0,0,0,1.12,3.48,30,30,0,0,1,1.35,3.67,11.45,11.45,0,0,1,.3,2c.06.67.12,1.35.17,2a62.05,62.05,0,0,0,1.26,8.38,25.37,25.37,0,0,1,.53,4.32c0,1.44.09,2.8.13,4.17a20.15,20.15,0,0,0,.68,3.95,14.39,14.39,0,0,1,.45,3.9,17.65,17.65,0,0,0,0,3.63l.84,3.37a25.77,25.77,0,0,1,.5,3.24c.11,1.05.05,2.06.19,3,.24,1.87.89,3.52.83,5.1a7.39,7.39,0,0,1-.26,2.14.6.6,0,0,1-.39.42,3.54,3.54,0,0,1-.48,0l-.84-.1c-1.06-.15-1.88-.31-2.43-.42A4.56,4.56,0,0,1,405.5,399.31Z" style="fill:#263238"></path><g id="freepik--2--inject-20"><path d="M429.42,291.9c-.19-.34-1.07-1.53-1.38-2a18.32,18.32,0,0,0-1.66-2.11,11.65,11.65,0,0,0,1.31,2.48c.27.44,1,1.62,1.18,1.94.07.1.19.25.46.08A.29.29,0,0,0,429.42,291.9Z" style="fill:#e0e0e0"></path><path d="M417,318.87c-.38-.07-1.86-.17-2.38-.22a19.67,19.67,0,0,0-2.69-.1,11.6,11.6,0,0,0,2.73.61c.52.08,1.86.32,2.25.36.12,0,.32,0,.36-.3A.3.3,0,0,0,417,318.87Z" style="fill:#e0e0e0"></path><path d="M417.89,343.53c-.39,0-1.86.23-2.38.3a19.59,19.59,0,0,0-2.64.49,11.7,11.7,0,0,0,2.8,0c.52,0,1.89-.09,2.27-.14.12,0,.31-.06.29-.37A.3.3,0,0,0,417.89,343.53Z" style="fill:#e0e0e0"></path><path d="M420.17,362.3c-.39,0-1.86.24-2.38.31a18.12,18.12,0,0,0-2.64.49,11.7,11.7,0,0,0,2.8,0c.52-.05,1.89-.1,2.27-.15.12,0,.31-.05.29-.37A.3.3,0,0,0,420.17,362.3Z" style="fill:#e0e0e0"></path><path d="M421.77,379.19c-.39,0-1.86.23-2.37.3a17.85,17.85,0,0,0-2.64.49,11.65,11.65,0,0,0,2.8,0c.51,0,1.88-.1,2.27-.14a.3.3,0,0,0,.28-.37A.29.29,0,0,0,421.77,379.19Z" style="fill:#e0e0e0"></path><path d="M422.64,393.85c-.39,0-1.84.37-2.35.47a17.84,17.84,0,0,0-2.6.68,11.86,11.86,0,0,0,2.79-.2c.52-.08,1.88-.23,2.26-.31.11,0,.31-.07.26-.39A.3.3,0,0,0,422.64,393.85Z" style="fill:#e0e0e0"></path><path d="M421.26,302.63c-.36-.16-1.77-.62-2.26-.79a20.13,20.13,0,0,0-2.59-.73,11.34,11.34,0,0,0,2.51,1.24c.48.19,1.73.75,2.1.88.11,0,.3.09.42-.2A.3.3,0,0,0,421.26,302.63Z" style="fill:#e0e0e0"></path><path d="M440.8,289.79c0-.39-.18-1.86-.24-2.38a18.89,18.89,0,0,0-.42-2.66,11.66,11.66,0,0,0-.07,2.8c0,.52,0,1.89.08,2.28,0,.11.05.31.36.29A.29.29,0,0,0,440.8,289.79Z" style="fill:#e0e0e0"></path><path d="M446,288.48a51.11,51.11,0,0,1-5.92-1.34c-.29.14-5.87,2.32-6.27,2.53s-5.74.44-6,.68c-.7.56-3.63,5.91-3.63,5.91s-5.1,5.17-5.51,6.46c-.2.65-1.17,8.5-1.17,8.5s-2.77,7.29-2.8,7.59c-.06.6,1.26,10.95,1.59,11.69,0,0-.45,12.69-.44,13.34a65.16,65.16,0,0,1,2.32,9.81c.27,3-.66,9-.41,9.09,0,0,2.28,6.57,2.27,8.49,0,2.32-1.36,8-1.29,8.35,0,0,1.1,4.15,1.3,5.13.63,3.11-.35,6.32-.14,9.49,0,.46,2.32,4.48,2.79,4.53,3.6.4,10.43.94,12.89.84C436.73,399.53,446,288.48,446,288.48Z" style="fill:#455a64"></path><path d="M467,324.21c.39,0,1.86.22,2.38.28A20.2,20.2,0,0,1,472,325a11.35,11.35,0,0,1-2.8,0c-.52,0-1.88-.08-2.27-.13-.12,0-.31-.05-.29-.36A.29.29,0,0,1,467,324.21Z" style="fill:#e0e0e0"></path><path d="M461,348.12c.38.09,1.77.62,2.26.79a18.76,18.76,0,0,1,2.48,1,11.64,11.64,0,0,1-2.74-.59c-.5-.15-1.82-.49-2.19-.62-.11,0-.29-.12-.2-.42A.29.29,0,0,1,461,348.12Z" style="fill:#e0e0e0"></path><path d="M455.67,366.08c.38.1,1.76.63,2.26.8a18.76,18.76,0,0,1,2.48,1,11.64,11.64,0,0,1-2.74-.59c-.5-.15-1.82-.49-2.19-.62a.29.29,0,0,1-.2-.42A.3.3,0,0,1,455.67,366.08Z" style="fill:#e0e0e0"></path><path d="M451.24,382.33c.38.09,1.77.62,2.26.79a18.76,18.76,0,0,1,2.48,1,11.64,11.64,0,0,1-2.74-.59c-.5-.15-1.82-.49-2.19-.62-.11,0-.29-.12-.2-.42A.29.29,0,0,1,451.24,382.33Z" style="fill:#e0e0e0"></path><path d="M447.7,396.62c.37.12,1.72.75,2.19,1a18.09,18.09,0,0,1,2.4,1.2,11.16,11.16,0,0,1-2.68-.78c-.49-.18-1.79-.62-2.15-.77a.3.3,0,0,1-.17-.44A.31.31,0,0,1,447.7,396.62Z" style="fill:#e0e0e0"></path><path d="M466.75,307.47c.38-.08,1.86-.22,2.38-.29a20.25,20.25,0,0,1,2.68-.17,11.71,11.71,0,0,1-2.71.69c-.52.08-1.85.37-2.24.41-.12,0-.32,0-.37-.28A.3.3,0,0,1,466.75,307.47Z" style="fill:#e0e0e0"></path><path d="M461.58,294.35c.26-.29,1.37-1.27,1.76-1.63a18.23,18.23,0,0,1,2.07-1.71,11.94,11.94,0,0,1-1.8,2.15c-.36.37-1.28,1.38-1.57,1.65a.33.33,0,0,1-.46-.46Z" style="fill:#e0e0e0"></path><path d="M452.11,290.66c.08-.38.57-1.78.73-2.27a18.55,18.55,0,0,1,1-2.51,11.64,11.64,0,0,1-.52,2.75c-.13.5-.44,1.84-.56,2.21,0,.11-.1.29-.41.21A.3.3,0,0,1,452.11,290.66Z" style="fill:#e0e0e0"></path><path d="M446.27,288.5l6.51-.06c.21.19,4.37,3.41,4.65,3.69s4.63,1.54,4.83,1.83a59,59,0,0,1,1.83,6.5s3.18,6.05,3.27,7.39c0,.68-.69,8.55-.69,8.55s.86,7.68.82,8c-.06.6-3.15,10.48-3.56,11.15,0,0-2.1,12.51-2.24,13.15a74,74,0,0,0-3.8,9.16c-.81,2.91-1.21,9-1.42,9,0,0-3.15,6-3.52,7.87-.41,2.29-.44,8.14-.56,8.43,0,0-1.71,3.85-2.06,4.78-1.12,2.92-.94,6.26-1.72,9.31-.06.47-2.78,3.94-3.17,3.9a94.5,94.5,0,0,1-10.74-1.67C433.75,399.15,446.27,288.5,446.27,288.5Z" style="fill:#455a64"></path><g style="opacity:0.30000000000000004"><path d="M446.27,288.5l6.51-.06c.21.19,4.37,3.41,4.65,3.69s4.63,1.54,4.83,1.83a59,59,0,0,1,1.83,6.5s3.18,6.05,3.27,7.39c0,.68-.69,8.55-.69,8.55s.86,7.68.82,8c-.06.6-3.15,10.48-3.56,11.15,0,0-2.1,12.51-2.24,13.15a74,74,0,0,0-3.8,9.16c-.81,2.91-1.21,9-1.42,9,0,0-3.15,6-3.52,7.87-.41,2.29-.44,8.14-.56,8.43,0,0-1.71,3.85-2.06,4.78-1.12,2.92-.94,6.26-1.72,9.31-.06.47-2.78,3.94-3.17,3.9a94.5,94.5,0,0,1-10.74-1.67C433.75,399.15,446.27,288.5,446.27,288.5Z"></path></g><path d="M443.83,289.33c-.06-.32-.17-.73-.29-1.14a7.84,7.84,0,0,0-.39-1.11,1.78,1.78,0,0,0-.31-.47,2,2,0,0,0,0,.56,7.49,7.49,0,0,0,.22,1.16,11.21,11.21,0,0,0,.3,1.13c0,.1.08.25.34.18A.23.23,0,0,0,443.83,289.33Z" style="fill:#e0e0e0"></path><path d="M449,289.88c.13-.29.32-.67.53-1.05a9.58,9.58,0,0,1,.61-1,2.17,2.17,0,0,1,.4-.39,2,2,0,0,1-.08.56,8.77,8.77,0,0,1-.45,1.09c-.18.38-.38.76-.54,1,0,.09-.13.22-.36.11A.25.25,0,0,1,449,289.88Z" style="fill:#e0e0e0"></path><path d="M458,311c.36-.14.85-.3,1.36-.45a9.43,9.43,0,0,1,1.39-.33,2.36,2.36,0,0,1,.69,0,2.55,2.55,0,0,1-.55.41,11.05,11.05,0,0,1-1.33.54c-.49.18-1,.33-1.37.44-.11,0-.3.07-.4-.23A.29.29,0,0,1,458,311Z" style="fill:#e0e0e0"></path><path d="M455.09,296.76c.27-.28.64-.65,1-1a8.94,8.94,0,0,1,1.11-.91.36.36,0,1,1,.31.32,12.53,12.53,0,0,1-1,1.06c-.36.38-.74.73-1,1-.08.08-.24.2-.46,0A.29.29,0,0,1,455.09,296.76Z" style="fill:#e0e0e0"></path><path d="M458,327.87c.4,0,.91,0,1.43.1a9.68,9.68,0,0,1,1.42.22,2.24,2.24,0,0,1,.63.27,2.18,2.18,0,0,1-.66.17,9.85,9.85,0,0,1-1.44,0c-.52,0-1-.07-1.42-.11-.12,0-.32,0-.29-.37A.29.29,0,0,1,458,327.87Z" style="fill:#e0e0e0"></path><path d="M453.3,349.46c.38.07.89.19,1.39.33a9.31,9.31,0,0,1,1.37.43,2.14,2.14,0,0,1,.58.36,2.09,2.09,0,0,1-.68.07,13.11,13.11,0,0,1-1.42-.22c-.51-.11-1-.23-1.39-.34-.11,0-.3-.09-.23-.4A.3.3,0,0,1,453.3,349.46Z" style="fill:#e0e0e0"></path><path d="M449.41,368.58c.37.13.86.32,1.33.53a11.44,11.44,0,0,1,1.3.62,2.61,2.61,0,0,1,.52.45,2.47,2.47,0,0,1-.69,0,12.25,12.25,0,0,1-1.37-.43c-.49-.18-1-.37-1.33-.53-.1-.05-.28-.14-.16-.44A.29.29,0,0,1,449.41,368.58Z" style="fill:#e0e0e0"></path><path d="M445.42,384.16c.34.12.78.29,1.22.48a10.94,10.94,0,0,1,1.18.57,2.2,2.2,0,0,1,.48.41,2.06,2.06,0,0,1-.63,0,9.74,9.74,0,0,1-1.26-.39c-.45-.16-.89-.34-1.21-.49-.1,0-.26-.13-.16-.4A.28.28,0,0,1,445.42,384.16Z" style="fill:#e0e0e0"></path><path d="M442.37,399.1c.23.19.52.45.79.72a7.16,7.16,0,0,1,.73.79,1.77,1.77,0,0,1,.25.45,1.65,1.65,0,0,1-.47-.21,8.16,8.16,0,0,1-.84-.67c-.3-.25-.58-.52-.79-.72a.22.22,0,0,1,0-.35A.22.22,0,0,1,442.37,399.1Z" style="fill:#e0e0e0"></path><path d="M429.57,307.8c-.32-.21-.77-.47-1.23-.72a11.31,11.31,0,0,0-1.29-.62,2.33,2.33,0,0,0-.68-.13,2.56,2.56,0,0,0,.45.52,11.1,11.1,0,0,0,1.19.8c.44.28.89.54,1.24.72a.29.29,0,0,0,.44-.14A.3.3,0,0,0,429.57,307.8Z" style="fill:#e0e0e0"></path><path d="M436.46,294.77c-.2-.33-.49-.76-.8-1.18a10.69,10.69,0,0,0-.89-1.12,2.5,2.5,0,0,0-.55-.42,2.25,2.25,0,0,0,.18.67,10.74,10.74,0,0,0,.72,1.24,13.93,13.93,0,0,0,.81,1.18c.07.09.19.25.46.07A.3.3,0,0,0,436.46,294.77Z" style="fill:#e0e0e0"></path><path d="M426.49,324.52c-.39-.07-.9-.15-1.42-.2a11,11,0,0,0-1.43-.09,2.24,2.24,0,0,0-.67.13,2.26,2.26,0,0,0,.61.31,10.27,10.27,0,0,0,1.4.3c.52.09,1,.15,1.42.19.12,0,.32,0,.36-.3A.3.3,0,0,0,426.49,324.52Z" style="fill:#e0e0e0"></path><path d="M426.47,346.88c-.39,0-.91,0-1.43,0a11.13,11.13,0,0,0-1.43.13,2.39,2.39,0,0,0-.64.23,2,2,0,0,0,.65.21,10.15,10.15,0,0,0,1.43.08c.53,0,1.05,0,1.44,0,.11,0,.31,0,.3-.35A.29.29,0,0,0,426.47,346.88Z" style="fill:#e0e0e0"></path><path d="M426.34,366.33c-.39.05-.9.13-1.41.24a9.92,9.92,0,0,0-1.4.34,2.14,2.14,0,0,0-.6.32,2.4,2.4,0,0,0,.68.11,10.08,10.08,0,0,0,1.43-.13c.51-.06,1-.15,1.41-.23.11,0,.3-.08.25-.39A.3.3,0,0,0,426.34,366.33Z" style="fill:#e0e0e0"></path><path d="M426.65,382.56c-.35.05-.82.12-1.29.22a8.59,8.59,0,0,0-1.28.31,1.88,1.88,0,0,0-.55.3,2.28,2.28,0,0,0,.62.1,9.64,9.64,0,0,0,1.31-.12c.47-.06.94-.15,1.29-.22.11,0,.28-.07.24-.36A.28.28,0,0,0,426.65,382.56Z" style="fill:#e0e0e0"></path><path d="M426.39,397.06c-.26.14-.6.33-.92.54a8.23,8.23,0,0,0-.88.61,1.73,1.73,0,0,0-.34.39,1.64,1.64,0,0,0,.5-.1,9.3,9.3,0,0,0,1-.47c.34-.19.67-.39.92-.55a.22.22,0,0,0,.07-.34A.22.22,0,0,0,426.39,397.06Z" style="fill:#e0e0e0"></path></g><path d="M446.07,288.44c0,.2-2.65,0-3,0a2.9,2.9,0,0,0-1.88,1c-1.62,1.49-3.51,2.46-5.24,3.8s-2.29,2.88-3,4.88A37.35,37.35,0,0,1,430.8,303c-.92,1.74-2.54,3.77-2.73,5.76-.18,1.8-.28,3.62-.49,5.43a38.81,38.81,0,0,1-.95,5c-.69,2.63-1.44,4.94-1.37,7.69q.11,3.51.33,7a38.62,38.62,0,0,1,0,4.69c-.11,1.82-.26,4.26-.39,6.31a37.36,37.36,0,0,0,.27,7.4,54.83,54.83,0,0,1,.56,5.75c0,3.19-.88,6.44-.55,9.61.25,2.37,1.11,4.74,1,7.18,0,.8-.2,2.06-.39,3.36a38.8,38.8,0,0,0-.16,9.63,1.41,1.41,0,0,1,0,.18c.21,2.28-.26,4.68-.32,7,0,.58.32,6.31,1.42,6.12,2.24-.37,7.38-1.8,7.38-1.8Z" style="fill:#455a64"></path><g style="opacity:0.2"><path d="M446.07,288.44c0,.2-2.65,0-3,0a2.9,2.9,0,0,0-1.88,1c-1.62,1.49-3.51,2.46-5.24,3.8s-2.29,2.88-3,4.88A37.35,37.35,0,0,1,430.8,303c-.92,1.74-2.54,3.77-2.73,5.76-.18,1.8-.28,3.62-.49,5.43a38.81,38.81,0,0,1-.95,5c-.69,2.63-1.44,4.94-1.37,7.69q.11,3.51.33,7a38.62,38.62,0,0,1,0,4.69c-.11,1.82-.26,4.26-.39,6.31a37.36,37.36,0,0,0,.27,7.4,54.83,54.83,0,0,1,.56,5.75c0,3.19-.88,6.44-.55,9.61.25,2.37,1.11,4.74,1,7.18,0,.8-.2,2.06-.39,3.36a38.8,38.8,0,0,0-.16,9.63,1.41,1.41,0,0,1,0,.18c.21,2.28-.26,4.68-.32,7,0,.58.32,6.31,1.42,6.12,2.24-.37,7.38-1.8,7.38-1.8Z"></path></g><path d="M434.43,399.36l-.32.11-.94.28c-.84.24-2.07.59-3.67,1l-1.27.31-.68.14-.36.07a.56.56,0,0,1-.45-.05,2.83,2.83,0,0,1-.7-1.48,16.5,16.5,0,0,1-.31-1.67,19.74,19.74,0,0,1-.23-3.77c.06-1.33.24-2.72.3-4.18s-.19-3-.25-4.59a38.82,38.82,0,0,1,.07-5c.06-.86.18-1.75.29-2.63s.2-1.78.31-2.69a20.07,20.07,0,0,0-.69-5.56,17.11,17.11,0,0,1-.37-3,24.05,24.05,0,0,1,.15-3.05,39.57,39.57,0,0,0,.43-6.17c-.1-2.11-.44-4.22-.69-6.41a37.21,37.21,0,0,1-.08-6.68c.13-2.24.27-4.46.4-6.64s-.08-4.31-.16-6.43c0-1.06-.1-2.11-.14-3.15a18.06,18.06,0,0,1,0-3.12,40.46,40.46,0,0,1,1.32-5.86,36,36,0,0,0,1-5.56c.19-1.85.29-3.6.54-5.36a16.62,16.62,0,0,1,2.25-4.52,34.09,34.09,0,0,0,2-4.12c.58-1.34,1-2.7,1.58-3.9a7.44,7.44,0,0,1,2.51-2.82,50.35,50.35,0,0,0,4.88-3.47,4.52,4.52,0,0,1,.94-.72,2.61,2.61,0,0,1,1-.26c.64,0,1.17.06,1.61.07a3.43,3.43,0,0,0,1.3,0c0,.08-.45.15-1.31.13-.43,0-1,0-1.59,0a2.44,2.44,0,0,0-.95.27,4.69,4.69,0,0,0-.89.71,46.59,46.59,0,0,1-4.83,3.55,7.12,7.12,0,0,0-2.39,2.74c-.59,1.17-1,2.53-1.54,3.89a33.9,33.9,0,0,1-2,4.18,16.8,16.8,0,0,0-2.18,4.41c-.43,3.38-.44,7.16-1.49,10.95a38.27,38.27,0,0,0-1.29,5.79,17.24,17.24,0,0,0,0,3.05c.05,1,.1,2.08.15,3.14.08,2.11.27,4.28.17,6.48s-.27,4.4-.4,6.65a37.24,37.24,0,0,0,.07,6.6c.25,2.15.59,4.3.69,6.43a39.72,39.72,0,0,1-.45,6.25,17.77,17.77,0,0,0,.2,5.88,20,20,0,0,1,.67,5.68c-.11.92-.21,1.83-.32,2.72s-.23,1.75-.3,2.61a38,38,0,0,0-.1,5,45.86,45.86,0,0,1,.22,4.62c-.07,1.49-.26,2.88-.34,4.19A20.26,20.26,0,0,0,426,398a16.2,16.2,0,0,0,.28,1.65,2.77,2.77,0,0,0,.58,1.33c.11.1.4,0,.62,0l.69-.14,1.27-.28,3.68-.89,1-.23A1.34,1.34,0,0,1,434.43,399.36Z" style="fill:#263238"></path><path d="M434.62,395.44c-.15,0,2-21.67,4.89-48.37s5.26-48.33,5.4-48.32-2,21.67-4.89,48.38S434.76,395.46,434.62,395.44Z" style="fill:#263238"></path><path d="M446.06,288.48c1.79.54,3.23.36,4.43,2a61.55,61.55,0,0,0,4.36,4.92c1.56,1.68,1.65,3.12,2,5.37A38.71,38.71,0,0,0,457.9,306a32.11,32.11,0,0,1,1.15,6.14,30.64,30.64,0,0,1-.35,5.48,37.69,37.69,0,0,0-.13,5.1c.11,2.57.34,5.34-.3,7.85q-.84,3.38-1.78,6.73a39.25,39.25,0,0,0-1,4.58c-.27,1.81-.63,4.22-.94,6.25a37.82,37.82,0,0,1-1.83,7.18,51.59,51.59,0,0,0-1.75,5.51c-.75,3.23-.65,6.72-1.7,9.88-.71,2.15-1.9,4.17-2.29,6.42-.13.8-.24,2.07-.33,3.38a38.54,38.54,0,0,1-1.87,9.44l-.06.18c-.81,2.59-.82,5.34-1.35,8-.1.54-1.54,5-2.49,4.61a73.38,73.38,0,0,1-6.57-3.45Z" style="fill:#455a64"></path><path d="M434.7,399.43l.3.14.86.47c.76.41,1.87,1,3.34,1.74.36.18.75.37,1.16.55.2.09.44.19.62.25s.34-.14.49-.32a11.08,11.08,0,0,0,1.36-2.87,14.61,14.61,0,0,0,.75-3.61c.16-1.3.29-2.69.57-4.14s.87-2.89,1.23-4.44a39.55,39.55,0,0,0,.89-4.86l.51-5.32a27.89,27.89,0,0,1,1.89-5.37c1.53-3.54,1.17-7.73,2.31-11.86.55-2,1.35-4.06,2-6.1a37.49,37.49,0,0,0,1.42-6.41c.35-2.2.68-4.39,1-6.54s1-4.23,1.53-6.26l.81-3a15.67,15.67,0,0,0,.59-3,44.78,44.78,0,0,0,0-5.91,36.69,36.69,0,0,1,.21-5.68,21.93,21.93,0,0,0,.25-5.26,33.37,33.37,0,0,0-.87-4.87,42.93,42.93,0,0,1-1.05-4.48c-.27-1.45-.35-2.86-.65-4.11a6.31,6.31,0,0,0-1.83-3.1,54.37,54.37,0,0,1-3.92-4.5,4.57,4.57,0,0,0-3.15-1.75c-.42-.09-.74-.18-.95-.24a1.17,1.17,0,0,1-.31-.12,1.14,1.14,0,0,1,.32.07l1,.19a8.4,8.4,0,0,1,1.56.39,3.69,3.69,0,0,1,1.73,1.33,58.37,58.37,0,0,0,4,4.43,6.66,6.66,0,0,1,1.94,3.21c.33,1.31.41,2.7.69,4.13s.64,2.91,1.08,4.45a33.78,33.78,0,0,1,.91,4.92A22.54,22.54,0,0,1,459,317a38.46,38.46,0,0,0-.18,5.61,43.88,43.88,0,0,1,.05,6,16.65,16.65,0,0,1-.61,3c-.26,1-.53,2-.79,3-.52,2-1.15,4.08-1.52,6.21s-.66,4.33-1,6.53a39.9,39.9,0,0,1-1.44,6.49c-.69,2.08-1.48,4.06-2,6.08-1.12,4-.77,8.24-2.35,11.9a27.33,27.33,0,0,0-1.89,5.26c-.18,1.82-.36,3.59-.53,5.3a38.16,38.16,0,0,1-.93,4.91c-.37,1.57-1,3-1.25,4.41-.61,2.84-.53,5.55-1.41,7.77a11.2,11.2,0,0,1-1.45,2.94.85.85,0,0,1-.72.39c-.27-.09-.45-.18-.67-.27-.41-.19-.8-.39-1.17-.58-1.45-.75-2.55-1.39-3.29-1.83l-.84-.51A1.55,1.55,0,0,1,434.7,399.43Z" style="fill:#263238"></path><polygon points="445.66 463.3 399.34 463.3 381.34 393.97 462.26 393.97 445.66 463.3" style="fill:#F9A158"></polygon><g style="opacity:0.30000000000000004"><polygon points="381.34 393.97 399.34 463.3 423.55 463.3 421.07 394.13 381.34 393.97"></polygon></g><path d="M424,463.08c-.14,0-.91-15.42-1.72-34.46s-1.35-34.48-1.2-34.49.91,15.42,1.72,34.47S424.13,463.08,424,463.08Z" style="fill:#263238"></path></g><g id="freepik--cactus-3--inject-20"><path d="M330.38,408.66h-26.7V182.23A13.35,13.35,0,0,1,317,168.88h0a13.35,13.35,0,0,1,13.35,13.35Z" style="fill:#455a64"></path><path d="M329.86,195c2,1.15,4.61,0,5.89-1.92s1.58-4.23,2-6.47,1-4.61,2.68-6.14c3-2.75,8.31-1.29,10.56,2.11s2.06,7.9.89,11.81a27.15,27.15,0,0,1-11.76,15.19c-3.47,2.11-7.8,3.42-11.58,1.95" style="fill:#455a64"></path><path d="M306.8,253.54s-13.06-6.91-13.38-22.16c-.41-20.32,3.5-34.61-8.79-34.6-11.53,0-9.31,14-10,29.93s5.51,41.94,30.58,44C305.23,270.74,313,262.85,306.8,253.54Z" style="fill:#455a64"></path><path d="M329,323.52s14.28-5.62,17.22-20.07,2.14-42.31,2.68-46.05,2.14-10.47,12.05-9.65,11.24,11.52,10.71,20.36,3.54,72.2-42.66,74.69C329,342.8,321.65,334.49,329,323.52Z" style="fill:#455a64"></path><path d="M303.68,336.25c-.15,0-.26-26.13-.26-58.35s.11-58.36.26-58.36.26,26.12.26,58.36S303.82,336.25,303.68,336.25Z" style="fill:#263238"></path><path d="M330.38,347.4c-.14,0-.26-35.22-.26-78.66s.12-78.66.26-78.66.26,35.22.26,78.66S330.52,347.4,330.38,347.4Z" style="fill:#263238"></path><path d="M311.76,392.68c-.15,0-.26-49.65-.26-110.88s.11-110.89.26-110.89.26,49.64.26,110.89S311.9,392.68,311.76,392.68Z" style="fill:#263238"></path><path d="M321.42,392.68c-.15,0-.26-49.65-.26-110.88s.11-110.89.26-110.89.26,49.64.26,110.89S321.56,392.68,321.42,392.68Z" style="fill:#263238"></path><path d="M356.89,248.07a.92.92,0,0,1,0,.24l.07.7c.05.62.14,1.53.21,2.7.16,2.35.32,5.76.36,10a202.67,202.67,0,0,1-2.37,32.82,77,77,0,0,1-4.38,17.59,34.4,34.4,0,0,1-8.14,12.31,24.78,24.78,0,0,1-8.39,5.37,16.19,16.19,0,0,1-3.53.94s.07,0,.22-.08l.68-.19a11.1,11.1,0,0,0,1.1-.33,14.19,14.19,0,0,0,1.46-.53,25.1,25.1,0,0,0,8.21-5.44,34.53,34.53,0,0,0,7.95-12.23,79.11,79.11,0,0,0,4.31-17.49,217.59,217.59,0,0,0,2.51-32.73c0-4.21-.1-7.61-.19-10-.05-1.14-.09-2-.11-2.7,0-.29,0-.52,0-.71A.87.87,0,0,1,356.89,248.07Z" style="fill:#263238"></path><path d="M363.89,248.37a.84.84,0,0,1,.05.27c0,.21,0,.47.07.79.05.69.15,1.72.21,3,.15,2.64.28,6.47.24,11.21a243.41,243.41,0,0,1-3.13,36.83c-1.17,7.11-2.93,13.9-6,19.44s-6.59,10-10.4,12.92a28.4,28.4,0,0,1-5.53,3.25,25.17,25.17,0,0,1-4.6,1.45c-.66.13-1.23.25-1.74.33l-1.28.12-.79.07a.92.92,0,0,1-.27,0s.08,0,.26-.06l.78-.11,1.28-.17,1.71-.37a26.61,26.61,0,0,0,4.54-1.53,27.72,27.72,0,0,0,5.41-3.28c3.74-2.87,7.27-7.36,10.21-12.84s4.7-12.21,5.87-19.31a262.13,262.13,0,0,0,3.28-36.75c.08-4.72,0-8.55-.08-11.19,0-1.29-.09-2.31-.12-3,0-.32,0-.58,0-.79A1.1,1.1,0,0,1,363.89,248.37Z" style="fill:#263238"></path><path d="M304.18,267.16a4.34,4.34,0,0,1-.8-.14,18.21,18.21,0,0,1-2.25-.61,25.72,25.72,0,0,1-7.53-4.12,33,33,0,0,1-8.24-9.69,45.43,45.43,0,0,1-5-14.75,87.12,87.12,0,0,1-1-15.57c.06-4.79.3-9.09.43-12.71S280,203,280,201v-2.33a4.22,4.22,0,0,1,0-.81,4.82,4.82,0,0,1,.08.81c0,.53.07,1.31.1,2.33.06,2,.05,5-.05,8.57s-.28,7.93-.32,12.71a89.84,89.84,0,0,0,1.06,15.47,45.44,45.44,0,0,0,4.9,14.6,33.31,33.31,0,0,0,8.05,9.64,26.84,26.84,0,0,0,7.36,4.22c.95.33,1.7.58,2.22.7A5.34,5.34,0,0,1,304.18,267.16Z" style="fill:#263238"></path><path d="M287.38,198.48a3.19,3.19,0,0,1,0,.68c0,.5-.05,1.14-.09,2-.08,1.75-.2,4.18-.35,7.16a132.53,132.53,0,0,0,.7,23.57,67.51,67.51,0,0,0,2.91,12.63,27.47,27.47,0,0,0,4.94,9.26,16.11,16.11,0,0,0,5.61,4.27c1.55.66,2.49.8,2.47.85a2.84,2.84,0,0,1-.67-.09,11.8,11.8,0,0,1-1.88-.58,15.7,15.7,0,0,1-5.81-4.2,27.68,27.68,0,0,1-5.11-9.35,66,66,0,0,1-3-12.71,123,123,0,0,1-.54-23.67c.17-3,.37-5.47.51-7.16.08-.8.14-1.44.18-1.94A3.32,3.32,0,0,1,287.38,198.48Z" style="fill:#263238"></path><path d="M343.24,180.47a5.25,5.25,0,0,1,0,1.1c0,.7-.09,1.72-.22,3a29.74,29.74,0,0,1-2.45,9.55,15.77,15.77,0,0,1-6.66,7.2,10.36,10.36,0,0,1-2.83,1,3.46,3.46,0,0,1-1.09.11,17.07,17.07,0,0,0,3.74-1.45,16.15,16.15,0,0,0,6.37-7.11,32.58,32.58,0,0,0,2.55-9.37c.15-1.15.28-2.14.39-2.95A4,4,0,0,1,343.24,180.47Z" style="fill:#263238"></path><path d="M349.61,181.18a7.49,7.49,0,0,1-.12,1.46c-.12.94-.31,2.29-.59,4a39.19,39.19,0,0,1-4.08,12.54,21.38,21.38,0,0,1-4.57,5.7,16.93,16.93,0,0,1-5.12,3.06,13.32,13.32,0,0,1-3.94.84,7.75,7.75,0,0,1-1.09,0c-.25,0-.38,0-.38-.05a17.61,17.61,0,0,0,5.27-1.13,17.39,17.39,0,0,0,4.94-3.08,21.73,21.73,0,0,0,4.44-5.59,42.35,42.35,0,0,0,4.17-12.36c.3-1.58.55-2.9.75-3.92A8,8,0,0,1,349.61,181.18Z" style="fill:#263238"></path><path d="M348.62,388.71H285.44C285,390.44,267.78,419,267.78,419l25.84,45h49.61l23-45S349.05,390.44,348.62,388.71Z" style="fill:#F9A158"></path><g style="opacity:0.30000000000000004"><polygon points="267.78 419.02 366.28 419.02 343.23 463.99 293.62 463.99 267.78 419.02"></polygon></g></g><g id="freepik--cactus-2--inject-20"><path d="M195.86,266.09a.81.81,0,0,1,.39,1.06.79.79,0,0,1-1.06.38.78.78,0,0,1-.38-1A.79.79,0,0,1,195.86,266.09Z" style="fill:#e0e0e0"></path><path d="M202.22,262.79a11.67,11.67,0,0,1-1.89,1.39c-1.21.8-2.89,1.88-4.77,3l-.45.28,0-.52v-.09a50.47,50.47,0,0,1,.83-5.67,9.1,9.1,0,0,1,.62-2.3,13.31,13.31,0,0,1-.26,2.36c-.2,1.45-.47,3.44-.67,5.66V267l-.4-.24c1.88-1.17,3.6-2.19,4.85-2.92A10.51,10.51,0,0,1,202.22,262.79Z" style="fill:#e0e0e0"></path><path d="M176.09,255a.79.79,0,0,1,.79.8.79.79,0,0,1-.8.78.79.79,0,1,1,0-1.58Z" style="fill:#e0e0e0"></path><path d="M180.5,249.35a10.5,10.5,0,0,1-1.14,2.05c-.76,1.23-1.85,2.91-3.07,4.75l-.3.43-.17-.49,0-.08a54,54,0,0,1-1.6-5.51,9.4,9.4,0,0,1-.38-2.34,13.27,13.27,0,0,1,.74,2.25c.41,1.4,1,3.33,1.74,5.43l0,.08-.46-.06c1.23-1.84,2.36-3.49,3.2-4.67A11.26,11.26,0,0,1,180.5,249.35Z" style="fill:#e0e0e0"></path><path d="M156.09,270.7a.79.79,0,1,1,1.14,1.1.8.8,0,0,1-1.12,0A.79.79,0,0,1,156.09,270.7Z" style="fill:#e0e0e0"></path><path d="M155,263.62a10.57,10.57,0,0,1,.7,2.24c.38,1.39.86,3.33,1.36,5.49l.12.51-.48-.21-.08,0a53.68,53.68,0,0,1-5.11-2.6,9.57,9.57,0,0,1-2-1.33,13.71,13.71,0,0,1,2.15,1c1.3.66,3.11,1.55,5.14,2.45l.08,0-.36.3c-.5-2.16-.92-4.11-1.2-5.53A10.67,10.67,0,0,1,155,263.62Z" style="fill:#e0e0e0"></path><path d="M156.32,328.15a.79.79,0,1,1,1.46-.61.79.79,0,0,1-1.46.61Z" style="fill:#e0e0e0"></path><path d="M149.39,326.33a10.86,10.86,0,0,1,2.33.24c1.44.22,3.41.55,5.58.95l.52.09-.39.36-.06.06a53.33,53.33,0,0,1-4.42,3.64,9.53,9.53,0,0,1-2,1.29,13.37,13.37,0,0,1,1.78-1.58c1.12-.93,2.66-2.23,4.3-3.74l.06-.06.13.45c-2.18-.4-4.14-.79-5.55-1.1A10.38,10.38,0,0,1,149.39,326.33Z" style="fill:#e0e0e0"></path><path d="M149.49,302.32a.8.8,0,1,1,.7.88A.8.8,0,0,1,149.49,302.32Z" style="fill:#e0e0e0"></path><path d="M144.36,297.33a10.64,10.64,0,0,1,1.91,1.36c1.14.89,2.69,2.15,4.39,3.57l.4.33-.51.12-.08,0a52.36,52.36,0,0,1-5.65,1,9.27,9.27,0,0,1-2.37.13,11.47,11.47,0,0,1,2.32-.5c1.43-.26,3.41-.64,5.58-1.14l.08,0-.11.46c-1.69-1.42-3.21-2.73-4.29-3.69A11.22,11.22,0,0,1,144.36,297.33Z" style="fill:#e0e0e0"></path><path d="M238.09,339.9a.79.79,0,1,1-1.41-.72.78.78,0,0,1,1.06-.35A.8.8,0,0,1,238.09,339.9Z" style="fill:#e0e0e0"></path><path d="M241.17,346.37a11.18,11.18,0,0,1-1.32-1.94c-.76-1.23-1.78-2.95-2.88-4.87l-.26-.46.52.07h.09a51.5,51.5,0,0,1,5.64,1,9,9,0,0,1,2.27.7,13.13,13.13,0,0,1-2.35-.34c-1.43-.26-3.42-.59-5.63-.87h-.08l.25-.39c1.1,1.92,2.07,3.67,2.75,4.95A10.07,10.07,0,0,1,241.17,346.37Z" style="fill:#e0e0e0"></path><path d="M248.28,316.76a.79.79,0,0,1-.9.67.8.8,0,0,1-.67-.9.79.79,0,0,1,.91-.67A.78.78,0,0,1,248.28,316.76Z" style="fill:#e0e0e0"></path><path d="M253.26,321.91a11.36,11.36,0,0,1-1.87-1.42c-1.11-.92-2.62-2.23-4.27-3.7l-.4-.35.52-.1.08,0a51.54,51.54,0,0,1,5.68-.82,9.07,9.07,0,0,1,2.37-.06,12.37,12.37,0,0,1-2.33.42c-1.44.22-3.43.54-5.61,1l-.09,0,.12-.45c1.65,1.47,3.13,2.82,4.18,3.82A10.06,10.06,0,0,1,253.26,321.91Z" style="fill:#e0e0e0"></path><path d="M251.27,294a.8.8,0,1,1-1.12,0A.8.8,0,0,1,251.27,294Z" style="fill:#e0e0e0"></path><path d="M258.38,293.15a10.12,10.12,0,0,1-2.26.63c-1.4.33-3.36.75-5.53,1.18l-.51.11.23-.47,0-.08a53.12,53.12,0,0,1,2.77-5,10.24,10.24,0,0,1,1.38-1.93,11.85,11.85,0,0,1-1.06,2.12c-.7,1.28-1.65,3.06-2.62,5.06l0,.08-.29-.37c2.17-.43,4.14-.79,5.56-1A10.76,10.76,0,0,1,258.38,293.15Z" style="fill:#e0e0e0"></path><path d="M244.69,283.07A19.88,19.88,0,0,0,226,279c-3.41,1-6.48,3-9.81,4.28s-7.27,1.82-10.37,0c-4-2.31-5.13-7.43-6.86-11.73-3.66-9.14-12.83-16.66-22.63-15.68-5.33.53-10.2,3.44-14.06,7.16-9.94,9.55-13.78,24.23-12.55,38s7,26.67,13.9,38.6a199.85,199.85,0,0,0,26.22,35.53l23.39-3.06c16.22-10.7,25.91-28.8,33.24-46.81,2.84-7,5.46-14.2,5.78-21.72S250.32,288.07,244.69,283.07Z" style="fill:#455a64"></path><g style="opacity:0.30000000000000004"><path d="M244.41,330.27a87.27,87.27,0,0,1-34.9,19c-6.3,1.71-13,2.7-19.33,1.1-5.43-1.37-10.22-4.58-14.5-8.2-15.18-12.87-25-32.23-25.16-52.13l-.92,3.43a55.88,55.88,0,0,0,.16,7.55c1.23,13.73,7,26.67,13.9,38.6A199.6,199.6,0,0,0,183.59,368c8.1,1.88,16.64.81,24.92-.29,5-.66,10.19-1.39,14.62-3.73C232.42,354.64,239.06,342.59,244.41,330.27Z"></path></g><path d="M252.88,266.54a19,19,0,0,0-6.82.79l9.56-7.15c.25-.19.54-.43.54-.75a.72.72,0,0,0-.55-.65,2,2,0,0,0-.9,0c-4.72,1-8.59,4.24-12.23,7.39l3.59-6a30.14,30.14,0,0,0,2.37-4.54,10,10,0,0,0,.69-5,17.29,17.29,0,0,0-9.84,13.31c-.14-5.17-.3-10.43-1.94-15.33a21.64,21.64,0,0,0,.8,17.58l8,3.78a18.93,18.93,0,0,0,13.05-.84A10.67,10.67,0,0,0,252.88,266.54Z" style="fill:#F9A158"></path><g style="opacity:0.2"><path d="M252.88,266.54a19,19,0,0,0-6.82.79l9.56-7.15c.25-.19.54-.43.54-.75a.72.72,0,0,0-.55-.65,2,2,0,0,0-.9,0c-4.72,1-8.59,4.24-12.23,7.39l3.59-6a30.14,30.14,0,0,0,2.37-4.54,10,10,0,0,0,.69-5,17.29,17.29,0,0,0-9.84,13.31c-.14-5.17-.3-10.43-1.94-15.33a21.64,21.64,0,0,0,.8,17.58l8,3.78a18.93,18.93,0,0,0,13.05-.84A10.67,10.67,0,0,0,252.88,266.54Z"></path></g><path d="M247.59,268.65a67.32,67.32,0,0,0,9.84-4.9,10.21,10.21,0,0,0-6.55.15,30.5,30.5,0,0,0-6,3A37.33,37.33,0,0,0,252.58,253a20.61,20.61,0,0,0-11.4,12.15c1.22-5.47,2.44-11.24.82-16.62a31.88,31.88,0,0,0-4,15.8,14.41,14.41,0,0,0-6.61-9.81A33.83,33.83,0,0,0,236.85,269l1.06.38c5.64,4.19,14.67,4.37,21.46,2.54A17,17,0,0,0,247.59,268.65Z" style="fill:#F9A158"></path><path d="M235.88,267.08a19.61,19.61,0,0,1-3.9,15.39l3.29,4c.61-5.71,4.31-11.52,9.46-14.07C241.78,270.45,238.83,269,235.88,267.08Z" style="fill:#455a64"></path><path d="M236.38,269.48l-.45-4.38,2.2,3.35a22.33,22.33,0,0,1,.84-7.67q.24,3.83.72,7.64c.94-2.17,3-4,4.39-5.91-.91,2.38-2.7,4.53-3.6,6.92,2.12-1.18,4.44-2.54,7.1-1.81-2.31.07-4.14,2.16-6.19,3.22l6.49-.66-4.26,1.64.32.59-4.33,2Z" style="fill:#455a64"></path><path d="M225,265a14.14,14.14,0,0,0-2.92,4.13c.26-2.92.53-5.83.79-8.75a.79.79,0,0,0-.14-.66.52.52,0,0,0-.63,0,1.39,1.39,0,0,0-.42.51c-1.79,3.06-1.91,6.78-2,10.32l-1.53-4.93a22,22,0,0,0-1.32-3.53,7.45,7.45,0,0,0-2.4-2.85,12.7,12.7,0,0,0,2.43,11.93c-2.89-2.46-5.84-5-9.33-6.48a15.9,15.9,0,0,0,10,8.21l6-2.49a14,14,0,0,0,6-7.55A7.93,7.93,0,0,0,225,265Z" style="fill:#F9A158"></path><g style="opacity:0.2"><path d="M225,265a14.14,14.14,0,0,0-2.92,4.13c.26-2.92.53-5.83.79-8.75a.79.79,0,0,0-.14-.66.52.52,0,0,0-.63,0,1.39,1.39,0,0,0-.42.51c-1.79,3.06-1.91,6.78-2,10.32l-1.53-4.93a22,22,0,0,0-1.32-3.53,7.45,7.45,0,0,0-2.4-2.85,12.7,12.7,0,0,0,2.43,11.93c-2.89-2.46-5.84-5-9.33-6.48a15.9,15.9,0,0,0,10,8.21l6-2.49a14,14,0,0,0,6-7.55A7.93,7.93,0,0,0,225,265Z"></path></g><path d="M223.57,268.93a48.85,48.85,0,0,0,2.15-7.79,7.46,7.46,0,0,0-3.14,3.66,21.84,21.84,0,0,0-1.29,4.72,27.54,27.54,0,0,0-3.84-11,15.14,15.14,0,0,0,1,12.21c-2.39-3.36-5-6.86-8.69-8.61a23.68,23.68,0,0,0,6.68,10,10.58,10.58,0,0,0-8.61-1.22A24.79,24.79,0,0,0,218.48,275l.73-.39c5.07-1,9.61-5.87,11.95-10.48A12.5,12.5,0,0,0,223.57,268.93Z" style="fill:#F9A158"></path><path d="M217,274.56a14.44,14.44,0,0,1,6.5,9.7l3.8.17a13.5,13.5,0,0,1-3.05-12.1C221.69,273,219.46,273.9,217,274.56Z" style="fill:#455a64"></path><path d="M218.51,275.47l-2.62-1.91,2.91.44a16.6,16.6,0,0,1-3.78-4.23q2.22,1.75,4.53,3.36c-.72-1.58-.7-3.6-1.07-5.3.86,1.67,1.15,3.7,2,5.37.4-1.74.8-3.68,2.51-4.77-1.1,1.3-.85,3.32-1.29,5l2.84-3.88-1.2,3.14.48.11-1.05,3.34Z" style="fill:#455a64"></path><path d="M200.85,336.45a.79.79,0,0,1,.87.71.81.81,0,0,1-.71.87.8.8,0,0,1-.87-.71A.78.78,0,0,1,200.85,336.45Z" style="fill:#e0e0e0"></path><path d="M204.61,330.35a10.08,10.08,0,0,1-.91,2.17c-.62,1.3-1.52,3.09-2.54,5.05l-.24.47-.22-.47,0-.08a51.53,51.53,0,0,1-2.2-5.3,9.57,9.57,0,0,1-.64-2.29,12.81,12.81,0,0,1,1,2.16c.56,1.35,1.36,3.2,2.32,5.2l0,.08h-.47c1-2,2-3.72,2.67-5A11,11,0,0,1,204.61,330.35Z" style="fill:#e0e0e0"></path><path d="M236.74,322.82a.8.8,0,0,1,.87.71.78.78,0,0,1-.71.87.79.79,0,0,1-.16-1.58Z" style="fill:#e0e0e0"></path><path d="M240.51,316.73a10.88,10.88,0,0,1-.92,2.16c-.62,1.3-1.51,3.09-2.53,5.06l-.24.46-.23-.47,0-.08a54.46,54.46,0,0,1-2.19-5.29,9.25,9.25,0,0,1-.64-2.29,12,12,0,0,1,1,2.15c.57,1.35,1.36,3.2,2.32,5.21l0,.07h-.46c1-2,2-3.73,2.67-5A9.87,9.87,0,0,1,240.51,316.73Z" style="fill:#e0e0e0"></path><path d="M225.24,301.12a.78.78,0,0,1,.87.71.79.79,0,0,1-.71.87.81.81,0,0,1-.87-.71A.8.8,0,0,1,225.24,301.12Z" style="fill:#e0e0e0"></path><path d="M229,295a10.61,10.61,0,0,1-.92,2.16c-.62,1.31-1.51,3.1-2.53,5.06l-.24.47-.23-.48,0-.07a52.47,52.47,0,0,1-2.2-5.3,9.25,9.25,0,0,1-.64-2.29,12.4,12.4,0,0,1,1,2.16c.57,1.34,1.37,3.19,2.33,5.2l0,.08h-.46c1-2,2-3.72,2.67-5A10.45,10.45,0,0,1,229,295Z" style="fill:#e0e0e0"></path><path d="M243.68,299.3a.79.79,0,0,1,.87.71.81.81,0,0,1-.71.87.8.8,0,0,1-.87-.71A.78.78,0,0,1,243.68,299.3Z" style="fill:#e0e0e0"></path><path d="M247.44,293.2a10.59,10.59,0,0,1-.91,2.16c-.63,1.31-1.52,3.1-2.54,5.06l-.24.47-.22-.47,0-.08a52.47,52.47,0,0,1-2.2-5.3,9.84,9.84,0,0,1-.64-2.29,12.81,12.81,0,0,1,1,2.16c.56,1.34,1.36,3.19,2.32,5.2l0,.08h-.47c1-2,2-3.72,2.67-5A11,11,0,0,1,247.44,293.2Z" style="fill:#e0e0e0"></path><path d="M210.27,319.05a.79.79,0,0,1,.87.71.81.81,0,0,1-.71.87.8.8,0,0,1-.87-.71A.78.78,0,0,1,210.27,319.05Z" style="fill:#e0e0e0"></path><path d="M214,313a9.92,9.92,0,0,1-.91,2.16c-.62,1.31-1.52,3.1-2.54,5.06l-.24.47-.22-.48,0-.07a52.47,52.47,0,0,1-2.2-5.3,9.84,9.84,0,0,1-.64-2.29,12.81,12.81,0,0,1,1,2.16c.56,1.34,1.36,3.19,2.32,5.2l0,.08h-.47c1-2,2-3.72,2.67-5A11.1,11.1,0,0,1,214,313Z" style="fill:#e0e0e0"></path><path d="M211.17,354.19a.79.79,0,1,1-.71.87A.78.78,0,0,1,211.17,354.19Z" style="fill:#e0e0e0"></path><path d="M214.93,348.09a9.92,9.92,0,0,1-.91,2.16c-.62,1.31-1.52,3.1-2.53,5.06l-.25.47-.22-.48,0-.07a52.08,52.08,0,0,1-2.19-5.3,9.62,9.62,0,0,1-.65-2.29,12.81,12.81,0,0,1,1,2.16c.57,1.34,1.36,3.19,2.32,5.2l0,.08H211c1-2,2-3.72,2.67-5A11,11,0,0,1,214.93,348.09Z" style="fill:#e0e0e0"></path><path d="M223,339.94a.79.79,0,1,1,.16,1.57.79.79,0,1,1-.16-1.57Z" style="fill:#e0e0e0"></path><path d="M226.81,333.84a10.61,10.61,0,0,1-.92,2.16c-.62,1.31-1.51,3.1-2.53,5.06l-.24.47-.23-.48,0-.08a54.46,54.46,0,0,1-2.19-5.29,9.25,9.25,0,0,1-.64-2.29,11.94,11.94,0,0,1,1,2.16c.57,1.34,1.36,3.19,2.32,5.2l0,.08h-.46c1-2,2-3.72,2.67-5A9.87,9.87,0,0,1,226.81,333.84Z" style="fill:#e0e0e0"></path><path d="M184.84,357.67a.8.8,0,0,1,.87.71.79.79,0,1,1-1.58.16A.8.8,0,0,1,184.84,357.67Z" style="fill:#e0e0e0"></path><path d="M188.6,351.58a10.39,10.39,0,0,1-.91,2.16c-.62,1.31-1.52,3.09-2.53,5.06l-.24.46-.23-.47,0-.08a54.46,54.46,0,0,1-2.19-5.29,10.26,10.26,0,0,1-.65-2.29,11.56,11.56,0,0,1,1,2.15c.57,1.35,1.36,3.2,2.32,5.21l0,.08h-.47c1-2,2-3.73,2.68-5A10.79,10.79,0,0,1,188.6,351.58Z" style="fill:#e0e0e0"></path><path d="M188.23,318.26a.78.78,0,0,1,.87.71.79.79,0,1,1-1.57.16A.78.78,0,0,1,188.23,318.26Z" style="fill:#e0e0e0"></path><path d="M192,312.16a10.59,10.59,0,0,1-.91,2.16c-.63,1.31-1.52,3.1-2.54,5.06l-.24.47-.22-.47,0-.08a51.53,51.53,0,0,1-2.2-5.3,9.13,9.13,0,0,1-.64-2.29,12.81,12.81,0,0,1,1,2.16c.56,1.35,1.36,3.2,2.32,5.2l0,.08h-.47c1-2,2-3.72,2.67-5A11,11,0,0,1,192,312.16Z" style="fill:#e0e0e0"></path><path d="M204,295.52a.79.79,0,1,1-.71.87A.81.81,0,0,1,204,295.52Z" style="fill:#e0e0e0"></path><path d="M207.72,289.43a10.88,10.88,0,0,1-.92,2.16c-.62,1.3-1.51,3.09-2.53,5.06l-.24.46-.23-.47,0-.08a52.43,52.43,0,0,1-2.2-5.29,9.25,9.25,0,0,1-.64-2.29,12,12,0,0,1,1,2.15c.57,1.35,1.37,3.2,2.33,5.21l0,.07h-.46c1-2,2-3.73,2.67-5A10,10,0,0,1,207.72,289.43Z" style="fill:#e0e0e0"></path><path d="M180.25,299a.8.8,0,0,1,.88.71.81.81,0,0,1-.71.87.8.8,0,0,1-.87-.71A.78.78,0,0,1,180.25,299Z" style="fill:#e0e0e0"></path><path d="M184,292.91a10.78,10.78,0,0,1-.91,2.17c-.63,1.3-1.52,3.09-2.54,5.05l-.24.47-.22-.47,0-.08a51.53,51.53,0,0,1-2.2-5.3,9,9,0,0,1-.64-2.29,12.81,12.81,0,0,1,1,2.16c.56,1.35,1.36,3.2,2.32,5.2l0,.08h-.47c1-2,2-3.72,2.67-5A11,11,0,0,1,184,292.91Z" style="fill:#e0e0e0"></path><path d="M178.1,271.86a.8.8,0,0,1,.87.71.79.79,0,1,1-1.57.16A.79.79,0,0,1,178.1,271.86Z" style="fill:#e0e0e0"></path><path d="M181.87,265.77a11.14,11.14,0,0,1-.91,2.16c-.63,1.31-1.52,3.09-2.54,5.06l-.24.46L178,273l0-.08a52.43,52.43,0,0,1-2.2-5.29,9.25,9.25,0,0,1-.64-2.29,12.42,12.42,0,0,1,1,2.15c.56,1.35,1.36,3.2,2.32,5.21l0,.08H178c1-2,2-3.73,2.67-5A11.1,11.1,0,0,1,181.87,265.77Z" style="fill:#e0e0e0"></path><path d="M161.85,287.47a.79.79,0,1,1,.16,1.58.78.78,0,0,1-.87-.71A.79.79,0,0,1,161.85,287.47Z" style="fill:#e0e0e0"></path><path d="M165.61,281.38a11.14,11.14,0,0,1-.91,2.16c-.63,1.3-1.52,3.09-2.54,5.06l-.24.46-.22-.47,0-.08a51.53,51.53,0,0,1-2.2-5.3,9.71,9.71,0,0,1-.64-2.28,12.42,12.42,0,0,1,1,2.15c.56,1.35,1.36,3.2,2.32,5.21l0,.07h-.47c1-2,2-3.73,2.67-5A10.64,10.64,0,0,1,165.61,281.38Z" style="fill:#e0e0e0"></path><path d="M164.14,316a.8.8,0,0,1,.87.71.78.78,0,0,1-.71.87.79.79,0,0,1-.87-.71A.81.81,0,0,1,164.14,316Z" style="fill:#e0e0e0"></path><path d="M167.91,310a10.61,10.61,0,0,1-.92,2.16c-.62,1.31-1.51,3.09-2.53,5.06l-.24.47-.23-.48,0-.08a52.43,52.43,0,0,1-2.2-5.29,9.25,9.25,0,0,1-.64-2.29,11.94,11.94,0,0,1,1,2.16c.57,1.34,1.37,3.19,2.33,5.2l0,.08H164c1-2,2-3.73,2.67-5A10.45,10.45,0,0,1,167.91,310Z" style="fill:#e0e0e0"></path><path d="M174.72,339.72a.79.79,0,0,1,.87.71.81.81,0,0,1-.71.87.79.79,0,0,1-.16-1.58Z" style="fill:#e0e0e0"></path><path d="M178.48,333.63a11.14,11.14,0,0,1-.91,2.16c-.63,1.3-1.52,3.09-2.54,5l-.24.47-.22-.47,0-.08a51.53,51.53,0,0,1-2.2-5.3,9.57,9.57,0,0,1-.64-2.29,13.33,13.33,0,0,1,1,2.16c.56,1.35,1.36,3.2,2.32,5.2l0,.08h-.47c1-2,2-3.72,2.67-5A10.64,10.64,0,0,1,178.48,333.63Z" style="fill:#e0e0e0"></path><path d="M223.34,286.43a32.7,32.7,0,0,0-.61-3.9,33.2,33.2,0,0,0-1.57-3.62,8,8,0,0,1,2.18,7.52Z" style="fill:#263238"></path><path d="M227.46,286.06a14.2,14.2,0,0,1-3.75-10.65A42.05,42.05,0,0,0,225,281,42.85,42.85,0,0,0,227.46,286.06Z" style="fill:#263238"></path><path d="M236.33,271.94a11.38,11.38,0,0,1-5,10.06,22.68,22.68,0,0,0,3.33-4.61A23.23,23.23,0,0,0,236.33,271.94Z" style="fill:#263238"></path><path d="M240.92,275.11a37.47,37.47,0,0,0-2.88,4.83,38,38,0,0,0-1.65,5.38,13.62,13.62,0,0,1,4.53-10.21Z" style="fill:#263238"></path><rect x="166.59" y="364.81" width="70.45" height="57.2" style="fill:#F9A158"></rect><path d="M163,463.49h0a3.7,3.7,0,0,1-3.7-3.7V384.31a3.69,3.69,0,0,1,3.7-3.69h0a3.69,3.69,0,0,1,3.69,3.69v75.48A3.7,3.7,0,0,1,163,463.49Z" style="fill:#ae7461"></path><path d="M163,463.49a4.4,4.4,0,0,0,1.67-.46,3.7,3.7,0,0,0,1.48-1.47,3.53,3.53,0,0,0,.41-1.26,13,13,0,0,0,0-1.55c0-4.43-.05-10.8-.08-18.66s0-17.27-.06-27.68c0-5.21,0-10.68,0-16.35,0-2.83,0-5.72,0-8.64v-2.21a5.38,5.38,0,0,0-.22-2.1,3.43,3.43,0,0,0-6.43,0,5.53,5.53,0,0,0-.22,2.1v2.2q0,4.39,0,8.65c0,5.67,0,11.14,0,16.35,0,10.41,0,19.79-.06,27.68s-.06,14.23-.08,18.67a12.89,12.89,0,0,0,0,1.54,3.53,3.53,0,0,0,.41,1.26,3.76,3.76,0,0,0,1.48,1.47,4.38,4.38,0,0,0,1.68.46,2.69,2.69,0,0,1-.46,0,3.69,3.69,0,0,1-2.83-1.85,3.63,3.63,0,0,1-.46-1.32,13.19,13.19,0,0,1-.05-1.56c0-4.44,0-10.81-.08-18.67s0-17.27-.06-27.68c0-5.21,0-10.68,0-16.35V385.21a6.07,6.07,0,0,1,.25-2.29,4,4,0,0,1,7.41,0,5.83,5.83,0,0,1,.25,2.28v10.85c0,5.67,0,11.14,0,16.35,0,10.41,0,19.79,0,27.68s-.07,14.23-.09,18.66a13.29,13.29,0,0,1-.05,1.57,3.69,3.69,0,0,1-2,2.8,3.72,3.72,0,0,1-1.27.37A2.54,2.54,0,0,1,163,463.49Z" style="fill:#6f4439"></path><path d="M240.59,463.49h0a3.7,3.7,0,0,1-3.69-3.7V384.31a3.69,3.69,0,0,1,3.69-3.69h0a3.69,3.69,0,0,1,3.7,3.69v75.48A3.7,3.7,0,0,1,240.59,463.49Z" style="fill:#ae7461"></path><path d="M240.59,463.49a4.38,4.38,0,0,0,1.68-.46,3.7,3.7,0,0,0,1.48-1.47,3.53,3.53,0,0,0,.41-1.26,13,13,0,0,0,0-1.55c0-4.43-.05-10.8-.08-18.66s0-17.27-.06-27.68c0-5.21,0-10.68,0-16.35,0-2.83,0-5.72,0-8.64v-2.21a5.57,5.57,0,0,0-.22-2.1,3.43,3.43,0,0,0-6.43,0,5.34,5.34,0,0,0-.22,2.1v2.2q0,4.39,0,8.65c0,5.67,0,11.14,0,16.35,0,10.41,0,19.79-.06,27.68s-.06,14.23-.08,18.67a12.89,12.89,0,0,0,0,1.54,3.53,3.53,0,0,0,.41,1.26,3.7,3.7,0,0,0,1.48,1.47,4.4,4.4,0,0,0,1.67.46,2.54,2.54,0,0,1-.45,0,3.72,3.72,0,0,1-1.27-.37,3.69,3.69,0,0,1-2-2.8,13.19,13.19,0,0,1,0-1.56c0-4.44-.05-10.81-.09-18.67s0-17.27-.05-27.68c0-5.21,0-10.68,0-16.35V385.21a5.88,5.88,0,0,1,.25-2.29,4,4,0,0,1,7.41,0,6,6,0,0,1,.25,2.28v10.85c0,5.67,0,11.14,0,16.35,0,10.41,0,19.79-.05,27.68s-.07,14.23-.09,18.66a13.29,13.29,0,0,1,0,1.57,3.63,3.63,0,0,1-.46,1.32,3.69,3.69,0,0,1-2.83,1.85A2.69,2.69,0,0,1,240.59,463.49Z" style="fill:#6f4439"></path><path d="M235.8,384.09c-.06,0-.45-1-1.6-2.67a18.7,18.7,0,0,0-6.3-5.53,22.43,22.43,0,0,0-12.07-2.66,37,37,0,0,0-14.69,4.15c-4.91,2.39-9.58,5-14.34,5.89a19.38,19.38,0,0,1-6.79.28,14.76,14.76,0,0,1-5.57-2,22.38,22.38,0,0,1-6.2-5.86c-.6-.81-1-1.47-1.31-1.92a4,4,0,0,1-.39-.71,5.91,5.91,0,0,1,.48.65c.31.43.76,1.07,1.39,1.85a22.94,22.94,0,0,0,6.22,5.67,14.45,14.45,0,0,0,5.44,1.91,19.32,19.32,0,0,0,6.64-.32c4.65-.93,9.27-3.48,14.2-5.89a37.23,37.23,0,0,1,14.9-4.16,22.71,22.71,0,0,1,12.27,2.81,18.39,18.39,0,0,1,6.29,5.75A12,12,0,0,1,235.8,384.09Z" style="fill:#fff"></path><path d="M235.8,409.84c-.06,0-.45-1-1.6-2.67a18.71,18.71,0,0,0-6.3-5.54A22.52,22.52,0,0,0,215.83,399a37,37,0,0,0-14.69,4.15c-4.91,2.39-9.58,5-14.34,5.89a19.87,19.87,0,0,1-6.79.28,14.77,14.77,0,0,1-5.57-2,22.38,22.38,0,0,1-6.2-5.86c-.6-.81-1-1.47-1.31-1.91a4.42,4.42,0,0,1-.39-.71,4.83,4.83,0,0,1,.48.65c.31.43.76,1.06,1.39,1.85a22.94,22.94,0,0,0,6.22,5.67,14.63,14.63,0,0,0,5.44,1.91,19.32,19.32,0,0,0,6.64-.32c4.65-.93,9.27-3.48,14.2-5.89a36.91,36.91,0,0,1,14.9-4.16,22.62,22.62,0,0,1,12.27,2.81,18.48,18.48,0,0,1,6.29,5.74A11.89,11.89,0,0,1,235.8,409.84Z" style="fill:#fff"></path><path d="M202.4,463.49h0a3.7,3.7,0,0,1-3.69-3.7V384.31a3.69,3.69,0,0,1,3.69-3.69h0a3.7,3.7,0,0,1,3.7,3.69v75.48A3.7,3.7,0,0,1,202.4,463.49Z" style="fill:#ae7461"></path><path d="M202.4,463.49a4.38,4.38,0,0,0,1.68-.46,3.76,3.76,0,0,0,1.48-1.47,3.53,3.53,0,0,0,.41-1.26c.06-.47,0-1,0-1.55,0-4.43-.05-10.8-.08-18.66s0-17.27-.06-27.68c0-5.21,0-10.68,0-16.35V385.21a5.57,5.57,0,0,0-.22-2.1,3.43,3.43,0,0,0-6.43,0,5.34,5.34,0,0,0-.22,2.1v10.85c0,5.67,0,11.14,0,16.35,0,10.41,0,19.79-.06,27.68s-.06,14.23-.08,18.67a12.89,12.89,0,0,0,0,1.54,3.53,3.53,0,0,0,.41,1.26,3.7,3.7,0,0,0,1.48,1.47,4.4,4.4,0,0,0,1.67.46,2.54,2.54,0,0,1-.45,0,3.66,3.66,0,0,1-1.27-.37,3.76,3.76,0,0,1-1.57-1.48,3.81,3.81,0,0,1-.45-1.32c-.07-.5,0-1-.06-1.56,0-4.44,0-10.81-.08-18.67s0-17.27-.05-27.68c0-5.21,0-10.68,0-16.35V385.21a5.88,5.88,0,0,1,.25-2.29,4,4,0,0,1,7.41,0,6,6,0,0,1,.25,2.28v2.21c0,2.92,0,5.81,0,8.64,0,5.67,0,11.14,0,16.35,0,10.41,0,19.79-.06,27.68s-.06,14.23-.08,18.66a13.29,13.29,0,0,1,0,1.57,3.82,3.82,0,0,1-.46,1.32,3.74,3.74,0,0,1-1.56,1.48,3.7,3.7,0,0,1-1.28.37A2.59,2.59,0,0,1,202.4,463.49Z" style="fill:#6f4439"></path></g><g id="freepik--cactus-1--inject-20"><path d="M60.58,370.28a5,5,0,0,1-2.6-4.85c.12-1.13.63-2.25.37-3.36a7.2,7.2,0,0,0-1.43-2.38,8.44,8.44,0,0,1,0-9.42A7.32,7.32,0,0,1,53.37,345c-.36-1.91,1.06-5.55,1.06-5.55A7,7,0,0,1,52,335.24a8.76,8.76,0,0,1,1.76-6.56A7.84,7.84,0,0,1,52,317.76,9.87,9.87,0,0,1,50.7,306.9,8,8,0,0,1,49,296.64a12.8,12.8,0,0,1-3.12-11.05s-2.58-10.42-1.91-12.53c.3-.93-3.53,7.87-4.61,23.08s5.21,60.53,8.85,79,15.58,39.1,15.58,39.1l15.2-1.9s-15.74-27.15-17.64-38L61.26,371" style="fill:#455a64"></path><g style="opacity:0.30000000000000004"><path d="M64.21,375.21c-.9-2.55-3-3.63-4.64-5.81A31.5,31.5,0,0,0,55,386.61c.25,6,1.64,11.9,3,17.75L62.42,403q1-12,2-24A9.21,9.21,0,0,0,64.21,375.21Z"></path></g><path d="M139.61,319.41c1.27-.27-11.3,34.12-13.84,53.46s-11.48,43.46-15.07,49.48-13.71.51-13.71.51l15.65-39.07,1.32-12s3.69-6.17,3.56-12.16c0,0,3.22-1.61,3.9-8.07,0,0,3.43-.82,4.14-7.79,0,0,2.46-5.83,2.43-9.47C128,334.26,134.86,320.4,139.61,319.41Z" style="fill:#455a64"></path><g style="opacity:0.30000000000000004"><path d="M111.77,386.65a50.1,50.1,0,0,1-.37,13.23l6.08-3.32a14.77,14.77,0,0,1-4.13,9,44.26,44.26,0,0,1-7.82,6.32,192,192,0,0,1,5.83-26.41"></path></g><path d="M142.09,344c-.24.61-2.53,14.6-3.87,23.21-1.16,7.45-3,24.11-9.46,35s-15.68,20-21.6,23.69c-9.21,5.78-17,5.69-17,5.69l19.43-27.34s7.71-4,6.74-7.46l.79-4.62s5.57-1.3,6.17-6.94c0,0,5.47-4.86,5.14-12.28,0,0,4.62-3.32,3.92-8.06,0,0,3.73-3.45,3-6.33,0,0,3.4-2.63,2.22-6.16Z" style="fill:#455a64"></path><path d="M142.09,344c-.33.65-1.65,3.19-4.39,8.48v-.08a5,5,0,0,1-.06,3.27,7.38,7.38,0,0,1-2.19,3l0-.14a4,4,0,0,1,0,1.73,7.14,7.14,0,0,1-.66,1.69,13,13,0,0,1-2.36,3.06l0-.15a7.46,7.46,0,0,1-.79,4.46,11.42,11.42,0,0,1-3.18,3.78l.08-.15a16.7,16.7,0,0,1-5.19,12.44l.07-.13a7.86,7.86,0,0,1-2,4.45,9.2,9.2,0,0,1-4.37,2.68l.17-.18c-.25,1.43-.52,3-.79,4.62v-.11a3.24,3.24,0,0,1-.55,2.62,9.73,9.73,0,0,1-1.77,2,25.15,25.15,0,0,1-4.52,3.11l.08-.08L90.4,431.79l-.2-.41a20,20,0,0,0,2.35-.2A35.17,35.17,0,0,0,103,428a39.11,39.11,0,0,0,8.88-5.84,83.07,83.07,0,0,0,13.47-15,58.22,58.22,0,0,0,4.85-8,59.79,59.79,0,0,0,3.19-8.27,120.41,120.41,0,0,0,3.46-15.57c1.45-9.66,2.76-17.47,3.68-22.86.46-2.69.84-4.78,1.11-6.19.13-.71.24-1.25.32-1.61s.16-.51.15-.54-.52,3-1.38,8.38-2.11,13.2-3.51,22.88a121.42,121.42,0,0,1-3.42,15.63,60.35,60.35,0,0,1-3.18,8.35,59,59,0,0,1-4.88,8.12,82.86,82.86,0,0,1-13.53,15.11,39.36,39.36,0,0,1-9,5.93,35.91,35.91,0,0,1-10.58,3.28,20.57,20.57,0,0,1-2.43.2h-.51l.3-.41,19.44-27.33,0-.05.06,0a24.08,24.08,0,0,0,4.43-3,9.5,9.5,0,0,0,1.69-1.91,2.84,2.84,0,0,0,.5-2.24v-.1c.27-1.61.55-3.19.8-4.62l0-.14.15,0a8.84,8.84,0,0,0,4.15-2.53,7.52,7.52,0,0,0,1.86-4.21v-.08l.06-.06A16.37,16.37,0,0,0,128.27,373v-.09l.08-.07a11.2,11.2,0,0,0,3.08-3.64,7.11,7.11,0,0,0,.79-4.25v-.08l.06-.06a12.82,12.82,0,0,0,2.32-3,7,7,0,0,0,.64-1.61,3.76,3.76,0,0,0,0-1.6l0-.09.07-.06a7.07,7.07,0,0,0,2.12-2.89,4.66,4.66,0,0,0,.08-3.12v-.05l0,0C140.37,347.18,141.74,344.66,142.09,344Z" style="fill:#263238"></path><path d="M70.58,239.22s-8.25,13.22-8.81,35.24,4.41,113.35,4.41,113.35l6.33,18.77,11-3.3s-6.34-59.73-6.89-68.82-2.79-44.31-4-57.25S68.93,241.15,70.58,239.22Z" style="fill:#263238"></path><path d="M19.7,341.78S23.83,377,30.87,393.26c11.93,27.54,49.66,36.46,49.66,36.46l-20-26.1s-5.45,2.17-6.81-4.36c0,0-7.35-2.73-6.81-6.81a9.25,9.25,0,0,1-6.27-7.22,8.39,8.39,0,0,1-5.44-9.13S31,375,31.83,369.77A9.36,9.36,0,0,1,27.92,361s-3-2.17-2.77-7.38Z" style="fill:#455a64"></path><path d="M19.7,341.78l5.55,11.79,0,0v0a10.49,10.49,0,0,0,.46,3.74A7.55,7.55,0,0,0,28,360.88l.07.06V361a8.9,8.9,0,0,0,.62,4.61,9.77,9.77,0,0,0,3.24,4l.09.07v.11a6.21,6.21,0,0,0,.39,3.65,4.83,4.83,0,0,0,2.88,2.46l.16,0,0,.16a8.7,8.7,0,0,0,1,5.29A8.51,8.51,0,0,0,40.74,385l.12.05,0,.12a9.31,9.31,0,0,0,2,4.28A9.12,9.12,0,0,0,47,392.23l.19.06,0,.19c-.18,1.53.86,3,2.17,4A17.5,17.5,0,0,0,53.83,399l.13.05,0,.13a6.07,6.07,0,0,0,2.1,3.76,4.88,4.88,0,0,0,4.38.42l.18-.07.11.14,20,26.1.47.61-.73-.2-1.51-.4a102.13,102.13,0,0,1-21.4-8.87,73.32,73.32,0,0,1-17.19-13,48,48,0,0,1-10.5-16.38A118.8,118.8,0,0,1,25.17,375c-2.26-10.16-3.52-18.48-4.36-24.23-.4-2.88-.69-5.12-.87-6.64-.09-.75-.15-1.32-.2-1.73s0-.61,0-.59,0,.2.1.58.14,1,.24,1.73c.23,1.53.55,3.76,1,6.62.9,5.73,2.22,14.05,4.52,24.17a119.69,119.69,0,0,0,4.74,16.28,47.64,47.64,0,0,0,10.45,16.21,72.66,72.66,0,0,0,17.09,12.88,101.82,101.82,0,0,0,21.29,8.82l1.49.4-.27.41-20-26.11.29.08a5.33,5.33,0,0,1-4.85-.48,6.55,6.55,0,0,1-2.28-4.06l.15.17A17.71,17.71,0,0,1,49,396.86a7.49,7.49,0,0,1-1.74-1.94,4,4,0,0,1-.59-2.5l.17.25a9.6,9.6,0,0,1-4.33-2.91,9.84,9.84,0,0,1-2.09-4.49l.15.16a8.89,8.89,0,0,1-4.56-3.82,9,9,0,0,1-1-5.53l.15.21a5.24,5.24,0,0,1-3.12-2.68,6.58,6.58,0,0,1-.41-3.87l.08.18a10.09,10.09,0,0,1-3.34-4.16,9.13,9.13,0,0,1-.62-4.78l.07.14a7.65,7.65,0,0,1-2.36-3.66,10.64,10.64,0,0,1-.45-3.84v.05Z" style="fill:#263238"></path><path d="M132.45,280.59s-17,7.72-27.27,49.46c-4.24,17.2,5.8,52.19,5.8,52.19l6.44-29.07s-5.39-2.33-1.72-7.9c0,0-3.25-7.14,0-9.64a9.23,9.23,0,0,1,.7-9.53,8.39,8.39,0,0,1,2.63-10.3s-2.21-3.82,2.1-6.87a9.35,9.35,0,0,1,3.46-8.95s-.61-3.69,3.27-7.18Z" style="fill:#263238"></path><path d="M94.81,218.46c.65-1.3-8,11.41-9.36,22.14s-1.93,18.72-1.93,18.72,1.7,7.45-1,10.86c0,0,3.55,9.65,0,15.05,0,0,2.84,9.09,0,12.64,0,0,3,9.08,0,12.21,0,0,4,7.81,0,11.5,0,0,2.84,7.81-.56,10.65,0,0,3.55,6.6,0,9.55,0,0,3.12,12.46-1.71,13.88,0,0,1.8,10.93-1.3,12.35,0,0,2,10.37-1.68,12.64,0,0,1,9.94-1.56,12.35,0,0,2,7.38-.57,10.79s1.49,22.59,1.49,22.59H92.69l2.76-14.49S94.31,342.31,94,331s-2.56-47.71-2.56-47.71-.71-33.51-.85-37.48S92.6,222.82,94.81,218.46Z" style="fill:#455a64"></path><path d="M108.91,256.22s-7,25.07-3.49,52,8.88,60.92,5.71,80.59a167.42,167.42,0,0,1-6.92,26.77A28.21,28.21,0,0,1,89.8,431.83h0s-7.22-10.7-6-15.9,6.53-13.44,6.53-13.44,5.84-9.2,4.57-14.59c0,0,3.49-4.44,2.86-9.52,0,0,3.17-7.61,1.58-12.06,0,0,4.44-5.39,2.22-11.74,0,0,1.27-2.85-.63-9.2,0,0-1-9.83-3.17-12.69,0,0,2.51-5.44,0-10.07,0,0,2-5.3-.7-9.43a9.45,9.45,0,0,0,0-7.94s2-4-.49-7.11c0,0,1.32-5.29.49-8.27,0,0,1.56-5.13.7-8.1a29,29,0,0,0,2-7.28,7,7,0,0,0,2.32-6.78s2.31.33,2.81-5Z" style="fill:#455a64"></path><path d="M108.91,256.22l-4,6.57v0a12,12,0,0,1-.57,2.82,4.64,4.64,0,0,1-.77,1.43,2,2,0,0,1-1.56.8l.11-.12a6.54,6.54,0,0,1-.12,3.55,7.62,7.62,0,0,1-2.21,3.34l0-.08a27.87,27.87,0,0,1-1.94,7.32v-.09a10.81,10.81,0,0,1,.16,4,26.56,26.56,0,0,1-.84,4.17v-.09a12.32,12.32,0,0,1,.21,4.08,29.62,29.62,0,0,1-.69,4.27l0-.15A6,6,0,0,1,98,301.48a8.27,8.27,0,0,1-.74,3.85v-.16a9.61,9.61,0,0,1,0,8.11v-.19c1.69,2.65,1.79,6.31.72,9.6v-.17c1.6,3,1.43,6.87,0,10.26l0-.22a9.93,9.93,0,0,1,1.36,2.91,32.17,32.17,0,0,1,.82,3.18,64.8,64.8,0,0,1,1,6.71v0a25.73,25.73,0,0,1,.94,4.48,11.46,11.46,0,0,1-.31,4.88v-.17a11.58,11.58,0,0,1,.4,6.09,14.47,14.47,0,0,1-2.65,5.88l0-.24a12.64,12.64,0,0,1,.17,6.09A32,32,0,0,1,98,378.48v-.13a14.19,14.19,0,0,1-2.9,9.7l0-.21a12.08,12.08,0,0,1-.42,5.57,31.63,31.63,0,0,1-2,5.25,46.76,46.76,0,0,1-2.78,5c-1,1.62-1.93,3.29-2.82,5a51,51,0,0,0-2.4,5.26c-.15.46-.32.91-.45,1.38l-.2.69-.09.7a7.37,7.37,0,0,0,0,1.41c.08.48.12,1,.24,1.43a27.2,27.2,0,0,0,2,5.51,54.21,54.21,0,0,0,2.86,5.23l.63,1,.16.25.08.13c.31.09-.37-.05-.28-.06l.07,0,.53-.27c.7-.35,1.38-.76,2-1.17a27.25,27.25,0,0,0,3.76-2.81,27.69,27.69,0,0,0,5.81-7.23,43.69,43.69,0,0,0,3.37-8.55q1.39-4.36,2.57-8.73a123.27,123.27,0,0,0,3.46-17.35,120.75,120.75,0,0,0,.41-16.95c-.41-11.05-1.57-21.52-2.74-31.29s-2.45-18.86-3.52-27.16c-.29-2.07-.46-4.12-.69-6.1s-.26-3.93-.38-5.81c-.12-3.78-.14-7.34,0-10.67a156.14,156.14,0,0,1,1.6-17c.69-4.63,1.43-8.2,2-10.6.27-1.2.5-2.12.66-2.73l.2-.68.07-.24c-.07.33-.31,1.38-.83,3.67s-1.22,6-1.88,10.61a158.46,158.46,0,0,0-1.51,17c-.12,3.33-.09,6.88,0,10.64.12,1.88.22,3.82.4,5.8s.4,4,.7,6.08c1.1,8.3,2.38,17.38,3.59,27.16s2.36,20.25,2.79,31.33a121.83,121.83,0,0,1-.39,17,124.83,124.83,0,0,1-3.47,17.42c-.77,2.92-1.64,5.83-2.57,8.76a44.56,44.56,0,0,1-3.41,8.65,28.42,28.42,0,0,1-9.74,10.23c-.69.41-1.38.82-2.1,1.18L90,432l-.07,0c0,.05-.66-.19-.38-.12l-.08-.13-.17-.25-.64-1a57.65,57.65,0,0,1-2.88-5.29,27.19,27.19,0,0,1-2-5.62c-.12-.49-.17-1-.25-1.49a8.57,8.57,0,0,1,0-1.52l.11-.76.2-.72c.13-.48.31-.94.47-1.41a49.18,49.18,0,0,1,2.42-5.32c.9-1.72,1.85-3.39,2.84-5a46.1,46.1,0,0,0,2.76-4.93,30.17,30.17,0,0,0,2-5.17,11.62,11.62,0,0,0,.42-5.31l0-.12.07-.1a13.68,13.68,0,0,0,2.81-9.33v-.06l0-.07a32,32,0,0,0,1.73-6,12.38,12.38,0,0,0-.14-5.85l0-.12.09-.11a14,14,0,0,0,2.55-5.66,11.09,11.09,0,0,0-.37-5.85l0-.07,0-.1a11.15,11.15,0,0,0,.29-4.64,25,25,0,0,0-.93-4.4v-.05a67.07,67.07,0,0,0-1-6.66,30.68,30.68,0,0,0-.81-3.14,9.43,9.43,0,0,0-1.28-2.78l-.08-.1,0-.12c1.37-3.27,1.54-7.09,0-9.89l0-.07,0-.09c1-3.17.94-6.74-.67-9.26l0-.09,0-.1a9.25,9.25,0,0,0,0-7.77l0-.08,0-.08a8,8,0,0,0,.72-3.67,5.65,5.65,0,0,0-1.19-3.26l0-.06,0-.08a30.44,30.44,0,0,0,.7-4.22,12.15,12.15,0,0,0-.19-4v0l0,0a26.9,26.9,0,0,0,.84-4.12,10.57,10.57,0,0,0-.14-3.9v-.05l0-.05a27.47,27.47,0,0,0,2-7.23v-.05l0,0a7.44,7.44,0,0,0,2.16-3.23,6.44,6.44,0,0,0,.14-3.44l0-.12h.14a1.81,1.81,0,0,0,1.39-.72,4.48,4.48,0,0,0,.75-1.37,11.9,11.9,0,0,0,.58-2.78v0h0Z" style="fill:#263238"></path><g style="opacity:0.30000000000000004"><path d="M90.45,430.88a57.44,57.44,0,0,0-8.2-21.18c-2-3.15-4.35-6.13-5.83-9.56s-2-7.52-.33-10.86a8.58,8.58,0,0,1-2.86-8.17,11.24,11.24,0,0,1-4.1-12.1l-4.61-2.82-.45,14.06,1.7,22.24,9.57,15.29Z"></path></g><path d="M67.34,335.77c0,.66-3.06,14.5-5,23-1.69,7.34-6.17,23.49-4.21,36s8,24.74,15.17,30.52c9,7.31,17.49,6.48,17.49,6.48l-15.64-28s-5.67-6.59-3.49-9.43l1-4.58s-4.69-3.27-3.16-8.73c0,0-3.27-6.54-.22-13.31,0,0-3-4.8-.65-8.95,0,0-2.18-4.58-.44-7,0,0-2.18-3.71.22-6.55Z" style="fill:#455a64"></path><path d="M67.34,335.77c.08.72.43,3.57,1.15,9.48v.05l0,0a4.69,4.69,0,0,0-1.08,2.93,7.11,7.11,0,0,0,.9,3.48l0,.08,0,.07a3.89,3.89,0,0,0-.58,1.5,7.15,7.15,0,0,0,0,1.73,12.82,12.82,0,0,0,1,3.6l0,.08,0,.08a7.07,7.07,0,0,0-.84,4.23,11.15,11.15,0,0,0,1.51,4.53l0,.09,0,.09A16.4,16.4,0,0,0,69.66,381l0,.08,0,.07a7.48,7.48,0,0,0,.16,4.6,8.83,8.83,0,0,0,2.92,3.88l.12.1,0,.14c-.3,1.42-.63,3-1,4.58v.06l0,0a2.78,2.78,0,0,0-.36,2.26,8.81,8.81,0,0,0,.86,2.41,23.75,23.75,0,0,0,3,4.45v0l15.66,28,.2.36-.4,0a19.9,19.9,0,0,1-4.88-.4,28.44,28.44,0,0,1-10.3-4.32,29.5,29.5,0,0,1-7.81-7.53,56.5,56.5,0,0,1-8.56-18.56,53.74,53.74,0,0,1-1.7-9.41,56.26,56.26,0,0,1,.08-9,116,116,0,0,1,2.59-15.94c2.3-9.59,4.06-17.37,5.27-22.75.6-2.68,1.06-4.76,1.38-6.2l.46-2.17s0,.19-.06.56-.16.92-.3,1.63c-.27,1.43-.71,3.52-1.28,6.22-1.15,5.39-2.86,13.2-5.11,22.79a117.9,117.9,0,0,0-2.52,15.89,55.58,55.58,0,0,0,0,8.95,53.77,53.77,0,0,0,1.7,9.31,56.19,56.19,0,0,0,8.51,18.39,29.26,29.26,0,0,0,7.68,7.4A28.09,28.09,0,0,0,86,431.15a19.37,19.37,0,0,0,4.73.39l-.2.38c-5.51-9.86-10.79-19.33-15.63-28l0,0a24.2,24.2,0,0,1-3-4.56,10,10,0,0,1-.9-2.54,3.28,3.28,0,0,1,.46-2.63l0,.1,1-4.59.1.24a9.22,9.22,0,0,1-3.07-4.11,7.79,7.79,0,0,1-.16-4.86v.15a16.78,16.78,0,0,1-.2-13.49l0,.18a11.4,11.4,0,0,1-1.55-4.7,7.45,7.45,0,0,1,.91-4.43v.15a13.55,13.55,0,0,1-1.06-3.71,7.3,7.3,0,0,1,0-1.81,4.22,4.22,0,0,1,.64-1.61v.15a7.33,7.33,0,0,1-.9-3.62,4.88,4.88,0,0,1,1.16-3.06l0,.08C67.69,339.34,67.41,336.5,67.34,335.77Z" style="fill:#263238"></path><polygon points="112.09 465.02 57.63 465.02 51.39 422.57 118.34 422.57 112.09 465.02" style="fill:#F9A158"></polygon><polygon points="46.4 432.25 46.37 422.57 123.28 422.57 122.67 432.25 46.4 432.25" style="fill:#F9A158"></polygon><path d="M122.67,432.25c0,.14-17.1.26-38.19.26s-38.19-.12-38.19-.26,17.1-.26,38.19-.26S122.67,432.1,122.67,432.25Z" style="fill:#263238"></path><g style="opacity:0.30000000000000004"><path d="M55.24,432.17c6.84,3.2,18.78,4.48,29.76,4.07A149.94,149.94,0,0,0,114.5,432Z"></path></g></g></svg>
