<svg xmlns="http://www.w3.org/2000/svg" viewBox="0 0 500 500"><g id="freepik--Floor--inject-119"><polygon points="38.64 345.11 91.48 344.87 144.32 344.78 250 344.61 355.68 344.78 408.52 344.87 461.36 345.11 408.52 345.35 355.68 345.44 250 345.61 144.32 345.44 91.48 345.35 38.64 345.11" style="fill:#263238"></polygon></g><g id="freepik--Shadow--inject-119"><ellipse cx="305.6" cy="409.31" rx="143.38" ry="12.2" style="fill:#ebebeb"></ellipse></g><g id="freepik--Plants--inject-119"><path d="M85.84,248.09a64.77,64.77,0,0,0-2.08,11.78c.11.2.09.93,0,.73,0,.64-1,.53-1-.11,0-.42,0-.84,0-1.24-2.3-2.86-5.64-4.67-8.34-7.15a15.63,15.63,0,0,1-4.58-7.28c-2.24-7.72-.14-15.9-2.83-23.61-2.33-6.64-6.49-12.41-10-18.43-3.72-6.36-6.47-13.05-6.74-20.5-.22-5.71.46-13.31,4.81-17.59,4.6-4.53,10.31-1.13,13.84,2.91,10.23,11.74,15,26.58,16.88,41.74,1,8.4,2.15,16.85,1.89,25.32A67.52,67.52,0,0,1,85.84,248.09Z" style="fill:#B1C69A"></path><path d="M83.81,263a145.23,145.23,0,0,0-.29-23.78.15.15,0,0,0,0-.09c.13-6.43.64-12.83.39-19.27a114.24,114.24,0,0,0-2.83-20.66c0-.08-.14-.06-.12,0a134.37,134.37,0,0,1,2.23,20.21c.13,3.63.11,7.27-.08,10.89-.07,1.19-.18,2.38-.25,3.57h0a127.23,127.23,0,0,0-19.12-50.62c-.14-.21-.51,0-.38.23A132,132,0,0,1,79,221C74,211.86,66.61,204.36,61.1,195.61c0-.05-.11,0-.08,0,4.95,9.74,13.13,17.43,18.34,27q1.36,5.87,2.2,11.84A133.25,133.25,0,0,1,82.75,251c-3-5.6-6.11-11-8.56-16.88-.06-.16-.29-.05-.24.11,2.09,6.15,4.89,12.78,8.81,18q0,5.85-.32,11.68c-.61,10.38-2.38,20.63-3.2,31a.24.24,0,0,0,.47.05A237.51,237.51,0,0,0,83.81,263Z" style="fill:#263238"></path><path d="M72.78,182.88c0-.08-.14,0-.12.05,1.9,5.24,3,10.56,4.34,15.93a.2.2,0,0,0,.39-.06C76.84,193.35,74.89,187.9,72.78,182.88Z" style="fill:#263238"></path><path d="M120.94,204.86a80.52,80.52,0,0,1-4.36,9c-3.42,6.2-7,11.88-7.63,19.1-.28,3.23-.39,6.47-1.37,9.57a28.91,28.91,0,0,1-3.81,7.49c-3.7,5.4-8.33,10-11.76,15.64a65.66,65.66,0,0,0-7.81,18.84c-.09.36-.66.26-.57-.1l0-.08a.1.1,0,0,1,0-.08c-.54-15.48.7-31.09,5.42-45.92a157.3,157.3,0,0,1,7.5-19.1c2.53-5.38,5.69-10.55,10.13-14.57,2.88-2.6,9.13-7.52,13.23-4.91C121.86,201,121.71,202.92,120.94,204.86Z" style="fill:#B1C69A"></path><path d="M105.38,240a128.11,128.11,0,0,1-9,12.93c-1.5,2-3,3.9-4.52,5.86-.7.93-1.5,1.85-2.15,2.84.41-1.62.81-3.26,1.23-4.88,2-7.82,3.91-15.72,6.89-23.24a157,157,0,0,1,10.75-21.07c.11-.18-.18-.31-.29-.14C105,217.64,101.7,223,99,228.69a87.2,87.2,0,0,0-4,9.74,150.1,150.1,0,0,1,5.28-20.82c0-.06-.07-.11-.09-.05a71.38,71.38,0,0,0-5.48,21.67s0,0,0,0q-1,3-1.86,6.09c-2.44,8.66-4.58,17.41-6.57,26.2a93.88,93.88,0,0,1,1.49-17.22c0-.13-.17-.16-.2,0a54.47,54.47,0,0,0-1.49,18.16q-1.12,5-2.2,10c-1.52,7.13-3.39,14.4-4.28,21.64a.15.15,0,0,0,.29.05c1.06-3.9,1.7-7.95,2.57-11.91s1.77-7.93,2.69-11.88c1.34-5.76,2.75-11.51,4.19-17.25,1-2.1,2.81-4,4.2-5.74,1.52-1.93,3-3.87,4.53-5.84A85.27,85.27,0,0,0,105.51,240C105.56,239.94,105.42,239.88,105.38,240Z" style="fill:#263238"></path><path d="M106,233.34a80.69,80.69,0,0,0-8.81,14c0,.06.07.13.11.07,3-4.65,5.88-9.33,8.83-14C106.22,233.35,106.09,233.26,106,233.34Z" style="fill:#263238"></path><path d="M40.12,219.54c2,3.45,4.3,7.6,3.44,11.75-.55,2.63-2.47,4.76-2.82,7.44-.77,5.92,5.12,9.82,9.39,12.62,10.63,7,25.21,13.19,27.14,27.44.08.5,1,.38.88-.12a.29.29,0,0,0,0-.09s.06,0,.06-.08a54.78,54.78,0,0,0-.2-21.76c-1.59-7.35-4.79-13.94-8.58-20.39-6.39-10.92-13.17-22.1-22.85-30.46-2.67-2.31-8.16-6.47-10.29-1.25S37.67,215.32,40.12,219.54Z" style="fill:#B1C69A"></path><path d="M49.86,242.68c7,7.63,18.25,11.91,24.32,20.46A85.7,85.7,0,0,0,55.48,228c-.23-.26.14-.63.39-.39a69.3,69.3,0,0,1,15.28,22.13,98.58,98.58,0,0,0-6.58-16.82c-.1-.21.19-.39.31-.19A63.94,63.94,0,0,1,72,251.66C80,271,80.71,293.72,79,314.12a.23.23,0,0,1-.46,0c.46-16.08.2-32.43-3.65-48.14l-.25-1c-6.6-9.2-17.76-13.47-24.94-22.21A.09.09,0,0,1,49.86,242.68Z" style="fill:#263238"></path><path d="M48.22,236.13c3.7,3.39,7.34,6.86,11.05,10.26,0,0,0,.1-.05.07A54,54,0,0,1,48,236.35C47.88,236.19,48.07,236,48.22,236.13Z" style="fill:#263238"></path><path d="M47.64,221.42a116.24,116.24,0,0,0,11.07,15.23.07.07,0,0,1-.1.09,53.6,53.6,0,0,1-11.17-15.21A.11.11,0,0,1,47.64,221.42Z" style="fill:#263238"></path><polygon points="58.21 344.83 102.8 344.83 96.79 284.85 65.08 284.85 58.21 344.83" style="fill:#455a64"></polygon><polygon points="63.96 294.6 97.77 294.6 96.79 284.85 65.08 284.85 63.96 294.6" style="fill:#263238"></polygon><rect x="59.61" y="278.2" width="41.79" height="9.58" transform="translate(161.01 565.98) rotate(180)" style="fill:#455a64"></rect><path d="M400.82,184.6a95.57,95.57,0,0,0-2.23-15.71c-1.11-4.66-2.68-9.41-5.61-13.26-2.69-3.51-6.54-6.31-11-6.86-4.31-.52-8.36,1.4-11.58,4.11-4,3.37-7.06,7.82-9.93,12.14a149.35,149.35,0,0,0-8.57,15,.15.15,0,0,0,.26.14,92.6,92.6,0,0,1,7.66-12.56,80.11,80.11,0,0,1,8.83-10.69c3-2.89,6.72-5.59,11-5.72s8.2,2.25,10.77,5.54c2.87,3.68,4.33,8.27,5.43,12.74a95.5,95.5,0,0,1,2.21,15c.84,10.35,1.07,20.76,1.3,31.14.13,5.88.21,11.75.27,17.63,0,3,.05,5.95.07,8.93s-.13,34.15.34,37c.1.58,1,.52,1.14,0a50.42,50.42,0,0,0,.4-8.15c0-2.83.07-34,.1-36.84.05-5.49.08-11,.06-16.46C401.71,206.64,401.58,195.59,400.82,184.6Z" style="fill:#263238"></path><path d="M364.21,158.79c-1.11.45.4-12.66-4.77-14.34-7.3-2.36-24,1.92-33.32,14.34a27.81,27.81,0,0,0-4,8.36c4.61-2.23,19.84-9.28,23.66-7.12,3.48,2-18.35,8.82-25.07,13.22a50.57,50.57,0,0,0-.6,5.5C324,176,334.7,169,339.48,169c5.32,0-12.32,9.33-19.45,16A56.45,56.45,0,0,0,324.15,204c1.83-3.46,5.85-10.19,11.05-13.82,7.2-5,10.36,3.06,1.28,9.47-4.84,3.42-8.33,6.24-10.54,8.14A37.29,37.29,0,0,0,334,218.2a29.64,29.64,0,0,1,11.85-8.1c1.75-.61,4.63-1.41,8.09-2.57.61-2.27,2.31-9.06,2.46-13.44.2-5.33,6.52-2.37,3.95,7.1-.48,1.78-.92,3.25-1.34,4.48,1.85-.73,5.55-2.14,7.72-3.79.35-3.1-.17-10.24-1.44-17-1.58-8.39,4.81-9,6.19,1.58.65,4.88-.28,9.93-.59,13.22,7.22-4.21,13.21-12.76,13.21-12.76a32.06,32.06,0,0,0-5-13.22c-3.55-5.36.29-7.47,3.85-2.63,2,2.7,3.16,7.23,3.81,10.71C394.4,156.34,385,150.44,364.21,158.79Zm-34.64,27.9c-2-2.86,4.85-8.1,6.32-6.32C337.79,182.65,331.54,189.55,329.57,186.69ZM375.1,175c-2.76,2-5.41-4.62-3.62-5.76S377.45,173.24,375.1,175Z" style="fill:#B1C69A"></path><path d="M368.77,171.22c-.94-1.85-1.92-3.69-3-5.47a32.14,32.14,0,0,0-3.43-5c.3-.36.58-.73.89-1.09.12-.15-.09-.35-.22-.21-.35.4-.68.81-1,1.21a.31.31,0,0,0-.15.17q-1.92,2.31-3.64,4.74a54.66,54.66,0,0,0-6,1.74c-2,.68-4.05,1.39-6,2.23-.21.08-.11.42.1.33,2-.86,3.95-1.7,6-2.39s3.88-1.15,5.82-1.7c-.63.89-1.25,1.8-1.85,2.71a71.37,71.37,0,0,0-10.66,4.35c-3.6,1.71-7.07,3.7-10.52,5.7-.19.11,0,.41.19.29a117.53,117.53,0,0,1,10.46-5.41c3.34-1.56,6.79-2.85,10.16-4.34-8.48,13.23-13.56,28.5-20.36,42.63-.09.2.23.37.31.17,2.08-5,4.47-9.79,6.73-14.66,2-4.38,4-8.78,6-13.16.59-1.28,1.2-2.56,1.82-3.83-.37,7.07-.22,14.25-1.38,21.24a.18.18,0,1,0,.35,0c.49-7.55,1.82-15,1.77-22.57,0,0,0-.06,0-.1q2.15-4.33,4.62-8.5c2.81,6.61,5.76,13.32,7.07,20.42,0,.22.4.12.34-.1-1.91-7.12-3.68-14.25-7.11-20.82a80,80,0,0,1,6-8.61c.94,1.76,2.15,3.42,3.22,5.1s2.08,3.29,3,5a71.78,71.78,0,0,1,5.31,11.21c.07.21.42.1.33-.1C372.26,178.66,370.62,174.88,368.77,171.22Z" style="fill:#263238"></path><path d="M424.36,189.83c-4.58-4.59-9.9-10.62-17-10.6-6.83,0-11.86,5.51-14.74,11.18-3,5.93-4.11,12.65-5,19.18a232.54,232.54,0,0,0-1.81,23.58c-.12,4.38-.11,8.77,0,13.15s.22,37.27,1,41.62c.13.71,1.27.74,1.31,0,.2-3.68.06-35.76,0-39.45s0-7.27.17-10.9c.27-7.35.8-14.68,1.66-22,.76-6.38,1.35-12.94,3.26-19.1,1.73-5.56,4.95-11.91,10.59-14.35,7.68-3.34,15.19,2.75,20.22,7.89C424.27,190.15,424.5,190,424.36,189.83Z" style="fill:#263238"></path><path d="M451.59,205.26c-8.28-.85-6-5.35,1.54-3.37a34.26,34.26,0,0,1,11.23,5.39c.06-6.82-.79-13.75-3.33-19.61-6.91-1.73-13.2,1.31-19.65,4.34s-10.77-4.82-3.18-8.59a24.07,24.07,0,0,1,20.48-.37,33.59,33.59,0,0,0-1.85-2.9,34.81,34.81,0,0,0-6.31-7c-5.65.46-8.78,3.94-10.45,5-2.38,1.56-6.13-.28-3.75-3.66,1.85-2.65,6.47-3.86,10.29-4.18-6.81-4-13.6-4-17.45-2.27-6.67,3-4.8,20.62-4.8,20.62s-17.49-9.36-23.22-2a21.57,21.57,0,0,0-3.64,8.61c6.19-2.28,13.8-2.83,14.51.88.76,3.91-9.71,2.76-15.15,3.39-.65,7.84,1.18,17,7.42,23.48,5.32-10.22,17.13-18,18.82-12.35s-11,7.07-16.21,14.7a34.1,34.1,0,0,0,7.28,4.06c2.84-4.25,7.57-10.11,9.84-8.33s-3.68,5.92-7.53,9.26A110.13,110.13,0,0,0,433.32,235c1.4-5.89,4.1-11.4,6.7-10.89s-2.44,6.67-4.62,11.32a167.24,167.24,0,0,0,23.16,2.92c.48-.12,3.66-9.43,5.09-21a33.53,33.53,0,0,0-12-2.41c-5.85-.28-6.41-6.94,2.35-6a22.42,22.42,0,0,1,10.12,4.19c.09-1.22.16-2.47.21-3.74h0A33,33,0,0,0,451.59,205.26Zm-2.18-9.12c.89-2,6.24-1.28,5.72,1.16S448.67,197.83,449.41,196.14Zm-43.8,16.54c-.32-1.66,3.26-3.18,3.76-1.85S406.06,214.9,405.61,212.68Zm25.18,13.65c-2.84-1.48,1.23-8,3.84-6.93C436.76,220.26,433.64,227.82,430.79,226.33Z" style="fill:#B1C69A"></path><path d="M457.54,237.06c-3.93-6.57-7.82-13.18-11.94-19.63q-2.89-4.5-6-8.84c.32-.06.63-.15.94-.22q.78-.17,1.56-.3c1.21-.21,2.43-.38,3.64-.51s2.3-.17,3.46-.19a18.14,18.14,0,0,1,3.68.19c.15,0,.17-.2,0-.19-1.22,0-2.48-.11-3.71-.13s-2.39,0-3.58.09-2.24.17-3.35.34c-.61.1-1.22.2-1.83.32-.36.08-.74.13-1.1.24q-3.19-4.39-6.62-8.61a78.83,78.83,0,0,1,21.51-6.86c.13,0,.08-.22-.05-.2a73,73,0,0,0-21.82,6.62q-1.89-2.31-3.79-4.6c-1.43-1.71-3-3.38-4.23-5.2a.1.1,0,1,0-.16.12,75.69,75.69,0,0,1,5,6.1h0a76,76,0,0,0-8,6.42c-2.61,2.32-5.17,4.72-7.64,7.18a.1.1,0,1,0,.13.14c2.45-2.43,5-4.76,7.65-7s5.45-4.24,8.12-6.42c0,0,0,0,0,0l1.83,2.41.93,1.2s0,.06.06.09c1,1.33,2,2.66,3.05,4a32.5,32.5,0,0,0-3,5.48c-.88,1.86-1.65,3.77-2.36,5.7a83,83,0,0,0-3.27,12.31c0,.13.16.19.19.06a71.5,71.5,0,0,1,3.58-12.07c.76-2,1.63-4,2.53-5.92.81-1.78,1.8-3.49,2.57-5.29.88,1.18,1.75,2.35,2.62,3.54.25.34.49.7.74,1,0,.08,0,.18.08.18h0c2.7,3.77,5.27,7.63,7.77,11.53a3.43,3.43,0,0,0-.34.86c-.16.47-.31.95-.45,1.43a29.46,29.46,0,0,0-.69,2.92c-.17.93-.3,1.86-.39,2.8a25.73,25.73,0,0,1-.23,3.18.1.1,0,1,0,.19,0,9.94,9.94,0,0,1,.22-3c.14-1,.33-2,.56-3s.46-1.8.73-2.69c.13-.45.27-.89.43-1.33.08-.23.19-.48.27-.72q1.75,2.75,3.47,5.52c2.26,3.68,4.5,7.37,6.76,11C457.35,237.41,457.65,237.25,457.54,237.06Z" style="fill:#263238"></path><path d="M399.23,290.74c-.07-2.76-.72-33.9-.81-36.66a121.09,121.09,0,0,0-3-24.24,23.2,23.2,0,0,0-6.49-11.94,10.58,10.58,0,0,0-6.37-3,11,11,0,0,0-6.76,2.09,23.5,23.5,0,0,0-5.69,6,58.52,58.52,0,0,0-4.44,7.2c-.05.1.1.16.16.07a36.67,36.67,0,0,1,9.59-10.75,11.24,11.24,0,0,1,6.05-2.52,8.94,8.94,0,0,1,6.3,2c3.22,2.8,4.91,6.81,6,10.85,1.32,4.8,2.94,17.19,3.28,24,.15,2.92.63,34.25,1.24,37.12A.48.48,0,0,0,399.23,290.74Z" style="fill:#263238"></path><path d="M382.08,220.86c-6.34-.12-13.06,4.61-13.06,4.61s3.57-12.35-6.35-11.95c-5.9.24-13.26,6.42-14.74,16.07,2.28-1.21,7.07-3.53,10.86-3.6,5.14-.09,5.49,3.93-1.6,4.54a44.86,44.86,0,0,0-9.5,1.57,26.42,26.42,0,0,0,1.19,8.91c4-2.4,10.71-4.95,10.91-1.64.15,2.46-6.83,2.66-10.27,3.52a41.22,41.22,0,0,0,5.92,10.53,94.64,94.64,0,0,0,14.29-3.22,27.37,27.37,0,0,0-.45-5.17c-.84-4.4,2.4-4.48,2.82-.25a15.36,15.36,0,0,1-.3,4.72,42.08,42.08,0,0,0,9.17-4.32,28,28,0,0,0-2-9.76c-1.26-3.44,1.24-5.41,3.35-1.46,1.36,2.55.81,7.34.36,10a15.19,15.19,0,0,0,3-3.06C392.44,231.49,388.41,221,382.08,220.86Zm-27.35,2.28c.23-1.78,4.65-1.44,4.43-.06S354.46,225.14,354.73,223.14Zm-4.94,14.5c.43-1.14,2.34-1,2.25-.08S349.5,238.39,349.79,237.64Zm26.29,6.22c-2.57.1-1.72-5.24-.22-5.45C377.12,238.23,378.05,243.78,376.08,243.86Z" style="fill:#B1C69A"></path><path d="M373.79,244.34c-.25-.66-.47-1.34-.68-2,.19.69.37,1.38.49,2.07A.1.1,0,1,0,373.79,244.34Z" style="fill:#263238"></path><path d="M371.17,235.75c-.47-1.37-1-2.72-1.52-4.07-.28-.71-.58-1.43-.89-2.13a8.79,8.79,0,0,0-.89-1.79,14.2,14.2,0,0,0,.81-1.73c0-.06-.06-.1-.09-.06a21,21,0,0,0-1.94,3c-.27.47-.53.94-.81,1.41a15.48,15.48,0,0,0-1.66.26c-.6.11-1.19.23-1.78.37l-1.77.41c-.58.14-1.16.33-1.76.42-.13,0-.08.24.05.19a11.84,11.84,0,0,1,1.86-.49c.57-.12,1.14-.22,1.72-.3s1.15-.16,1.73-.22l1.31-.1c-.24.41-.48.83-.71,1.25,0,.06-.07.13-.11.2a5.73,5.73,0,0,0-1.42.16c-.51.1-1,.19-1.53.31q-1.56.33-3.09.75c-2.15.6-4.27,1.29-6.38,2-.12,0-.05.22.07.18a62.12,62.12,0,0,1,6.41-1.78c1-.23,2-.46,3.05-.67l1.53-.33a9.56,9.56,0,0,0,1.18-.26c-1.09,2-2.12,4.06-3.06,6.15-2.06,4.56-3.79,9.24-5.55,13.91-.05.12.13.2.17.08a127,127,0,0,1,5.91-13.6c.4-.81.81-1.61,1.21-2.41,0,.16.07.32.1.49.1.55.2,1.1.29,1.66.19,1.1.38,2.21.54,3.32a38.1,38.1,0,0,1,.8,6.89c0,.14.22.14.2,0-.18-1.1-.18-2.25-.25-3.36s-.16-2.32-.29-3.47-.28-2.23-.46-3.34c-.09-.55-.19-1.1-.29-1.65a3.43,3.43,0,0,0-.31-1.2c.58-1.17,1.15-2.34,1.74-3.5s1.11-2.18,1.68-3.26c.24-.46.5-.92.75-1.38a14.85,14.85,0,0,0,.66,1.67c.25.62.51,1.25.77,1.87.56,1.39,1.09,2.78,1.62,4.18.75,2,1.58,4,2.2,6.08C372.36,239.82,371.85,237.75,371.17,235.75Z" style="fill:#263238"></path><path d="M373.11,242.32c0-.16-.09-.32-.14-.48C373,242,373.06,242.16,373.11,242.32Z" style="fill:#263238"></path><polygon points="422.45 281.42 421.75 296.18 419.96 338.58 380.7 338.58 378.9 296.18 378.2 281.42 422.45 281.42" style="fill:#455a64"></polygon><polygon points="422.45 281.42 421.75 296.18 378.9 296.18 378.2 281.42 422.45 281.42" style="fill:#263238"></polygon><rect x="375.41" y="275.45" width="49.83" height="11.94" style="fill:#455a64"></rect><rect x="383.88" y="338.58" width="6.89" height="6.25" style="fill:#455a64"></rect><rect x="383.88" y="338.58" width="6.89" height="3.13" style="fill:#263238"></rect><rect x="409.89" y="338.58" width="6.89" height="6.25" style="fill:#455a64"></rect><rect x="409.89" y="338.58" width="6.89" height="3.13" style="fill:#263238"></rect><path d="M445.93,286c-2.8-2.75-6.42-6.07-10.7-4.88-4,1.11-5.58,5.51-6.3,9.18-.93,4.72-1.65,9.49-2.4,14.25s-1.47,9.61-2.16,14.43q-.58,4.07-1.16,8.15l-.57,4.07c-.18,1.34-.4,2.67-.48,4,0,.43.65.49.75.08.52-2.26.73-4.62,1.06-6.92s.67-4.63,1-6.94c.67-4.59,1.37-9.19,2.06-13.78s1.41-9.18,2.14-13.77c.62-3.89.92-8.72,4.37-11.29A6.68,6.68,0,0,1,440,282a19.39,19.39,0,0,1,5.85,4.1C445.91,286.17,446,286.09,445.93,286Z" style="fill:#263238"></path><path d="M442.1,283.23s-5.73-2.06-8.56,2.12.56,14.82,26.64,20.81a73.44,73.44,0,0,0-6.28-23.57C448.31,270.39,438.35,275,442.1,283.23Z" style="fill:#B1C69A"></path><path d="M458.68,304.42a23.1,23.1,0,0,0-1.31-2.11l-1.32-2c-.34-.5-.68-1-1-1.49a2.35,2.35,0,0,0,.05-.37l.09-.68.21-1.47c.07-.48.15-1,.25-1.45a7.17,7.17,0,0,1,.34-1.54c0-.07-.11-.11-.12,0a5.2,5.2,0,0,1-.23.86c-.06.22-.12.44-.17.66-.13.49-.25,1-.36,1.49s-.19.92-.27,1.38c0,.23-.07.45-.1.67-.47-.66-.94-1.32-1.43-2-1.39-1.83-2.85-3.58-4.37-5.29,0,0,0,0,0,0a47.34,47.34,0,0,1,.67-8.15c0-.07-.09-.11-.11,0a27.77,27.77,0,0,0-1,7.8c-.54-.61-1.09-1.21-1.65-1.81-1.27-1.37-2.56-2.71-3.89-4-.05-.05-.13,0-.08.08,2.2,2.37,4.28,4.83,6.32,7.34a44.54,44.54,0,0,0-4.77.18c-1.77.13-3.53.35-5.28.6a.06.06,0,1,0,0,.11,49.11,49.11,0,0,1,5.27-.47c1.7-.07,3.4,0,5.1,0,1.09,1.36,2.18,2.73,3.25,4.12h-1.44c-.79,0-1.59.07-2.37.13a37.36,37.36,0,0,0-4.82.72.06.06,0,0,0,0,.12c1.6-.18,3.21-.33,4.82-.39.77,0,1.54,0,2.31,0h1.2a1.59,1.59,0,0,0,.66-.06l2.1,2.73c.55.73,1.1,1.47,1.63,2.21s1.05,1.58,1.66,2.29C458.63,304.54,458.71,304.48,458.68,304.42Z" style="fill:#263238"></path><path d="M444.59,289.16a17.21,17.21,0,0,0-2.78-.14c-.94,0-1.87,0-2.8.06a.06.06,0,1,0,0,.12c.94-.07,1.89-.09,2.83-.07s1.83.1,2.74.07A0,0,0,1,0,444.59,289.16Z" style="fill:#263238"></path><path d="M452.78,291.26c.11-.89.22-1.79.41-2.66,0-.09-.1-.11-.11,0-.14.88-.31,1.75-.44,2.63l-.18,1.32a5.77,5.77,0,0,0-.1,1.24c0,.08.13.09.15,0a8.4,8.4,0,0,0,.13-1.24C452.68,292.11,452.73,291.68,452.78,291.26Z" style="fill:#263238"></path><path d="M451.07,281.39c-.23.87-.46,1.74-.62,2.63-.08.44-.15.89-.21,1.34a5.34,5.34,0,0,0-.09,1.32,0,0,0,0,0,.07,0,7.53,7.53,0,0,0,.21-1.26c.06-.43.12-.86.2-1.3.15-.91.32-1.81.55-2.7C451.19,281.36,451.08,281.32,451.07,281.39Z" style="fill:#263238"></path><path d="M417.1,334.29c-.14-1.64-.3-3.28-.47-4.92q-.53-4.87-1.18-9.73c-.43-3.23-.85-6.47-1.37-9.68a24.37,24.37,0,0,0-1-4.4,4.15,4.15,0,0,0-2.44-2.74c-3.07-1.06-5.14,2.12-6.38,4.37a.06.06,0,0,0,.11.06c.74-1.07,2.79-4.06,5.12-3.92,1.56.09,2.82,1.2,3.57,5.1,1.87,9.74,3.56,29.49,3.76,30.78.1.68.59.65.59-.08C417.43,337.51,417.24,335.9,417.1,334.29Z" style="fill:#263238"></path><path d="M405.1,306s2.68-9.47-3.25-4.74c-9.87,7.89-10.22,25-10.22,25s17.55-10.19,19.73-16.91C414.61,299.35,405.1,306,405.1,306Z" style="fill:#B1C69A"></path><path d="M408.42,310.63c-1.37.28-2.77.46-4.16.66l-2,.28-1.34.16c1.31-1.8,2.63-3.6,3.88-5.43.05-.08-.06-.15-.12-.09a43,43,0,0,0-2.93,3.38l-.78-2.2a25.47,25.47,0,0,1-.83-2.56.06.06,0,0,0-.11,0c.24.87.41,1.76.64,2.63s.48,1.67.77,2.49c-.64.83-1.25,1.68-1.85,2.55-.31-.86-.68-1.69-.94-2.55a.06.06,0,0,0-.12,0c.32,1,.49,2,.78,2.93-.4.58-.8,1.17-1.19,1.77-.71,1.09-1.37,2.21-2,3.33a.25.25,0,0,0-.15.26c-1.11,1.92-2.16,3.87-3.21,5.83a.06.06,0,0,0,.11.06c1-1.94,2.2-3.83,3.4-5.68h0a3,3,0,0,1,.57-.11l.61-.13q.68-.15,1.35-.33c.89-.22,1.77-.43,2.67-.58.08,0,0-.13,0-.11-1.06.2-2.13.32-3.2.44-.51.06-1,.13-1.52.21h-.07q.94-1.44,1.92-2.85c.64-.93,1.29-1.84,1.95-2.75.61-.09,1.21-.25,1.81-.36l2-.4c1.36-.27,2.71-.57,4.08-.8C408.53,310.73,408.5,310.61,408.42,310.63Z" style="fill:#263238"></path><path d="M397.88,311.56l-.24-.75c-.16-.52-.29-1.05-.4-1.59a.06.06,0,0,0-.11,0c.11.54.24,1.07.36,1.6a9.54,9.54,0,0,0,.46,1.58c.05.12.24.07.2-.06S398,311.83,397.88,311.56Z" style="fill:#263238"></path><path d="M410.22,308.44c-.8.12-1.61.17-2.41.24s-1.61.19-2.42.31c0,0,0,.07,0,.07.8-.06,1.6-.12,2.41-.23s1.6-.22,2.41-.28C410.3,308.55,410.29,308.42,410.22,308.44Z" style="fill:#263238"></path><path d="M430,322.3c-.31-7-.75-13.94-1.45-20.88-.35-3.46-.74-6.92-1.23-10.36a72.52,72.52,0,0,0-2-10A19.25,19.25,0,0,0,422,274a7.62,7.62,0,0,0-6.75-3c-3.05.38-5.5,2.3-7.63,4.39-2.38,2.35-4.57,4.91-6.78,7.41-.56.64-1.11,1.27-1.66,1.92-.05.05,0,.14.09.08,2.16-2.48,4.4-4.89,6.75-7.2,2.17-2.13,4.4-4.46,7.41-5.34a7.67,7.67,0,0,1,4.3-.1,6.83,6.83,0,0,1,2.94,1.87A15.47,15.47,0,0,1,424,280.5c1.87,6.4,2.54,13.13,3.24,19.74s1.19,13.47,1.52,20.23.61,13.58,1.26,20.35c.08.84.19,1.67.3,2.5.07.56.94.56.89,0C430.65,336.31,430.33,329.31,430,322.3Z" style="fill:#263238"></path><path d="M407.24,276.17s4-7.37-.73-9.74-20.45,15.22-25.05,40.92c0,0,25.43-11.25,34.07-22.46S414.38,271.2,407.24,276.17Z" style="fill:#B1C69A"></path><path d="M411,282.16c-2.86,0-5.71-.21-8.57-.19.53-.62,1.07-1.23,1.61-1.84a27.34,27.34,0,0,0,2.23-2.6.07.07,0,0,0-.1-.1A21.07,21.07,0,0,0,404,279.6c-.72.76-1.43,1.52-2.14,2.29-1.09,1.18-2.16,2.39-3.23,3.59,0-.12,0-.23,0-.35,0-.5,0-1,0-1.5,0-1,0-1.94,0-2.91,0-2,0-3.94.15-5.9,0-.07-.12-.07-.12,0-.14,2-.34,3.94-.44,5.91-.05,1-.07,1.94-.08,2.91,0,.5,0,1,0,1.5,0,.28,0,.57,0,.85-.17.19-.34.37-.5.56-2.29,2.6-4.45,5.3-6.57,8,0-.15,0-.3,0-.45s-.07-.61-.1-.91c-.08-.65-.17-1.31-.27-2s-.18-1.23-.29-1.84-.28-1.38-.33-2.07c0-.09-.14-.07-.12,0a18.23,18.23,0,0,1,.24,2.1c.06.63.12,1.25.17,1.88l.18,1.89.09.91.06.45a1,1,0,0,0,.12.36c-.36.48-.73,1-1.09,1.42-1.44,1.91-2.85,3.84-4.27,5.77,0,.06,0,.14.08.08,1.35-1.75,2.73-3.47,4.12-5.17,1.05.05,2.12,0,3.16-.05s2.21,0,3.31,0a.06.06,0,0,0,0-.12l-3.31,0c-1,0-2-.05-3,0,1.23-1.5,2.48-3,3.72-4.46l1.37-1.62a6.82,6.82,0,0,0,1.28,0h1.5l2.82,0c1.94,0,3.88-.1,5.82-.1a.06.06,0,0,0,0-.12c-1.94,0-3.89-.11-5.83-.16l-2.82-.06-1.51,0c-.28,0-.58,0-.86,0q1.59-1.9,3.2-3.8a.13.13,0,0,0,.06-.07c1-1.23,2.08-2.46,3.14-3.68l.43-.5c3,.1,5.93-.1,8.89,0C411.05,282.28,411.05,282.16,411,282.16Z" style="fill:#263238"></path><path d="M409.51,287.22h-.69c-.07,0-.06.11,0,.11h.7C409.59,287.33,409.59,287.22,409.51,287.22Z" style="fill:#263238"></path><path d="M408,287.22l-2.74-.05-1.38-.05a5.39,5.39,0,0,0-1.27,0,0,0,0,0,0,0,.08,4.55,4.55,0,0,0,1.28.09l1.37,0c.92,0,1.83,0,2.75,0C408.05,287.34,408.05,287.23,408,287.22Z" style="fill:#263238"></path><path d="M400,295.81a37.89,37.89,0,0,0-5.63-.51s0,0,0,0c1.87.18,3.74.28,5.6.58C400,295.93,400.05,295.82,400,295.81Z" style="fill:#263238"></path><path d="M392.33,287.62c0-.16,0-.32-.06-.49,0-.36-.1-.73-.16-1.1-.11-.7-.23-1.39-.36-2.09,0-.06-.13,0-.12,0,.09.72.17,1.44.23,2.16,0,.35.06.71.09,1.06a2.85,2.85,0,0,0,.15,1,.13.13,0,0,0,.24,0A1.35,1.35,0,0,0,392.33,287.62Z" style="fill:#263238"></path><path d="M429.76,266.7c-.91-1.69-2.07-3.93-4.34-3.79-1.87.12-2.72,2-3.12,3.62-1.24,4.89-1.33,10.05-1.57,15.07-.51,10.6-1,21.21-1,31.83q0,4.41,0,8.83c0,3,0,6,.21,9a.22.22,0,0,0,.44,0c0-2.57-.08-5.14-.09-7.7s0-5,.05-7.52q.12-7.6.41-15.21c.18-5,.41-10.08.62-15.12.11-2.52.21-5,.33-7.55s.21-4.88.49-7.31c.16-1.36.36-2.72.64-4.06a5.69,5.69,0,0,1,1.18-2.72,2.56,2.56,0,0,1,3.31-.24,7,7,0,0,1,2.35,2.94C429.7,266.83,429.8,266.77,429.76,266.7Z" style="fill:#263238"></path><path d="M429.15,265.89s-1.87-6.59,2.26-3.29c6.88,5.49,7.12,17.43,7.12,17.43s-12.22-7.1-13.74-11.78C422.52,261.28,429.15,265.89,429.15,265.89Z" style="fill:#B1C69A"></path><path d="M436,275.14c-.11-.19-.23-.36-.35-.55a3.49,3.49,0,0,0,0-.56v-.85l.06-1.67c0-.08-.11-.07-.11,0,0,.55-.05,1.09-.07,1.64l0,.82c0,.11,0,.23,0,.35-.48-.74-1-1.48-1.48-2.2l-.46-.63a12.85,12.85,0,0,1,0-2.15c0-.77,0-1.53,0-2.3,0-.08-.11-.07-.11,0,0,.8-.07,1.6-.11,2.39a14,14,0,0,0,0,1.71c-1.18-1.6-2.44-3.15-3.7-4.69-.05-.05-.14,0-.1.07.79,1,1.54,2,2.28,3.05-1.44-.34-2.9-.53-4.36-.74-.08,0-.11.1,0,.11,1.55.23,3.06.62,4.59,1h0q.89,1.25,1.74,2.49c.24.34.46.68.69,1h-.06l-.48-.06-1-.1-2.12-.13c-.07,0-.07.12,0,.12.7,0,1.39.07,2.08.14l1.09.13.48.06.14,0,1.18,1.73c.69,1,1.3,2.12,2,3.1,0,.06.12,0,.09-.06A31,31,0,0,0,436,275.14Z" style="fill:#263238"></path><path d="M432.91,267.68c0-.25,0-.51,0-.77a12.38,12.38,0,0,1,.06-1.61.06.06,0,1,0-.11,0c0,.54-.06,1.07-.09,1.61,0,.26,0,.53,0,.8v.37a1,1,0,0,0,0,.38.05.05,0,0,0,.1,0,1.08,1.08,0,0,0,0-.36C432.92,268,432.91,267.82,432.91,267.68Z" style="fill:#263238"></path><path d="M431.4,270.42a12.65,12.65,0,0,0-1.38-.14c-.5,0-1-.09-1.51-.16a.06.06,0,1,0,0,.12c1,.06,1.93.23,2.89.27C431.45,270.51,431.46,270.42,431.4,270.42Z" style="fill:#263238"></path><path d="M435.24,270.46c0,.05,0,.19,0,.25v.21c0,.16,0,.31,0,.46v.47a1.07,1.07,0,0,0,0,.4s0,0,.05,0a.41.41,0,0,0,0-.19v-.22c0-.15,0-.3,0-.46v-.67a.75.75,0,0,1,0-.26C435.42,270.35,435.16,270.35,435.24,270.46Z" style="fill:#263238"></path><path d="M430.05,301.91c-2.57-1.93-4.88-4.71-8.34-4.84-2.85-.11-4.85,2-6,4.43a26,26,0,0,0-1.4,3.94c-.51,1.8-1,3.62-1.45,5.44q-1.35,5.37-2.29,10.84c-.35,2-.67,4.07-.93,6.11a52.62,52.62,0,0,0-.6,6.26.33.33,0,0,0,.64.07c.35-1.71.49-3.47.75-5.2s.51-3.47.81-5.2q.87-5.2,2-10.34c.74-3.23,1.46-6.52,2.51-9.67.75-2.25,1.95-4.89,4.38-5.7,3.71-1.24,7.08,1.9,9.8,3.94C430,302,430.11,302,430.05,301.91Z" style="fill:#263238"></path><path d="M427.39,300.06s-2.37-6.77,1.05-8.09c5.14-2,18.58,13.15,15.95,36.35a132.2,132.2,0,0,1-18.05-12.16c-7.67-6.44-9.64-14.84-6.26-17S427.39,300.06,427.39,300.06Z" style="fill:#B1C69A"></path><path d="M442.84,323.35a17.52,17.52,0,0,0-1.25-2.34c-.44-.8-.88-1.59-1.34-2.37-.89-1.53-1.78-3.06-2.69-4.57-.15-.25-.31-.49-.45-.74,0-.09,0-.18.05-.27l.15-.67c.12-.5.21-1,.3-1.52.19-1,.36-2,.63-3,0-.07-.1-.1-.12,0-.21,1-.52,2-.82,2.94-.14.48-.3.95-.42,1.44-.05.16-.09.33-.13.49-1.11-1.81-2.23-3.61-3.44-5.35a2.55,2.55,0,0,0,.12-.74l.12-1c.09-.76.18-1.53.29-2.29a45,45,0,0,1,.81-4.44c0-.07-.1-.09-.11,0-.37,1.46-.78,2.92-1.05,4.4-.14.73-.27,1.46-.37,2.19l-.12,1.1c0,.11,0,.22,0,.33-.38-.52-.75-1.05-1.14-1.56q-1.79-2.34-3.66-4.6c0-.06-.14,0-.09.06a82.42,82.42,0,0,1,5.84,8.53c.34.55.67,1.1,1,1.64l-.33,0-1.31-.12-2.63-.23c-1.75-.14-3.5-.24-5.25-.43-.07,0-.09.11,0,.11,1.77.21,3.53.49,5.29.74l2.61.35a10,10,0,0,0,2,.21c.69,1.11,1.38,2.23,2.06,3.35a2.36,2.36,0,0,0-.46,0h-2.5l-3.38,0c-.08,0-.07.11,0,.11,1.14,0,2.28.08,3.42.14l1.62.09.81.06a1.54,1.54,0,0,0,.71,0c.59.95,1.18,1.9,1.76,2.85s1.08,1.75,1.63,2.62a21.44,21.44,0,0,0,1.77,2.65S442.87,323.42,442.84,323.35Z" style="fill:#263238"></path><path d="M437.89,304.6a16.53,16.53,0,0,1-.46,2.2c-.19.75-.41,1.5-.66,2.23a.07.07,0,1,0,.14.05c.23-.73.44-1.47.62-2.21s.3-1.51.48-2.25C438,304.54,437.9,304.52,437.89,304.6Z" style="fill:#263238"></path><path d="M430.26,309.13a.82.82,0,0,0-.57-.21l-1-.14-1.82-.22c-1.27-.15-2.54-.27-3.8-.43-.08,0-.1.11,0,.12,1.19.14,2.38.32,3.57.48l1.76.23.84.09a3.07,3.07,0,0,1,1,.17A.06.06,0,0,0,430.26,309.13Z" style="fill:#263238"></path><path d="M437.87,319.33c-.59-.05-1.2-.07-1.8-.09l-.9,0h-.44a3.44,3.44,0,0,1-.56,0c-.09,0-.1.13,0,.11a3.13,3.13,0,0,1,.53,0l.47,0,.91.05c.6,0,1.2.07,1.8.08C437.94,319.46,438,319.34,437.87,319.33Z" style="fill:#263238"></path><path d="M441.53,316.73c.07-.34.14-.68.2-1,.12-.67.25-1.33.37-2a.06.06,0,1,0-.12,0c-.14.65-.29,1.3-.44,1.95l-.21,1-.1.45a1.31,1.31,0,0,0-.05.48c0,.06.09.1.13,0A2.28,2.28,0,0,0,441.53,316.73Z" style="fill:#263238"></path><polygon points="406.37 331.49 407.09 339.72 409.55 367.48 431.29 367.48 434.36 339.72 435.27 331.49 406.37 331.49" style="fill:#37474f"></polygon><polygon points="406.37 331.49 407.09 339.72 434.36 339.72 435.27 331.49 406.37 331.49" style="fill:#263238"></polygon><rect x="404.21" y="329.25" width="33.21" height="6.67" transform="translate(841.64 665.17) rotate(180)" style="fill:#37474f"></rect><path d="M59.85,410.93a54.28,54.28,0,0,1,14.44-1.65c4.33.22,14.09,2.11,17.06,2.65s6.92-.08,6.69,1.19-14.23,5.53-20.3,4.65S59.85,410.93,59.85,410.93Z" style="fill:#37474f"></path><path d="M79.92,383.33c0-2-.07-4.06-.1-6.1,0-6.75-.12-13.5-.28-20.26q-.2-8-.49-16.08s0-.05-.06-.07l0-4.39s-.06-.06-.12-.05-.11,0-.11.05c0,1.47,0,2.94,0,4.4,0,0,0,0,0,.07-.36,9.54-.67,19.08-.75,28.62,0,1.94,0,3.88,0,5.82q-.14,9.35-.1,18.67c0,1,0,2,0,3,0,5.7.07,34.18.08,39.87,0,.31.44.46.91.48s1.12-.15,1.12-.5c0-6.28.06-35.35.06-41.63C79.94,391.25,80,387.29,79.92,383.33Z" style="fill:#263238"></path><path d="M69.86,346.61S58.28,338,47.29,343.82,34.57,372,34.57,372s16.14,2.31,26.31-7.37C70.68,355.28,69.86,346.61,69.86,346.61Z" style="fill:#B1C69A"></path><path d="M73,347.14a13.9,13.9,0,0,0-6.71-.88,11.19,11.19,0,0,0-1.42-.14L63.26,346l-3.38-.24c-2.28-.17-4.58-.31-6.86-.54-.08,0-.09.14,0,.15,2.25.28,4.5.61,6.77.83,1.16.12,2.32.24,3.49.32l.85.09-1,.25A27.17,27.17,0,0,0,57.84,349c-.91.16-1.82.41-2.71.63-1.44.33-2.86.7-4.29,1.08-2.81.73-5.59,1.56-8.39,2.37a.07.07,0,0,0,0,.14c2.79-.68,5.59-1.31,8.39-2,1.35-.32,2.71-.64,4.07-1L56,350a33.82,33.82,0,0,0-8.23,7.16,44.67,44.67,0,0,0-5.72,9c0,.08.07.16.12.08a43.76,43.76,0,0,1,6.93-9.09c0,.15-.11.31-.15.46-.22.68-.43,1.37-.65,2-.43,1.36-.86,2.73-1.27,4.1,0,.09.11.12.14,0,.49-1.32,1-2.65,1.42-4l.69-2c.12-.33.23-.67.35-1a2.83,2.83,0,0,1,.11-.31,40,40,0,0,1,4.11-3.5A30.74,30.74,0,0,1,60,349.55l-.12.59c-.12.53-.23,1.06-.34,1.59-.23,1.09-.44,2.19-.66,3.29-.43,2.24-.7,4.51-1.12,6.76a.07.07,0,1,0,.14,0c.52-2.25,1.19-4.47,1.69-6.73.25-1.13.51-2.26.74-3.39.11-.53.22-1.06.32-1.59.06-.3.13-.59.17-.89.21-.08.41-.18.63-.26,3-1.12,6.39-1.94,9.63-1.32a9.51,9.51,0,0,1,7,5.59c.1.25.5.09.44-.16A8.93,8.93,0,0,0,73,347.14Z" style="fill:#263238"></path><path d="M55.29,356.68c-.33,1.47-.66,2.94-1,4.41a32.93,32.93,0,0,0-.81,4.28c0,.06.08.06.1,0a33.35,33.35,0,0,0,1-4.32c.28-1.44.57-2.89.85-4.34C55.45,356.63,55.31,356.59,55.29,356.68Z" style="fill:#263238"></path><path d="M44.08,360.41c-1.47.75-2.9,1.6-4.44,2.21a.08.08,0,1,0,.06.14,48.62,48.62,0,0,0,4.42-2.29S44.12,360.39,44.08,360.41Z" style="fill:#263238"></path><path d="M79,333.6s13.32-4.86,15.6-16.06-4.44-22.81-4.44-22.81-12.89,7.64-15.6,16.15S79,333.6,79,333.6Z" style="fill:#B1C69A"></path><path d="M78.54,349.07c-.17-1.59-.21-3.2-.29-4.8s-.1-3.06-.09-4.59a88.3,88.3,0,0,1,.53-9.34c.22-2,.53-3.94.88-5.89-.08-.24-.14-.49-.2-.73-.12-.43-.24-.86-.35-1.29-.23-.87-.45-1.75-.67-2.63-.49-1.92-.9-3.86-1.41-5.78,0-.09.12-.15.14-.06.52,1.89,1.12,3.74,1.65,5.62.26.93.53,1.85.78,2.77.09.34.18.67.26,1a104.71,104.71,0,0,1,2.76-11.14l.48-1.47c0-.11,0-.23,0-.35,0-.29,0-.58,0-.87l-.12-1.79c-.08-1.17-.21-2.34-.39-3.5a.08.08,0,1,1,.15,0c.2,1.18.39,2.36.54,3.55.08.57.13,1.14.17,1.72,0,.1,0,.2,0,.29.86-2.53,1.83-5,2.82-7.52,0-.09.16,0,.13.06A102,102,0,0,0,82,317.6a8.81,8.81,0,0,1,.85-.66c.92-.63,1.86-1.22,2.81-1.79,2-1.19,4-2.39,5.94-3.64.08-.05.17.06.09.11-1.83,1.28-3.62,2.61-5.42,3.94-.84.63-1.71,1.23-2.57,1.84a18.65,18.65,0,0,0-2,1.64c-.08.4-.17.79-.24,1.18-.35,1.8-.64,3.61-.91,5.43l1.21-.84c.92-.63,1.84-1.25,2.78-1.86,1.83-1.2,3.66-2.41,5.42-3.71.07-.06.16.06.09.11-1.78,1.34-3.51,2.75-5.24,4.14-.84.66-1.7,1.32-2.56,1.95l-1.31.94a2.82,2.82,0,0,1-.54.36c-.54,3.9-.94,7.83-1.17,11.76-.11,1.72-.17,3.45-.22,5.18s0,3.54,0,5.32C79.1,349.35,78.57,349.44,78.54,349.07Z" style="fill:#263238"></path><path d="M78.71,313.45q-.43-2-.84-4.05c0-.09.12-.11.14,0,.29,1.32.59,2.64.91,3.95s.68,2.63.86,4a0,0,0,0,1,0,0A28.51,28.51,0,0,1,78.71,313.45Z" style="fill:#263238"></path><path d="M86.12,309.76c.47-.56,1-1.08,1.51-1.6.28-.27.55-.54.82-.82l.41-.42a2,2,0,0,0,.44-.48c.07-.11.2,0,.11.09A2.87,2.87,0,0,0,89,307l-.39.44c-.26.27-.51.55-.76.83a20,20,0,0,1-1.59,1.6C86.16,309.93,86.06,309.83,86.12,309.76Z" style="fill:#263238"></path><path d="M85.25,371.62s2.29,15.87,14.23,21.43,26.49,0,26.49,0S120.25,358.7,85.25,371.62Z" style="fill:#B1C69A"></path><path d="M117.75,382.72c-1.11-.13-2.2-.31-3.29-.51l-1.61-.31-.83-.16c-.32-.3-.64-.61-1-.9a48,48,0,0,0-7.3-5.29,40.2,40.2,0,0,0-4.38-2.25h.23l3.93.17c2.62.12,5.24.18,7.86.35.09,0,.09-.14,0-.15-2.63-.18-5.24-.46-7.87-.69l-3.81-.34-2-.17-.5-.06c-.69-.25-1.37-.49-2.06-.7a18.55,18.55,0,0,0-10.12-.56c-3,.77-6,2.73-6.78,5.9,0,.11.15.19.19.08,1.12-2.65,4.06-4,6.71-4.53a16.11,16.11,0,0,1,5.41-.11,12.58,12.58,0,0,0,.6,2.4c.33,1.12.66,2.24,1,3.35.67,2.23,1.42,4.44,2.08,6.68,0,.09.16,0,.14-.05-.56-2.22-1-4.47-1.56-6.71-.26-1.09-.54-2.19-.81-3.28a20.5,20.5,0,0,0-.6-2.26c1,.19,2.08.44,3.1.73a46.8,46.8,0,0,1,5.41,2c.17,1.14.42,2.26.68,3.37.33,1.41.69,2.79,1.14,4.16a.07.07,0,1,0,.13,0c0-.08,0-.17,0-.26h0c-.27-1.3-.56-2.59-.83-3.89-.22-1-.43-2.09-.65-3.14,1.48.67,2.94,1.4,4.35,2.21,0,.32.11.65.15.95.09.54.19,1.08.29,1.62.22,1.23.47,2.45.76,3.66a56.94,56.94,0,0,0,2,6.9.09.09,0,0,0,0,.1.27.27,0,0,1,.07.08c0,.06.14,0,.12-.08-.55-2.35-1.18-4.68-1.7-7.05-.26-1.18-.52-2.35-.75-3.54-.12-.59-.23-1.18-.34-1.77,0-.17-.06-.35-.08-.54a52.91,52.91,0,0,1,4.65,3.1,50.93,50.93,0,0,1,7.11,6.5c.09.1.26,0,.18-.14a43.06,43.06,0,0,0-2.85-3.47c-.6-.65-1.22-1.27-1.86-1.88l.2,0c.56.09,1.12.18,1.68.25,1.11.15,2.21.26,3.32.38C117.8,382.87,117.84,382.73,117.75,382.72Z" style="fill:#263238"></path><path d="M109.36,388.1h0c0-.14,0-.27-.06-.41s-.12-.34-.15-.52h0c-.25-1.07-.45-2.13-.65-3.21,0-.07-.13,0-.13,0a13.14,13.14,0,0,0,.91,4.15,0,0,0,0,0,.09,0Z" style="fill:#263238"></path><path d="M99.36,387.85a.06.06,0,0,0-.07-.07c-.33-1.4-.66-2.81-1-4.23l-.45-2.23c-.07-.4-.15-.8-.22-1.21a3.32,3.32,0,0,0-.26-1,.07.07,0,0,0-.13,0,7,7,0,0,0,.3,2.13c.15.78.3,1.55.47,2.32.34,1.57.74,3.13,1.18,4.67,0,.09.16.07.16,0Z" style="fill:#263238"></path><path d="M116.66,378.15c-2.18-.3-4.36-.62-6.55-.88-.09,0-.13.13,0,.14,2.17.32,4.36.59,6.54.88C116.71,378.3,116.75,378.16,116.66,378.15Z" style="fill:#263238"></path><path d="M59.85,410.93c-1.36.42-2.61,5.73-1.73,8.49s-4.21,11.35-5.25,14.88-.28,4.52,0,5.18-2.55,1.87-2.18,2.53,3.38,1,4.74.77S64,446,71.12,446.86c11.8,1.43,24.51-2.14,26.93-3,.79-.3,3.63.62,4.72.18s-.07-2.4-.18-3.06.76-2.68.91-7S96,420.41,96.36,419s1.78-5.12,1.68-5.86-12.25,3.54-20.3,3S62,410.27,59.85,410.93Z" style="fill:#455a64"></path></g><g id="freepik--Shovel--inject-119"><path d="M125.9,310.7a2,2,0,0,1-2.05-1.51L76.25,108.48a3,3,0,0,1,1.89-3.33,2.19,2.19,0,0,1,3.1,1.31l47.6,200.7a3,3,0,0,1-1.89,3.33A2.69,2.69,0,0,1,125.9,310.7Z" style="fill:#B1C69A"></path><path d="M125.9,310.7a2,2,0,0,1-2.05-1.51L76.25,108.48a3,3,0,0,1,1.89-3.33,2.19,2.19,0,0,1,3.1,1.31l47.6,200.7a3,3,0,0,1-1.89,3.33A2.69,2.69,0,0,1,125.9,310.7Z" style="opacity:0.2"></path><path d="M99.61,305.08c-.24-.57,45.65,0,47.35,0s6.59,35.2,7.16,39.25-11.79,15.14-17,15.14c-10.51,0-25.82-6-30-11.09S100.07,306.15,99.61,305.08Z" style="fill:#c7c7c7"></path><path d="M128.78,325.61a12.57,12.57,0,0,1-4-4.85c-2.42-5.15-3.57-12.25-4.4-14.49-.09-.24-.55-.08-.49.19,1,4.25,1.24,8.14,2.23,12.37a10.46,10.46,0,0,0,6.14,7.46C128.68,326.49,129.18,325.87,128.78,325.61Z" style="fill:#a6a6a6"></path><path d="M132.16,316.29a78.49,78.49,0,0,0-2.73-9.92c-.05-.13-.26,0-.25.1.55,6.13,3.48,12.18,2.59,18.59,0,.23.32.3.41.05C133.35,321.91,132.86,319.25,132.16,316.29Z" style="fill:#a6a6a6"></path><path d="M117.72,304.84c.85,0-3.79-14.79-3.83-15.75s11.56-1.49,12.57-.53,3.83,16.37,4.26,16.37Z" style="fill:#c7c7c7"></path><path d="M166.65,362.75c-11.74,1.05-23.61.41-35.37.53s-23.58.35-35.37-.42c-.22,0-.22-.61,0-.61l1.73-.11c1-2.08,2.29-3.35,3.8-3.75.48-.12,1.67.42,2,.05s.22-.7.46-1.54c1.52-5.26,4.51-5,7.34-3.86-1.54-6.83,1.64-10.51,5.47-12,4.41-1.72,8.54-.28,10.22,6.87,1.88-2.28,4.26-2.8,6.38-1,1.13.94,1.34,2.07,2.58,1.59a5.37,5.37,0,0,1,3.43-.53,6.34,6.34,0,0,1,3.21,2.31c.69.88,1.3,2.77,2,3.2.86.53,1.6-.41,2.51.85a6.87,6.87,0,0,1,1,4c2.57-1.44,4.66-.53,7.11,1.39,1.19.95,2.21-.19,3.47.23a4.62,4.62,0,0,1,2.29,2s0,0,0,0c1.9.09,3.79.2,5.69.37C166.81,362.35,166.81,362.74,166.65,362.75Z" style="fill:#B1C69A"></path><path d="M166.65,362.75c-11.74,1.05-23.61.41-35.37.53s-23.58.35-35.37-.42c-.22,0-.22-.61,0-.61l1.73-.11c1-2.08,2.29-3.35,3.8-3.75.48-.12,1.67.42,2,.05s.22-.7.46-1.54c1.52-5.26,4.51-5,7.34-3.86-1.54-6.83,1.64-10.51,5.47-12,4.41-1.72,8.54-.28,10.22,6.87,1.88-2.28,4.26-2.8,6.38-1,1.13.94,1.34,2.07,2.58,1.59a5.37,5.37,0,0,1,3.43-.53,6.34,6.34,0,0,1,3.21,2.31c.69.88,1.3,2.77,2,3.2.86.53,1.6-.41,2.51.85a6.87,6.87,0,0,1,1,4c2.57-1.44,4.66-.53,7.11,1.39,1.19.95,2.21-.19,3.47.23a4.62,4.62,0,0,1,2.29,2s0,0,0,0c1.9.09,3.79.2,5.69.37C166.81,362.35,166.81,362.74,166.65,362.75Z" style="opacity:0.30000000000000004"></path></g></svg>