<svg xmlns="http://www.w3.org/2000/svg" viewBox="0 0 750 500"><g id="freepik--background-complete--inject-388"><path d="M143.13,53.56l-17.72-11L122,48a4.94,4.94,0,0,1-4.66,2.3,29.39,29.39,0,0,0-3.12-.1,5,5,0,0,1-4.5-2.59l-3-5.62L88.36,51.85l3,5.62a5,5,0,0,1-.33,5.18A29.2,29.2,0,0,0,89.4,65.3a5,5,0,0,1-4.49,2.62l-6.39-.21-.64,20.85,6.4.19a5,5,0,0,1,4.32,2.91c.21.46.44.91.69,1.37s.49.9.76,1.33a5,5,0,0,1,0,5.18L86.7,105l17.72,11,3.37-5.44a5,5,0,0,1,4.67-2.3,29.29,29.29,0,0,0,3.11.11,4.93,4.93,0,0,1,4.49,2.58l3,5.63,18.38-9.86-3-5.63a5,5,0,0,1,.34-5.17c.59-.85,1.13-1.74,1.63-2.64a5,5,0,0,1,4.49-2.62l6.4.2L152,70l-6.4-.2a4.94,4.94,0,0,1-4.3-2.89c-.22-.47-.45-.93-.7-1.39s-.49-.89-.76-1.33a5,5,0,0,1,0-5.2ZM130,71.21a17.08,17.08,0,1,1-23.13-7A17.09,17.09,0,0,1,130,71.21Z" style="fill:#ebebeb"></path><path d="M531.84,375.37l-17.72-11-3.36,5.43a5,5,0,0,1-4.66,2.3A29.56,29.56,0,0,0,503,372a5,5,0,0,1-4.5-2.59l-3-5.62-18.38,9.85,3,5.63a5,5,0,0,1-.34,5.18c-.59.86-1.14,1.74-1.64,2.65a5,5,0,0,1-4.5,2.61l-6.38-.2-.65,20.84,6.41.2a4.93,4.93,0,0,1,4.31,2.9c.22.46.45.92.69,1.37s.5.9.76,1.34a4.93,4.93,0,0,1,0,5.18l-3.38,5.46,17.72,11,3.37-5.43a5,5,0,0,1,4.67-2.3,29.1,29.1,0,0,0,3.1.1,5,5,0,0,1,4.5,2.59l3,5.63,18.38-9.86-3-5.63a5,5,0,0,1,.33-5.17,29,29,0,0,0,1.63-2.65,5,5,0,0,1,4.5-2.61l6.4.19.64-20.84-6.39-.2a4.93,4.93,0,0,1-4.3-2.9c-.22-.46-.46-.92-.7-1.38s-.5-.9-.76-1.33a5,5,0,0,1,0-5.21ZM518.68,393a17.08,17.08,0,1,1-23.12-7A17.06,17.06,0,0,1,518.68,393Z" style="fill:#ebebeb"></path><path d="M89.63,142.86l-4.83-8.37L82.24,136a2.34,2.34,0,0,1-2.42-.08,12,12,0,0,0-1.25-.73,2.29,2.29,0,0,1-1.27-2v-3H67.62v3a2.27,2.27,0,0,1-1.27,2,12,12,0,0,0-1.25.73,2.32,2.32,0,0,1-2.41.08l-2.57-1.48-4.83,8.37,2.57,1.49A2.29,2.29,0,0,1,59,146.48c0,.24,0,.48,0,.71s0,.48,0,.72A2.3,2.3,0,0,1,57.87,150l-2.58,1.49,4.83,8.38,2.57-1.48a2.32,2.32,0,0,1,2.42.08,11.85,11.85,0,0,0,1.24.73,2.27,2.27,0,0,1,1.27,2v3H77.3v-3a2.29,2.29,0,0,1,1.27-2,12,12,0,0,0,1.25-.73,2.3,2.3,0,0,1,2.41-.08l2.57,1.48,4.83-8.38L87.06,150a2.32,2.32,0,0,1-1.12-2.13c0-.24,0-.48,0-.72s0-.47,0-.71a2.29,2.29,0,0,1,1.13-2.13Zm-9.24,4.33a7.93,7.93,0,1,1-7.92-7.92A7.92,7.92,0,0,1,80.39,147.19Z" style="fill:#ebebeb"></path><path d="M694.71,328.4,689.88,320l-2.57,1.48a2.32,2.32,0,0,1-2.41-.08,12,12,0,0,0-1.25-.73,2.29,2.29,0,0,1-1.27-2v-3H672.7v3a2.29,2.29,0,0,1-1.27,2,12,12,0,0,0-1.25.73,2.34,2.34,0,0,1-2.42.08L665.2,320l-4.83,8.38,2.57,1.48a2.29,2.29,0,0,1,1.13,2.13c0,.24,0,.48,0,.72s0,.47,0,.71a2.3,2.3,0,0,1-1.12,2.12l-2.58,1.49,4.83,8.38,2.57-1.48a2.32,2.32,0,0,1,2.41.08,12,12,0,0,0,1.25.73,2.29,2.29,0,0,1,1.27,2v3h9.68v-3a2.27,2.27,0,0,1,1.27-2,11.85,11.85,0,0,0,1.24-.73,2.34,2.34,0,0,1,2.42-.08l2.57,1.48,4.83-8.38-2.57-1.48a2.29,2.29,0,0,1-1.12-2.13c0-.23,0-.47,0-.71s0-.48,0-.72a2.29,2.29,0,0,1,1.12-2.13Zm-9.25,4.33a7.93,7.93,0,1,1-7.92-7.93A7.92,7.92,0,0,1,685.46,332.73Z" style="fill:#ebebeb"></path><path d="M116.47,391.63a30.56,30.56,0,1,1-30.23-35v30.56Z" style="fill:#dbdbdb"></path><path d="M123,380.93a31.6,31.6,0,0,1-.33,4.48l-30.23-4.48V350.36A30.55,30.55,0,0,1,123,380.93Z" style="fill:#ebebeb"></path><rect x="101.75" y="403.57" width="32.5" height="1" style="fill:#c7c7c7"></rect><path d="M136.53,406.85a2.78,2.78,0,1,1,2.78-2.78A2.78,2.78,0,0,1,136.53,406.85Zm0-4.55a1.78,1.78,0,1,0,1.78,1.77A1.78,1.78,0,0,0,136.53,402.3Z" style="fill:#c7c7c7"></path><rect x="144.79" y="402.37" width="25.25" height="1.14" style="fill:#c7c7c7"></rect><rect x="144.79" y="404.64" width="14.29" height="1.14" style="fill:#c7c7c7"></rect><rect x="587.05" y="57.02" width="9.95" height="70.81" style="fill:#ebebeb"></rect><rect x="604.15" y="74.16" width="9.95" height="53.67" style="fill:#ebebeb"></rect><rect x="621.25" y="100.99" width="9.95" height="26.83" style="fill:#ebebeb"></rect><rect x="638.36" y="85.66" width="9.95" height="42.16" style="fill:#ebebeb"></rect><rect x="655.46" y="69.57" width="9.95" height="58.26" style="fill:#ebebeb"></rect><rect x="672.56" y="60.1" width="9.95" height="67.72" style="fill:#ebebeb"></rect><path d="M581.28,48,581.4,68l.05,20,.08,39.9-.25-.25q13.71,0,27.43,0l27.44.05,27.43.06,27.44.14-27.44.15-27.43.06-27.44.05q-13.71,0-27.43,0H581v-.26l.08-39.9,0-20Z" style="fill:#ebebeb"></path><path d="M579.08,52a8,8,0,0,1,2.2-.28,7.84,7.84,0,0,1,2.19.28,7.5,7.5,0,0,1-2.19.29A7.61,7.61,0,0,1,579.08,52Z" style="fill:#ebebeb"></path><path d="M579.08,58.08a8,8,0,0,1,2.2-.28,7.84,7.84,0,0,1,2.19.28,7.84,7.84,0,0,1-2.19.28A8,8,0,0,1,579.08,58.08Z" style="fill:#ebebeb"></path><path d="M579.08,64.15a7.61,7.61,0,0,1,2.2-.29,7.5,7.5,0,0,1,2.19.29,7.84,7.84,0,0,1-2.19.28A8,8,0,0,1,579.08,64.15Z" style="fill:#ebebeb"></path><path d="M579.08,70.21a8,8,0,0,1,2.2-.28,7.84,7.84,0,0,1,2.19.28,7.84,7.84,0,0,1-2.19.28A8,8,0,0,1,579.08,70.21Z" style="fill:#ebebeb"></path><path d="M579.08,76.28a7.61,7.61,0,0,1,2.2-.29,7.5,7.5,0,0,1,2.19.29,7.84,7.84,0,0,1-2.19.28A8,8,0,0,1,579.08,76.28Z" style="fill:#ebebeb"></path><path d="M579.08,82.34a8,8,0,0,1,2.2-.28,7.84,7.84,0,0,1,2.19.28,7.16,7.16,0,0,1-2.19.28A7.6,7.6,0,0,1,579.08,82.34Z" style="fill:#ebebeb"></path><path d="M579.08,88.41a8,8,0,0,1,2.2-.28,7.49,7.49,0,0,1,2.19.28,7.84,7.84,0,0,1-2.19.28A8,8,0,0,1,579.08,88.41Z" style="fill:#ebebeb"></path><path d="M579.08,94.47a8,8,0,0,1,2.2-.28,7.84,7.84,0,0,1,2.19.28,7.5,7.5,0,0,1-2.19.29A7.61,7.61,0,0,1,579.08,94.47Z" style="fill:#ebebeb"></path><path d="M579.08,100.54a8,8,0,0,1,2.2-.28,7.84,7.84,0,0,1,2.19.28,7.84,7.84,0,0,1-2.19.28A8,8,0,0,1,579.08,100.54Z" style="fill:#ebebeb"></path><path d="M579.08,106.61a7.61,7.61,0,0,1,2.2-.29,7.5,7.5,0,0,1,2.19.29,7.84,7.84,0,0,1-2.19.28A8,8,0,0,1,579.08,106.61Z" style="fill:#ebebeb"></path><path d="M579.08,112.67a8,8,0,0,1,2.2-.28,7.84,7.84,0,0,1,2.19.28,7.49,7.49,0,0,1-2.19.28A8,8,0,0,1,579.08,112.67Z" style="fill:#ebebeb"></path><path d="M579.08,118.74a7.6,7.6,0,0,1,2.2-.28,7.16,7.16,0,0,1,2.19.28,7.84,7.84,0,0,1-2.19.28A8,8,0,0,1,579.08,118.74Z" style="fill:#ebebeb"></path></g><g id="freepik--Plant--inject-388"><path d="M115.86,362.19a74.93,74.93,0,0,0-2,13.63c.13.22.13,1.06,0,.83,0,.75-1.14.65-1.17-.09,0-.48,0-1,0-1.42-2.75-3.21-6.66-5.18-9.85-7.94A18,18,0,0,1,97.34,359c-2.85-8.81-.71-18.3-4.08-27.07-2.91-7.56-7.9-14.06-12.17-20.86-4.5-7.19-7.89-14.79-8.47-23.35-.45-6.56.07-15.33,4.92-20.4,5.14-5.38,11.83-1.67,16,2.86,12.17,13.15,18.13,30.06,20.86,47.44,1.51,9.62,3.06,19.3,3.06,29.06A77.75,77.75,0,0,1,115.86,362.19Z" style="fill:#F9A158"></path><path d="M114,379.36A166.53,166.53,0,0,0,112.89,352s0-.06,0-.1c-.08-7.41.29-14.79-.22-22.19a132.08,132.08,0,0,0-4-23.68.07.07,0,0,0-.14,0,154.73,154.73,0,0,1,3.27,23.18q.42,6.25.28,12.54c0,1.36-.11,2.73-.16,4.1h0a146.59,146.59,0,0,0-23.77-57.57c-.16-.24-.58,0-.42.27A152.16,152.16,0,0,1,107,331.22c-6-10.31-14.78-18.68-21.43-28.56,0-.05-.12,0-.09.06,6,11,15.71,19.61,22,30.48,1.17,4.47,2.16,9,2.94,13.55a151.54,151.54,0,0,1,1.93,18.88c-3.64-6.34-7.4-12.39-10.43-19.12-.08-.18-.34-.05-.27.13,2.61,7,6.07,14.53,10.77,20.43.16,4.48.16,9,0,13.45-.34,12-2,23.82-2.61,35.76a.28.28,0,0,0,.55,0A275.94,275.94,0,0,0,114,379.36Z" style="fill:#263238"></path><path d="M98.57,287.61c0-.08-.17,0-.13.06,2.36,6,3.78,12.05,5.54,18.19a.23.23,0,0,0,.45-.09C103.6,299.51,101.17,293.32,98.57,287.61Z" style="fill:#263238"></path><path d="M154.74,311.23A91.63,91.63,0,0,1,150,321.69c-3.71,7.25-7.61,13.91-8.1,22.25-.22,3.72-.23,7.45-1.25,11.05a32.83,32.83,0,0,1-4.13,8.76c-4.07,6.33-9.23,11.84-13,18.39a75.57,75.57,0,0,0-8.33,21.95c-.09.42-.75.33-.67-.09a.38.38,0,0,0,0-.1.16.16,0,0,1,0-.08c-1.16-17.8-.28-35.8,4.64-53a182.27,182.27,0,0,1,8-22.24c2.72-6.28,6.17-12.34,11.14-17.11,3.23-3.09,10.25-9,15.06-6.12C155.67,306.7,155.57,309,154.74,311.23Z" style="fill:#F9A158"></path><path d="M138.06,352.16a147.08,147.08,0,0,1-9.91,15.19c-1.65,2.3-3.34,4.59-5,6.9-.78,1.09-1.66,2.18-2.37,3.34.41-1.88.81-3.77,1.23-5.66,2-9.07,4-18.22,7.13-27,3.09-8.56,7.3-16.64,11.64-24.62.11-.21-.23-.35-.34-.15-3.58,6.31-7.21,12.61-10.18,19.23A100.53,100.53,0,0,0,126,350.76a174,174,0,0,1,5.35-24.14c0-.07-.08-.12-.1-.05a81.9,81.9,0,0,0-5.55,25.11s0,0,0,0q-1.05,3.51-1.93,7.07c-2.51,10-4.67,20.2-6.65,30.38a108.37,108.37,0,0,1,1.12-19.87c0-.15-.2-.18-.23,0A62.72,62.72,0,0,0,117,390.21q-1.12,5.81-2.18,11.61c-1.5,8.27-3.4,16.69-4.17,25.06a.17.17,0,0,0,.33.05c1.08-4.53,1.68-9.22,2.54-13.8s1.76-9.18,2.69-13.77q2-10,4.22-20c1-2.46,3.1-4.67,4.63-6.75,1.69-2.28,3.38-4.56,5-6.88a99.85,99.85,0,0,0,8.17-13.53C138.27,352.12,138.11,352.06,138.06,352.16Z" style="fill:#263238"></path><path d="M138.59,344.51a92.56,92.56,0,0,0-9.65,16.41.08.08,0,0,0,.13.07c3.25-5.44,6.44-10.93,9.68-16.38C138.8,344.52,138.65,344.43,138.59,344.51Z" style="fill:#263238"></path><path d="M62.27,330.93c2.43,3.9,5.21,8.6,4.36,13.4-.54,3-2.68,5.57-3,8.66-.69,6.83,6.23,11.12,11.23,14.19,12.48,7.66,29.47,14.31,32.19,30.63.1.58,1.1.4,1-.16a.23.23,0,0,0,0-.11s.06-.05.06-.1a63,63,0,0,0-1-25c-2.09-8.39-6-15.87-10.58-23.16-7.74-12.34-15.92-25-27.35-34.25-3.16-2.57-9.61-7.16-11.89-1.08C55.11,319.83,59.29,326.17,62.27,330.93Z" style="fill:#F9A158"></path><path d="M74.27,357.22c8.37,8.53,21.42,13.07,28.7,22.69-4.6-15-11.85-28.3-22.73-39.75-.28-.3.13-.74.43-.46A79.63,79.63,0,0,1,99,364.62a114.37,114.37,0,0,0-8.16-19.13.21.21,0,0,1,.36-.22A74,74,0,0,1,100,366.78c9.87,22,11.51,48.09,10.3,71.62,0,.34-.53.36-.53,0,0-18.52-.9-37.33-5.88-55.26-.1-.38-.22-.74-.33-1.12-7.91-10.35-20.9-14.87-29.46-24.68C74.05,357.27,74.18,357.12,74.27,357.22Z" style="fill:#263238"></path><path d="M72.16,349.73c4.38,3.78,8.69,7.65,13.07,11.42,0,0,0,.12-.06.09A62.09,62.09,0,0,1,71.91,350,.18.18,0,0,1,72.16,349.73Z" style="fill:#263238"></path><path d="M71,332.83A134,134,0,0,0,84.24,350a.07.07,0,0,1-.1.11A62,62,0,0,1,70.75,333,.13.13,0,0,1,71,332.83Z" style="fill:#263238"></path><polygon points="129.16 412 91.85 412 96.88 470.62 123.42 470.62 129.16 412" style="fill:#455a64"></polygon></g><g id="freepik--Floor--inject-388"><path d="M51.93,470.62c207-.61,439.16-.61,646.14,0-207,.62-439.16.62-646.14,0Z" style="fill:#263238"></path></g><g id="freepik--kanban-method--inject-388"><rect x="123.05" y="62.13" width="503.9" height="337.13" rx="12.89" style="fill:#263238"></rect><rect x="158.32" y="76.36" width="433.67" height="308.29" style="fill:#fff"></rect><rect x="140.9" y="194.02" width="5.24" height="73.37" rx="1.25" style="fill:#37474f"></rect><path d="M618.51,230.7a9.49,9.49,0,1,1-9.49-9.49A9.49,9.49,0,0,1,618.51,230.7Z" style="fill:#37474f"></path><rect x="158.32" y="76.36" width="433.67" height="308.29" style="fill:#fff"></rect><rect x="158.32" y="76.35" width="433.67" height="10.59" style="fill:#455a64"></rect><path d="M166.68,81.65a2.17,2.17,0,1,1-2.17-2.17A2.17,2.17,0,0,1,166.68,81.65Z" style="fill:#c7c7c7"></path><path d="M175.54,81.65a2.17,2.17,0,1,1-2.17-2.17A2.17,2.17,0,0,1,175.54,81.65Z" style="fill:#fff"></path><path d="M184.41,81.65a2.18,2.18,0,1,1-2.18-2.17A2.18,2.18,0,0,1,184.41,81.65Z" style="fill:#F9A158"></path><rect x="158.32" y="86.95" width="144.56" height="297.7" style="fill:#dbdbdb"></rect><rect x="447.43" y="86.95" width="144.56" height="297.7" style="fill:#dbdbdb"></rect><rect x="459.59" y="119.21" width="120.25" height="57.23" style="fill:#fff"></rect><rect x="459.59" y="119.21" width="120.25" height="6.33" transform="translate(1039.42 244.75) rotate(180)" style="fill:#455a64"></rect><circle cx="477.32" cy="145.58" r="5.97" style="fill:#263238"></circle><rect x="494.97" y="139.61" width="50.42" height="2.06" style="fill:#263238"></rect><rect x="494.97" y="146.99" width="36.42" height="1.73" style="fill:#263238"></rect><rect x="534.88" y="146.99" width="26.82" height="1.73" style="fill:#263238"></rect><rect x="494.97" y="151.48" width="25.21" height="1.73" style="fill:#263238"></rect><rect x="523.37" y="151.48" width="25.21" height="1.73" style="fill:#263238"></rect><rect x="494.97" y="155.96" width="45.19" height="1.73" style="fill:#263238"></rect><rect x="543.72" y="155.96" width="17.97" height="1.73" style="fill:#263238"></rect><rect x="494.97" y="160.44" width="36.42" height="1.73" style="fill:#263238"></rect><rect x="315.03" y="185.2" width="120.25" height="120.25" transform="translate(750.31 490.64) rotate(180)" style="fill:#dbdbdb"></rect><circle cx="335.95" cy="210.67" r="5.97" style="fill:#fff"></circle><rect x="353.6" y="204.71" width="50.42" height="2.06" style="fill:#fff"></rect><rect x="353.6" y="212.09" width="36.42" height="1.73" style="fill:#fff"></rect><rect x="393.51" y="212.09" width="26.82" height="1.73" style="fill:#fff"></rect><rect x="353.6" y="216.57" width="25.21" height="1.73" style="fill:#fff"></rect><rect x="382" y="216.57" width="25.21" height="1.73" style="fill:#fff"></rect><rect x="353.6" y="221.06" width="45.19" height="1.73" style="fill:#fff"></rect><rect x="402.35" y="221.06" width="17.97" height="1.73" style="fill:#fff"></rect><rect x="353.6" y="225.54" width="36.42" height="1.73" style="fill:#fff"></rect><rect x="315.03" y="185.2" width="120.25" height="6.33" transform="translate(750.31 376.72) rotate(180)" style="fill:#455a64"></rect><path d="M376.31,258a22.16,22.16,0,0,1-13.48,20.38L354.18,258Z" style="fill:#F9A158"></path><path d="M351.35,256.46,360,276.84s0,0-.05,0c-.67.27-1.35.53-2,.74a22.28,22.28,0,0,1-6.57,1,22.56,22.56,0,0,1-6.57-1A22.14,22.14,0,0,1,330.23,263a22.33,22.33,0,0,1,0-13.15,22.07,22.07,0,0,1,14.55-14.54,22.08,22.08,0,0,1,13.14,0,22.1,22.1,0,0,1,15.56,21.11Z" style="fill:#F9A158"></path><path d="M351.35,256.46,360,276.84s0,0-.05,0c-.67.27-1.35.53-2,.74a22.28,22.28,0,0,1-6.57,1,22.12,22.12,0,1,1,21.13-28.71,22.28,22.28,0,0,1,1,6.57Z" style="fill:#fff"></path><path d="M351.35,256.47l-14.41,16.77a22.12,22.12,0,1,1,36.53-16.77Z" style="fill:#455a64"></path><polygon points="387.75 285.78 371.04 285.78 350.34 265.08 350.65 264.78 371.22 285.35 387.75 285.35 387.75 285.78" style="fill:#263238"></polygon><rect x="349.33" y="263.77" width="2.33" height="2.33" style="fill:#263238"></rect><polygon points="387.75 269.77 368.92 269.77 359.98 260.83 360.28 260.53 369.09 269.34 387.75 269.34 387.75 269.77" style="fill:#263238"></polygon><rect x="358.97" y="259.52" width="2.33" height="2.33" style="fill:#263238"></rect><rect x="359.27" y="253.93" width="28.48" height="0.43" style="fill:#263238"></rect><rect x="357.8" y="252.98" width="2.33" height="2.33" style="fill:#263238"></rect><rect x="394.23" y="251.8" width="20.69" height="1.92" style="fill:#fff"></rect><rect x="394.23" y="255.82" width="26.84" height="1.92" style="fill:#fff"></rect><rect x="394.23" y="259.84" width="14.35" height="1.92" style="fill:#fff"></rect><rect x="385.42" y="251.8" width="4.67" height="4.67" style="fill:#455a64"></rect><rect x="394.23" y="267.35" width="23.2" height="1.92" style="fill:#fff"></rect><rect x="394.23" y="271.37" width="19.35" height="1.92" style="fill:#fff"></rect><rect x="394.23" y="275.39" width="26.84" height="1.92" style="fill:#fff"></rect><rect x="385.42" y="267.35" width="4.67" height="4.67" style="fill:#F9A158"></rect><rect x="394.23" y="282.9" width="23.2" height="1.92" style="fill:#fff"></rect><rect x="394.23" y="286.92" width="19.35" height="1.92" style="fill:#fff"></rect><rect x="394.23" y="290.94" width="26.84" height="1.92" style="fill:#fff"></rect><rect x="385.42" y="282.9" width="4.67" height="4.67" style="fill:#fff"></rect><rect x="170.47" y="119.21" width="120.25" height="120.25" style="fill:#fff"></rect><rect x="170.47" y="119.21" width="120.25" height="6.33" transform="translate(461.19 244.75) rotate(180)" style="fill:#455a64"></rect><circle cx="188.2" cy="142.55" r="5.97" style="fill:#F9A158"></circle><rect x="205.86" y="136.59" width="50.42" height="2.06" style="fill:#F9A158"></rect><rect x="205.86" y="143.97" width="36.42" height="1.73" style="fill:#F9A158"></rect><rect x="245.76" y="143.97" width="26.82" height="1.73" style="fill:#F9A158"></rect><rect x="205.86" y="148.45" width="25.21" height="1.73" style="fill:#F9A158"></rect><rect x="234.26" y="148.45" width="25.21" height="1.73" style="fill:#F9A158"></rect><rect x="205.86" y="152.94" width="45.19" height="1.73" style="fill:#F9A158"></rect><rect x="254.61" y="152.94" width="17.97" height="1.73" style="fill:#F9A158"></rect><rect x="205.86" y="157.42" width="36.42" height="1.73" style="fill:#F9A158"></rect><circle cx="188.2" cy="177.31" r="5.97" style="fill:#455a64"></circle><rect x="205.86" y="171.34" width="50.42" height="2.06" style="fill:#455a64"></rect><rect x="205.86" y="178.72" width="36.42" height="1.73" style="fill:#455a64"></rect><rect x="245.76" y="178.72" width="26.82" height="1.73" style="fill:#455a64"></rect><rect x="205.86" y="183.21" width="25.21" height="1.73" style="fill:#455a64"></rect><rect x="234.26" y="183.21" width="25.21" height="1.73" style="fill:#455a64"></rect><rect x="205.86" y="187.69" width="45.19" height="1.73" style="fill:#455a64"></rect><rect x="254.61" y="187.69" width="17.97" height="1.73" style="fill:#455a64"></rect><rect x="205.86" y="192.17" width="36.42" height="1.73" style="fill:#455a64"></rect><circle cx="188.2" cy="212.06" r="5.97" style="fill:#dbdbdb"></circle><rect x="205.86" y="206.09" width="50.42" height="2.06" style="fill:#dbdbdb"></rect><rect x="205.86" y="213.48" width="36.42" height="1.73" style="fill:#dbdbdb"></rect><rect x="245.76" y="213.48" width="26.82" height="1.73" style="fill:#dbdbdb"></rect><rect x="205.86" y="217.96" width="25.21" height="1.73" style="fill:#dbdbdb"></rect><rect x="234.26" y="217.96" width="25.21" height="1.73" style="fill:#dbdbdb"></rect><rect x="205.86" y="222.45" width="45.19" height="1.73" style="fill:#dbdbdb"></rect><rect x="254.61" y="222.45" width="17.97" height="1.73" style="fill:#dbdbdb"></rect><rect x="205.86" y="226.93" width="36.42" height="1.73" style="fill:#dbdbdb"></rect><rect x="170.47" y="248.22" width="120.25" height="57.23" style="fill:#F9A158"></rect><rect x="170.47" y="248.22" width="120.25" height="6.33" transform="translate(461.19 502.77) rotate(180)" style="fill:#455a64"></rect><path d="M184.29,262l46.31-.08c15.43,0,30.87,0,46.3.08-15.43.06-30.87.05-46.3.07Z" style="fill:#fff"></path><path d="M184.29,264.28l46.31-.08c15.43,0,30.87,0,46.3.08-15.43.06-30.87.05-46.3.07Z" style="fill:#fff"></path><path d="M184.29,266.6l46.31-.08c15.43,0,30.87,0,46.3.08-15.43.06-30.87,0-46.3.07Z" style="fill:#fff"></path><path d="M184.29,268.92l46.31-.08c15.43,0,30.87,0,46.3.08-15.43.06-30.87.05-46.3.07Z" style="fill:#fff"></path><path d="M184.29,271.24l46.31-.08c15.43,0,30.87,0,46.3.08-15.43.06-30.87,0-46.3.07Z" style="fill:#fff"></path><path d="M184.29,273.55l46.31-.07c15.43,0,30.87,0,46.3.07-15.43.07-30.87.05-46.3.08Z" style="fill:#fff"></path><path d="M184.29,275.87l46.31-.07c15.43,0,30.87,0,46.3.07-15.43.07-30.87.05-46.3.08Z" style="fill:#fff"></path><path d="M184.29,278.19l46.31-.07c15.43,0,30.87,0,46.3.07-15.43.07-30.87.05-46.3.08Z" style="fill:#fff"></path><path d="M184.29,280.51l46.31-.07c15.43,0,30.87,0,46.3.07-15.43.07-30.87.05-46.3.08Z" style="fill:#fff"></path><path d="M184.29,282.83l46.31-.08c15.43,0,30.87,0,46.3.08-15.43.07-30.87.05-46.3.08Z" style="fill:#fff"></path><path d="M184.29,285.15l46.31-.08c15.43,0,30.87,0,46.3.08-15.43.06-30.87.05-46.3.07Z" style="fill:#fff"></path><path d="M184.29,287.47l46.31-.08c15.43,0,30.87,0,46.3.08-15.43.06-30.87,0-46.3.07Z" style="fill:#fff"></path><path d="M184.29,289.79l46.31-.08c15.43,0,30.87,0,46.3.08-15.43.06-30.87,0-46.3.07Z" style="fill:#fff"></path><path d="M184.29,292.11,230.6,292c15.43,0,30.87,0,46.3.08-15.43.06-30.87,0-46.3.07Z" style="fill:#fff"></path><path d="M184.29,294.42l46.31-.07c15.43,0,30.87,0,46.3.07-15.43.07-30.87.05-46.3.08Z" style="fill:#fff"></path><rect x="194.09" y="278.19" width="7.02" height="18.94" style="fill:#dbdbdb"></rect><rect x="207.11" y="270.18" width="7.02" height="26.95" style="fill:#263238"></rect><rect x="220.14" y="275.95" width="7.02" height="21.17" style="fill:#fff"></rect><rect x="233.17" y="268.92" width="7.02" height="28.21" style="fill:#dbdbdb"></rect><rect x="246.2" y="272.7" width="7.02" height="24.43" style="fill:#263238"></rect><rect x="259.23" y="286.54" width="7.02" height="10.59" style="fill:#ebebeb"></rect><path d="M186.81,260.33l.19,9.2.13,9.2c.09,6.13.12,12.27.13,18.4l-.45-.28h22.52l22.52,0,22.53.09,22.52.17-22.52.16-22.53.1-22.52,0h-23v-.28c0-6.13,0-12.27.13-18.4l.13-9.2Z" style="fill:#fff"></path><rect x="194.09" y="299.07" width="7.02" height="0.39" style="fill:#ebebeb"></rect><rect x="207.11" y="299.07" width="7.02" height="0.39" style="fill:#ebebeb"></rect><rect x="220.14" y="299.07" width="7.02" height="0.39" style="fill:#ebebeb"></rect><rect x="233.17" y="299.07" width="7.02" height="0.39" style="fill:#ebebeb"></rect><rect x="246.2" y="299.07" width="7.02" height="0.39" style="fill:#ebebeb"></rect><rect x="259.23" y="299.07" width="7.02" height="0.39" style="fill:#ebebeb"></rect><rect x="170.47" y="314.2" width="120.25" height="57.23" style="fill:#fff"></rect><rect x="170.47" y="314.2" width="120.25" height="6.33" transform="translate(461.19 634.74) rotate(180)" style="fill:#455a64"></rect><circle cx="188.2" cy="340.57" r="5.97" style="fill:#263238"></circle><rect x="205.86" y="334.6" width="50.42" height="2.06" style="fill:#263238"></rect><rect x="205.86" y="341.99" width="36.42" height="1.73" style="fill:#263238"></rect><rect x="245.76" y="341.99" width="26.82" height="1.73" style="fill:#263238"></rect><rect x="205.86" y="346.47" width="25.21" height="1.73" style="fill:#263238"></rect><rect x="234.26" y="346.47" width="25.21" height="1.73" style="fill:#263238"></rect><rect x="205.86" y="350.95" width="45.19" height="1.73" style="fill:#263238"></rect><rect x="254.61" y="350.95" width="17.97" height="1.73" style="fill:#263238"></rect><rect x="205.86" y="355.44" width="36.42" height="1.73" style="fill:#263238"></rect><polygon points="315.53 121.71 314.53 121.71 314.53 118.71 317.53 118.71 317.53 119.71 315.53 119.71 315.53 121.71" style="fill:#dbdbdb"></polygon><path d="M427.77,119.71h-5v-1h5Zm-10,0h-5v-1h5Zm-10,0h-5v-1h5Zm-10,0h-5v-1h5Zm-10,0h-5v-1h5Zm-10,0h-5v-1h5Zm-10,0h-5v-1h5Zm-10,0h-5v-1h5Zm-10,0h-5v-1h5Zm-10,0h-5v-1h5Zm-10,0h-5v-1h5Z" style="fill:#dbdbdb"></path><polygon points="435.78 121.71 434.78 121.71 434.78 119.71 432.78 119.71 432.78 118.71 435.78 118.71 435.78 121.71" style="fill:#dbdbdb"></polygon><path d="M435.78,169.19h-1v-4.75h1Zm0-9.5h-1V155h1Zm0-9.49h-1v-4.75h1Zm0-9.5h-1V136h1Zm0-9.49h-1v-4.75h1Z" style="fill:#dbdbdb"></path><polygon points="435.78 176.94 432.78 176.94 432.78 175.94 434.78 175.94 434.78 173.94 435.78 173.94 435.78 176.94" style="fill:#dbdbdb"></polygon><path d="M427.77,176.94h-5v-1h5Zm-10,0h-5v-1h5Zm-10,0h-5v-1h5Zm-10,0h-5v-1h5Zm-10,0h-5v-1h5Zm-10,0h-5v-1h5Zm-10,0h-5v-1h5Zm-10,0h-5v-1h5Zm-10,0h-5v-1h5Zm-10,0h-5v-1h5Zm-10,0h-5v-1h5Z" style="fill:#dbdbdb"></path><polygon points="317.53 176.94 314.53 176.94 314.53 173.94 315.53 173.94 315.53 175.94 317.53 175.94 317.53 176.94" style="fill:#dbdbdb"></polygon><path d="M315.53,169.19h-1v-4.75h1Zm0-9.5h-1V155h1Zm0-9.49h-1v-4.75h1Zm0-9.5h-1V136h1Zm0-9.49h-1v-4.75h1Z" style="fill:#dbdbdb"></path><rect x="373.15" y="135.86" width="4.01" height="23.94" style="fill:#dbdbdb"></rect><rect x="373.15" y="135.86" width="4.01" height="23.94" transform="translate(227.33 522.98) rotate(-90)" style="fill:#dbdbdb"></rect><polygon points="315.53 316.7 314.53 316.7 314.53 313.7 317.53 313.7 317.53 314.7 315.53 314.7 315.53 316.7" style="fill:#dbdbdb"></polygon><path d="M427.77,314.7h-5v-1h5Zm-10,0h-5v-1h5Zm-10,0h-5v-1h5Zm-10,0h-5v-1h5Zm-10,0h-5v-1h5Zm-10,0h-5v-1h5Zm-10,0h-5v-1h5Zm-10,0h-5v-1h5Zm-10,0h-5v-1h5Zm-10,0h-5v-1h5Zm-10,0h-5v-1h5Z" style="fill:#dbdbdb"></path><polygon points="435.78 316.7 434.78 316.7 434.78 314.7 432.78 314.7 432.78 313.7 435.78 313.7 435.78 316.7" style="fill:#dbdbdb"></polygon><path d="M435.78,364.18h-1v-4.75h1Zm0-9.49h-1v-4.75h1Zm0-9.5h-1v-4.75h1Zm0-9.49h-1V331h1Zm0-9.5h-1v-4.75h1Z" style="fill:#dbdbdb"></path><polygon points="435.78 371.93 432.78 371.93 432.78 370.93 434.78 370.93 434.78 368.93 435.78 368.93 435.78 371.93" style="fill:#dbdbdb"></polygon><path d="M427.77,371.93h-5v-1h5Zm-10,0h-5v-1h5Zm-10,0h-5v-1h5Zm-10,0h-5v-1h5Zm-10,0h-5v-1h5Zm-10,0h-5v-1h5Zm-10,0h-5v-1h5Zm-10,0h-5v-1h5Zm-10,0h-5v-1h5Zm-10,0h-5v-1h5Zm-10,0h-5v-1h5Z" style="fill:#dbdbdb"></path><polygon points="317.53 371.93 314.53 371.93 314.53 368.93 315.53 368.93 315.53 370.93 317.53 370.93 317.53 371.93" style="fill:#dbdbdb"></polygon><path d="M315.53,364.18h-1v-4.75h1Zm0-9.49h-1v-4.75h1Zm0-9.5h-1v-4.75h1Zm0-9.49h-1V331h1Zm0-9.5h-1v-4.75h1Z" style="fill:#dbdbdb"></path><rect x="373.15" y="330.85" width="4.01" height="23.94" style="fill:#dbdbdb"></rect><rect x="373.15" y="330.85" width="4.01" height="23.94" transform="translate(32.34 717.97) rotate(-90)" style="fill:#dbdbdb"></rect><path d="M577.31,242.92h-5v-1h5Zm-10,0h-5v-1h5Zm-10,0h-5v-1h5Zm-10,0h-5v-1h5Zm-10,0h-5v-1h5Zm-10,0h-5v-1h5Zm-10,0h-5v-1h5Zm-10,0h-5v-1h5Zm-10,0h-5v-1h5Zm-10,0h-5v-1h5Zm-10,0h-5v-1h5Zm-10,0h-5v-1h5Zm-7.22-2.77h-1v-5h1Zm120.24-.2h-1v-5h1Zm-120.24-9.8h-1v-5h1Zm120.24-.2h-1v-5h1Zm-120.24-9.8h-1v-5h1Zm120.24-.2h-1v-5h1Zm-120.24-9.8h-1v-5h1Zm120.24-.2h-1v-5h1Zm-120.24-9.8h-1v-5h1Zm120.24-.2h-1v-5h1Zm-120.24-9.8h-1V184.7h5.5v1h-4.5Zm120.24-.2h-1V185.2h.26v-.5h.74Zm-5.74-4.25h-5v-1h5Zm-10,0h-5v-1h5Zm-10,0h-5v-1h5Zm-10,0h-5v-1h5Zm-10,0h-5v-1h5Zm-10,0h-5v-1h5Zm-10,0h-5v-1h5Zm-10,0h-5v-1h5Zm-10,0h-5v-1h5Zm-10,0h-5v-1h5Zm-10,0h-5v-1h5Z" style="fill:#fff"></path><rect x="517.71" y="201.84" width="4.01" height="23.94" style="fill:#fff"></rect><rect x="517.71" y="201.84" width="4.01" height="23.94" transform="translate(305.9 733.52) rotate(-90)" style="fill:#fff"></rect><path d="M580.33,371.93h-5v-1h5Zm-10,0h-5v-1h5Zm-10,0h-5v-1h5Zm-10,0h-5v-1h5Zm-10,0h-5v-1h5Zm-10,0h-5v-1h5Zm-10,0h-5v-1h5Zm-10,0h-5v-1h5Zm-10,0h-5v-1h5Zm-10,0h-5v-1h5Zm-10,0h-5v-1h5Zm-10,0h-5v-1h5Zm-10,0h-1.24v-4.75h1v3.75h.24Zm120-6h-1v-5h1Zm-120.24-3.75h-1v-5h1Zm120.24-6.25h-1v-5h1Zm-120.24-3.75h-1v-5h1Zm120.24-6.25h-1v-5h1Zm-120.24-3.75h-1v-5h1Zm120.24-6.25h-1v-5h1Zm-120.24-3.75h-1v-5h1Zm120.24-6.25h-1v-5h1Zm-120.24-3.75h-1v-5h1Zm120.24-6.25h-1v-5h1Zm-120.24-3.75h-1v-5h1Zm120.24-6.25h-1v-5h1Zm-120.24-3.75h-1v-5h1Zm120.24-6.25h-1v-5h1Zm-120.24-3.75h-1v-5h1Zm120.24-6.25h-1v-5h1Zm-120.24-3.75h-1v-5h1Zm120.24-6.25h-1v-5h1Zm-120.24-3.75h-1v-5h1Zm120.24-6.25h-1v-5h1Zm-120.24-3.75h-1v-5h1Zm120.24-6.25h-1v-4.75h.26v-.5h.74Zm-120.24-3.75h-1v-1.5h5.5v1h-4.5Zm114.5-.5h-5v-1h5Zm-10,0h-5v-1h5Zm-10,0h-5v-1h5Zm-10,0h-5v-1h5Zm-10,0h-5v-1h5Zm-10,0h-5v-1h5Zm-10,0h-5v-1h5Zm-10,0h-5v-1h5Zm-10,0h-5v-1h5Zm-10,0h-5v-1h5Zm-10,0h-5v-1h5Z" style="fill:#fff"></path><rect x="517.71" y="299.34" width="4.01" height="23.94" style="fill:#fff"></rect><rect x="517.71" y="299.34" width="4.01" height="23.94" transform="translate(208.4 831.02) rotate(-90)" style="fill:#fff"></rect><path d="M216.91,101.78H215v6.55a.66.66,0,0,1-.67.67.67.67,0,0,1-.68-.67v-6.55h-1.93a.68.68,0,0,1,0-1.36h5.23a.68.68,0,0,1,0,1.36Z" style="fill:#fff"></path><path d="M225.7,101.49a4.5,4.5,0,0,1,0,6.2,4,4,0,0,1-2.93,1.31,4.13,4.13,0,0,1-3-1.31,4.58,4.58,0,0,1,0-6.2,4.09,4.09,0,0,1,3-1.31A4,4,0,0,1,225.7,101.49Zm-.16,3.1a3.16,3.16,0,0,0-.83-2.14,2.64,2.64,0,0,0-3.92,0,3.08,3.08,0,0,0-.84,2.14,3,3,0,0,0,.84,2.13,2.62,2.62,0,0,0,3.92,0A3.12,3.12,0,0,0,225.54,104.59Z" style="fill:#fff"></path><path d="M233,108.33V101.1a.67.67,0,0,1,.67-.68h1.45a4.29,4.29,0,0,1,0,8.58h-1.45A.66.66,0,0,1,233,108.33Zm1.36-.69h.76a2.93,2.93,0,0,0,0-5.86h-.76Z" style="fill:#fff"></path><path d="M248.43,101.49a4.5,4.5,0,0,1,0,6.2A4,4,0,0,1,245.5,109a4.13,4.13,0,0,1-3-1.31,4.58,4.58,0,0,1,0-6.2,4.09,4.09,0,0,1,3-1.31A4,4,0,0,1,248.43,101.49Zm-.16,3.1a3.16,3.16,0,0,0-.83-2.14,2.64,2.64,0,0,0-3.92,0,3.07,3.07,0,0,0-.83,2.14,3,3,0,0,0,.83,2.13,2.62,2.62,0,0,0,3.92,0A3.12,3.12,0,0,0,248.27,104.59Z" style="fill:#fff"></path><path d="M335,101.1a.67.67,0,0,1,.68-.68.69.69,0,0,1,.68.68v7.23a.68.68,0,0,1-.68.67.67.67,0,0,1-.68-.67Z" style="fill:#dbdbdb"></path><path d="M340,108.33a.67.67,0,1,1-1.33,0v-7.12h0a.66.66,0,0,1,1.2-.42l4,5.48v-5.05a.66.66,0,0,1,.66-.66.67.67,0,0,1,.67.66v7.12a.66.66,0,0,1-1.17.43l-.07-.08L340,103.24Z" style="fill:#dbdbdb"></path><path d="M354.64,105.67h-1.5v2.66a.68.68,0,0,1-.69.67.67.67,0,0,1-.67-.67V101.1a.67.67,0,0,1,.67-.68h2.19a2.63,2.63,0,1,1,0,5.25Zm-1.5-1.36h1.5a1.27,1.27,0,1,0,0-2.53h-1.5Z" style="fill:#dbdbdb"></path><path d="M364.6,108a.67.67,0,0,1-.43.86,1.19,1.19,0,0,1-.27,0h0a.91.91,0,0,1-.48-.14,1.13,1.13,0,0,1-.39-.42,3.33,3.33,0,0,1-.26-1.47,1,1,0,0,0-.15-.53,1.12,1.12,0,0,0-.36-.36,2.26,2.26,0,0,0-.69-.29h-1.45v2.66a.68.68,0,0,1-1.36,0V101.1a.67.67,0,0,1,.68-.68h2.19a2.62,2.62,0,0,1,2.62,2.64,2.58,2.58,0,0,1-.95,2,2.06,2.06,0,0,1,.43.45,2.38,2.38,0,0,1,.4,1.33,3.51,3.51,0,0,0,.05.72A.65.65,0,0,1,364.6,108Zm-1.72-4.92a1.27,1.27,0,0,0-1.26-1.28h-1.51v2.53h1.51A1.26,1.26,0,0,0,362.88,103.06Z" style="fill:#dbdbdb"></path><path d="M373.14,101.49a4.5,4.5,0,0,1,0,6.2,4,4,0,0,1-2.92,1.31,4.14,4.14,0,0,1-3-1.31,4.58,4.58,0,0,1,0-6.2,4.1,4.1,0,0,1,3-1.31A4,4,0,0,1,373.14,101.49Zm-.15,3.1a3.17,3.17,0,0,0-.84-2.14,2.6,2.6,0,0,0-1.93-.87,2.65,2.65,0,0,0-2,.87,3.11,3.11,0,0,0-.83,2.14,3.07,3.07,0,0,0,.83,2.13,2.69,2.69,0,0,0,2,.88,2.65,2.65,0,0,0,1.93-.88A3.12,3.12,0,0,0,373,104.59Z" style="fill:#dbdbdb"></path><path d="M376.42,104.6a4.47,4.47,0,0,1,4.52-4.42,4.53,4.53,0,0,1,2.8.95.71.71,0,0,1,.13,1,.72.72,0,0,1-1,.11,3.15,3.15,0,0,0-1.94-.66,3,3,0,0,0-2.2.89,2.9,2.9,0,0,0,0,4.24,3,3,0,0,0,2.2.89,3.38,3.38,0,0,0,1.68-.46v-1.68h-1.75a.71.71,0,0,1-.7-.7.69.69,0,0,1,.7-.68h2.44a.69.69,0,0,1,.71.68v2.71a.71.71,0,0,1,0,.21s0,0,0,.06h0a.64.64,0,0,1-.23.3,4.54,4.54,0,0,1-2.79,1A4.46,4.46,0,0,1,376.42,104.6Z" style="fill:#dbdbdb"></path><path d="M392.46,108a.68.68,0,0,1-.43.86,1.19,1.19,0,0,1-.27,0h0a.89.89,0,0,1-.48-.14,1.06,1.06,0,0,1-.39-.42,3.2,3.2,0,0,1-.26-1.47,1,1,0,0,0-.15-.53,1.07,1.07,0,0,0-.37-.36,2.13,2.13,0,0,0-.68-.29H388v2.66a.68.68,0,0,1-1.36,0V101.1a.67.67,0,0,1,.68-.68h2.19a2.63,2.63,0,0,1,1.67,4.65,2,2,0,0,1,.42.45,2.31,2.31,0,0,1,.41,1.33,2.9,2.9,0,0,0,0,.72A.7.7,0,0,1,392.46,108Zm-1.72-4.92a1.27,1.27,0,0,0-1.26-1.28H388v2.53h1.51A1.26,1.26,0,0,0,390.74,103.06Z" style="fill:#dbdbdb"></path><path d="M394.45,108.33V101.1a.67.67,0,0,1,.67-.68h4a.68.68,0,0,1,0,1.36h-3.32V104h2.85a.68.68,0,1,1,0,1.36h-2.85v2.25h3.32a.69.69,0,0,1,.67.69.68.68,0,0,1-.67.67h-4s0,0,0,0h0A.66.66,0,0,1,394.45,108.33Z" style="fill:#dbdbdb"></path><path d="M401.45,106.87a.63.63,0,0,1,.89-.09,4,4,0,0,0,2.34,1,2.6,2.6,0,0,0,1.53-.46,1.09,1.09,0,0,0,.53-.88.71.71,0,0,0-.11-.39,1.08,1.08,0,0,0-.37-.37,4.79,4.79,0,0,0-1.68-.57h0a6.5,6.5,0,0,1-1.58-.48,2.61,2.61,0,0,1-1.14-1,1.91,1.91,0,0,1-.28-1,2.23,2.23,0,0,1,1-1.79,3.58,3.58,0,0,1,2.12-.65,4.79,4.79,0,0,1,2.67,1,.63.63,0,0,1,.17.87.62.62,0,0,1-.87.18,3.57,3.57,0,0,0-2-.78,2.3,2.3,0,0,0-1.37.42.94.94,0,0,0-.47.77.54.54,0,0,0,.09.34,1.12,1.12,0,0,0,.33.32,4.13,4.13,0,0,0,1.53.54h0a7.14,7.14,0,0,1,1.69.51,2.88,2.88,0,0,1,1.23,1,2,2,0,0,1,.29,1,2.37,2.37,0,0,1-1.05,1.9,3.85,3.85,0,0,1-2.27.7,5.18,5.18,0,0,1-3.13-1.23A.64.64,0,0,1,401.45,106.87Z" style="fill:#dbdbdb"></path><path d="M409.5,106.87a.65.65,0,0,1,.9-.09,4,4,0,0,0,2.34,1,2.65,2.65,0,0,0,1.53-.46,1.09,1.09,0,0,0,.53-.88.71.71,0,0,0-.11-.39,1.29,1.29,0,0,0-.37-.37,4.94,4.94,0,0,0-1.68-.57h0a6.73,6.73,0,0,1-1.59-.48,2.59,2.59,0,0,1-1.13-1,1.83,1.83,0,0,1-.29-1,2.26,2.26,0,0,1,1-1.79,3.62,3.62,0,0,1,2.12-.65,4.79,4.79,0,0,1,2.68,1,.64.64,0,0,1,.17.87.62.62,0,0,1-.87.18,3.63,3.63,0,0,0-2-.78,2.3,2.3,0,0,0-1.37.42,1,1,0,0,0-.46.77.61.61,0,0,0,.08.34,1.12,1.12,0,0,0,.33.32,4.2,4.2,0,0,0,1.53.54h0a7.29,7.29,0,0,1,1.69.51,3,3,0,0,1,1.23,1,2,2,0,0,1,.29,1,2.37,2.37,0,0,1-1.05,1.9,3.85,3.85,0,0,1-2.27.7,5.21,5.21,0,0,1-3.14-1.23A.65.65,0,0,1,409.5,106.87Z" style="fill:#dbdbdb"></path><path d="M503.65,108.33V101.1a.67.67,0,0,1,.68-.68h1.44a4.29,4.29,0,0,1,0,8.58h-1.44A.67.67,0,0,1,503.65,108.33Zm1.36-.69h.76a2.93,2.93,0,0,0,0-5.86H505Z" style="fill:#fff"></path><path d="M519.05,101.49a4.49,4.49,0,0,1,0,6.2,4,4,0,0,1-2.93,1.31,4.11,4.11,0,0,1-3-1.31,4.55,4.55,0,0,1,0-6.2,4.08,4.08,0,0,1,3-1.31A4,4,0,0,1,519.05,101.49Zm-.16,3.1a3.16,3.16,0,0,0-.83-2.14,2.62,2.62,0,0,0-1.94-.87,2.66,2.66,0,0,0-2,.87,3.11,3.11,0,0,0-.83,2.14,3.07,3.07,0,0,0,.83,2.13,2.71,2.71,0,0,0,2,.88,2.67,2.67,0,0,0,1.94-.88A3.12,3.12,0,0,0,518.89,104.59Z" style="fill:#fff"></path><path d="M523.74,108.33a.67.67,0,0,1-1.34,0v-7.12h0a.7.7,0,0,1,.27-.57.67.67,0,0,1,.93.15l4,5.48v-5.05a.66.66,0,0,1,.66-.66.68.68,0,0,1,.68.66v7.12a.67.67,0,0,1-1.18.43.21.21,0,0,1-.06-.08l-3.92-5.44Z" style="fill:#fff"></path><path d="M531.05,108.33V101.1a.67.67,0,0,1,.67-.68h4a.68.68,0,0,1,0,1.36h-3.32V104h2.85a.68.68,0,0,1,0,1.36h-2.85v2.25h3.32a.69.69,0,0,1,.67.69.68.68,0,0,1-.67.67h-4s0,0,0,0h0A.66.66,0,0,1,531.05,108.33Z" style="fill:#fff"></path></g><g id="freepik--character-2--inject-388"><rect x="449.46" y="222.06" width="120.25" height="57.23" transform="translate(941.37 619.56) rotate(-165.68)" style="fill:#F9A158"></rect><rect x="455.76" y="222.85" width="120.25" height="6.33" transform="translate(959.86 572.57) rotate(-165.68)" style="fill:#455a64"></rect><rect x="480.38" y="230.68" width="30.35" height="1.73" transform="translate(72.64 -115.34) rotate(14.32)" style="fill:#fff"></rect><rect x="512.73" y="237.91" width="22.35" height="1.73" transform="translate(75.31 -122.13) rotate(14.32)" style="fill:#fff"></rect><rect x="479.59" y="232.46" width="9.59" height="1.73" transform="translate(72.73 -112.52) rotate(14.32)" style="fill:#fff"></rect><rect x="522.72" y="245.77" width="27.64" height="1.73" transform="translate(77.64 -125.01) rotate(14.32)" style="fill:#fff"></rect><rect x="491.15" y="238" width="29.95" height="1.73" transform="translate(74.78 -117.73) rotate(14.32)" style="fill:#fff"></rect><rect x="466.62" y="224.16" width="6.21" height="6.21" transform="translate(70.77 -109.08) rotate(14.31)" style="fill:#fff"></rect><g style="opacity:0.1"><rect x="476.62" y="245.43" width="30.35" height="1.73" transform="translate(76.17 -113.95) rotate(14.32)"></rect><rect x="508.84" y="253.68" width="30.59" height="1.73" transform="translate(79.21 -121.69) rotate(14.32)"></rect><rect x="475.45" y="250.24" width="34.18" height="1.73" transform="translate(77.38 -113.99) rotate(14.32)"></rect><rect x="511.39" y="257.37" width="18.16" height="1.73" transform="translate(80.01 -120.68) rotate(14.32)"></rect><rect x="541.76" y="259.97" width="14.06" height="1.73" transform="translate(81.53 -127.59) rotate(14.32)"></rect><rect x="462.85" y="238.91" width="6.21" height="6.21" transform="translate(74.31 -107.7) rotate(14.32)"></rect></g><rect x="472.54" y="262.7" width="50.79" height="1.73" transform="translate(80.63 -114.93) rotate(14.32)" style="fill:#fff"></rect><rect x="525.01" y="272.46" width="22.35" height="1.73" transform="translate(84.23 -124.09) rotate(14.32)" style="fill:#fff"></rect><rect x="471.89" y="263.36" width="21.01" height="1.73" transform="translate(80.31 -111.07) rotate(14.32)" style="fill:#fff"></rect><rect x="494.51" y="271.74" width="41.45" height="1.73" transform="translate(83.4 -118.93) rotate(14.32)" style="fill:#fff"></rect><rect x="459.09" y="253.65" width="6.21" height="6.21" transform="translate(77.84 -106.31) rotate(14.32)" style="fill:#fff"></rect><path d="M598,136.91c15.86,5.62,54.6,25.11,62.52,36.52,4.95,7.13-17.45,31.62-37.43,46.7-4.17,3.15-25-15.19-26.35-20.71-.93-3.76,28.67-18.89,27.08-21.5-2.92-4.79-24.37-22-34.65-33.57C583.39,137.91,588.09,133.42,598,136.91Z" style="fill: rgb(211, 118, 106);"></path><path d="M619.6,177.42,644.46,158s-24.34-15.17-44.14-20.85c-15.46-4.43-18.19.36-9.06,10.42S619.6,177.42,619.6,177.42Z" style="fill:#F9A158"></path><path d="M634.69,165.62l-15.09,11.8s-19.22-19.8-28.34-29.85c-7.37-8.13-7-12.81,1.55-12Z" style="opacity:0.1"></path><polygon points="619.35 180.85 647.76 159.6 646.38 159.18 646.81 156.87 645.76 156.55 643.9 154.18 616.25 176.4 617.7 176.84 617.71 178.92 619.08 179.15 619.35 180.85" style="fill:#F9A158"></polygon><polygon points="619.35 180.85 647.76 159.6 646.38 159.18 646.81 156.87 645.76 156.55 643.9 154.18 616.25 176.4 617.7 176.84 617.71 178.92 619.08 179.15 619.35 180.85" style="opacity:0.1"></polygon><path d="M654.93,394.62s.76,48.34.77,48.37c-.12,9.06-.39,17-.91,21.09a.17.17,0,0,1,0,.07,6.31,6.31,0,0,1-.7,2.79s0,0-.06.05c-2.72,1.8-75.13,3-77.67,2.15s-.43-8.11,2.34-10.39S609,443.61,609,443.61l-.31-49Z" style="fill: rgb(211, 118, 106);"></path><path d="M655.87,433.27s-.18,9.69-.17,9.72c-.12,9.06-.39,17-.91,21.09a.17.17,0,0,1,0,.07,12.38,12.38,0,0,1-.7,2.79s0,0-.06.05c-2.72,1.8-75.13,3-77.67,2.15s-.43-8.11,2.34-10.39S609,443.61,609,443.61l0-9.87Z" style="fill:#fff"></path><path d="M604.57,443.59c4.83-.74,10.68.18,14.24,3.71.14.14-.06.33-.22.28a67.45,67.45,0,0,0-14-3.38A.31.31,0,0,1,604.57,443.59Z" style="fill:#263238"></path><path d="M601,445.57c4.83-.74,10.68.18,14.25,3.71.13.14-.06.33-.22.28a67.45,67.45,0,0,0-14-3.38A.31.31,0,0,1,601,445.57Z" style="fill:#263238"></path><path d="M597.5,447.56c4.83-.75,10.68.17,14.25,3.7.13.14-.06.34-.22.28a67.39,67.39,0,0,0-14-3.38A.3.3,0,0,1,597.5,447.56Z" style="fill:#263238"></path><path d="M576.35,469.15c2.54.81,74.92,1,77.65-.83,1-.67,1.52-12.55,1.69-25.33v-.4l-46.72.23,0,.79s-27.52,12.85-30.31,15.14S573.8,468.35,576.35,469.15Z" style="fill:#a6a6a6"></path><path d="M577.12,466.32c12.2-.49,61.46-1.34,73.56-.91.1,0,.1.07,0,.08-12.08.76-61.35,1.21-73.56,1C576.87,466.52,576.86,466.34,577.12,466.32Z" style="fill:#263238"></path><path d="M612.67,442.94l-27.18,26.61a91,91,0,0,1-9.15-.4c-2.53-.81-.42-8.11,2.35-10.4S609,443.61,609,443.61l0-.78,3.56,0Z" style="opacity:0.1"></path><path d="M657.36,442.38l-52.79.62s-1.22-79.35-1.17-107.8c.07-32.49,4.93-129.44,4.93-129.44l39.17.38a124.48,124.48,0,0,1,8.52,30.6c.63,4.53-.09,17.73-1.65,23.76l-1.39,79Z" style="fill:#37474f"></path><path d="M611.84,386c-.47-14.11-.74-21.44-1-35.55q-.75-42.36.22-84.71c.36-15.84.94-31.67,1.56-47.5,0-.18-.26-.17-.28,0-1.77,28.33-2.62,56.72-2.94,85.11s0,49.69,1.08,77.91c.63,15.83,1.44,31.68,2.77,47.48a.11.11,0,0,0,.22,0C613,414.45,612.32,400.21,611.84,386Z" style="fill:#263238"></path><path d="M611.52,432.81c10.53-.71,21.11-.73,31.65-.53,3,.06,6,.15,8.94.29a.09.09,0,0,1,0,.17c-10.53.65-21.11.77-31.66.56-3-.06-6-.15-8.94-.31A.09.09,0,0,1,611.52,432.81Z" style="fill:#263238"></path><path d="M583.22,398.19s-.18,45.46-.18,45.5c-.11,9.05-.38,17-.9,21.09a.13.13,0,0,1,0,.06,6.26,6.26,0,0,1-.7,2.79l-.06.06c-2.72,1.79-75.13,3-77.67,2.15s-.43-8.11,2.34-10.4,30.31-15.13,30.31-15.13l2.66-46Z" style="fill: rgb(211, 118, 106);"></path><path d="M583.22,434s-.18,9.69-.18,9.73c-.11,9.05-.38,17-.9,21.09a.13.13,0,0,1,0,.06,12,12,0,0,1-.7,2.79l-.06.06c-2.72,1.79-75.13,3-77.67,2.15s-.43-8.11,2.34-10.4,30.31-15.13,30.31-15.13l0-9.87Z" style="fill:#fff"></path><path d="M531.91,444.29c4.83-.75,10.68.17,14.25,3.71.13.14-.06.33-.22.28a66.77,66.77,0,0,0-14-3.38A.31.31,0,0,1,531.91,444.29Z" style="fill:#263238"></path><path d="M528.38,446.27c4.83-.75,10.68.17,14.24,3.71.14.14,0,.33-.21.28a67.39,67.39,0,0,0-14-3.38A.31.31,0,0,1,528.38,446.27Z" style="fill:#263238"></path><path d="M524.85,448.25c4.83-.75,10.68.17,14.24,3.71.14.14-.05.33-.21.28a67.39,67.39,0,0,0-14-3.38A.31.31,0,0,1,524.85,448.25Z" style="fill:#263238"></path><path d="M503.7,469.84c2.54.81,75.2,1.26,77.93-.53,1-.67,1.24-12.85,1.41-25.62v-.4l-46.72.23,0,.79S508.83,457.15,506,459.45,501.15,469,503.7,469.84Z" style="fill:#a6a6a6"></path><path d="M504.47,466.8c12.2-.42,61.47-1,73.56-.47.1,0,.1.07,0,.07-12.08.69-61.35.85-73.56.6C504.21,467,504.21,466.81,504.47,466.8Z" style="fill:#263238"></path><path d="M624.28,256.06s-28.94,68.54-31.51,79.5c-2.42,10.34-6.7,108.13-6.7,108.13l-51.6-.4s7.59-99,8.55-110c1.26-14.52,13.9-47.62,27.29-83,5.68-15,13.31-29.7,17.32-44.72l58.65.58s-.77,26.48-13,45.52C633.28,251.65,627.8,254.13,624.28,256.06Z" style="fill:#37474f"></path><path d="M539.23,433.62c10.54-.51,21.12-.33,31.66.07q4.47.17,8.93.46a.09.09,0,0,1,0,.17c-10.53.44-21.12.37-31.66,0-3-.12-6-.27-8.93-.49A.09.09,0,0,1,539.23,433.62Z" style="fill:#263238"></path><path d="M610.81,257.23a48.6,48.6,0,0,0,8.09-.65,79,79,0,0,0,7.85-2.1,62,62,0,0,1,7.69-1.17,27.06,27.06,0,0,0,7.54-2.17c.12,0,.21.11.09.17a46.44,46.44,0,0,1-7.24,3.05c-2.58.79-5.28.88-7.91,1.49a67.12,67.12,0,0,1-8.07,1.78,29.49,29.49,0,0,1-8.07-.22C610.68,257.39,610.72,257.23,610.81,257.23Z" style="fill:#263238"></path><path d="M605.77,300c.56-1.61,1.1-3.21,1.7-4.81,1.21-3.23,2.44-6.46,3.78-9.66,2.66-6.36,5.18-12.76,8-19.08,1.6-3.58,3-7.22,4.9-10.73,0-.09.21,0,.18,0-1,3.29-2.29,6.49-3.48,9.73s-2.48,6.45-3.76,9.66c-2.55,6.39-5,12.79-7.82,19.13-.78,1.77-1.58,3.54-2.42,5.3s-1.53,3.66-2.56,5.41c0,.09-.23.05-.2,0A50.51,50.51,0,0,1,605.77,300Z" style="fill:#263238"></path><path d="M595,209.15c0-.18.19-.07.17.07a58,58,0,0,1-2.93,14.33l-5,13.82-10,27.62c-7.42,20.74-15.13,41.38-22,62.3a27.05,27.05,0,0,0-1.3,7.09c-2.35,26.57-5.82,65.28-8.06,92.44,0,.1-.26.21-.26,0,0-.43,1.92-29.28,1.92-29.28,1.21-17.44,2.79-31.47,4.18-48.61.39-4.88.76-9.76,1.22-14.64A27.53,27.53,0,0,1,554.3,327c9.72-29.36,21.7-60.66,32.5-89.79L592,223.46c1.78-4.55,2.46-9.47,3-14.31Z" style="fill:#263238"></path><path d="M586.52,151.67c2.81-.92,6.62-8.25,7.22-13.46,0-.35-1.66-3.25-3.55-6.86-1.14-2.2-2.36-4.68-3.31-7l-13.22,9.52a40.4,40.4,0,0,1,5.06,8.4,6.14,6.14,0,0,1,.29,1,1.36,1.36,0,0,0,0,.17C579.49,145.36,582.11,153.11,586.52,151.67Z" style="fill: rgb(211, 118, 106);"></path><path d="M579.05,143.42a10.08,10.08,0,0,0,1.54-.53c8.07-3.49,6.31-14.26,5.45-17.95l-12.38,8.91a40.4,40.4,0,0,1,5.06,8.4,4.85,4.85,0,0,1,.28,1C579,143.3,579,143.36,579.05,143.42Z" style="fill:#263238"></path><path d="M584.62,106.67c3.16,5,4.67,21.36,1.79,25.91-4.16,6.61-13.15,9.64-19.31,4.14-6-5.33-7.56-26.76-4.15-31.12C568,99.17,580,99.37,584.62,106.67Z" style="fill: rgb(211, 118, 106);"></path><path d="M587.88,121.39c.23,4.72-.17,9.15-1.47,11.19-4.16,6.61-13.15,9.64-19.31,4.14-4.18-3.73-6.21-15.35-5.88-23.48v0c.14-3.47.71-6.32,1.73-7.62,5-6.42,17-6.23,21.67,1.07C586.37,109.4,587.6,115.61,587.88,121.39Z" style="fill: rgb(211, 118, 106);"></path><path d="M571.87,121.6s.09,0,.09.09c.08,1.1.36,2.36,1.4,2.62,0,0,0,.07,0,.06C572.12,124.33,571.77,122.66,571.87,121.6Z" style="fill:#263238"></path><path d="M572.73,120.34c1.76-.32,2.28,3.23.64,3.52S571.26,120.61,572.73,120.34Z" style="fill:#263238"></path><path d="M565.43,122.25s-.08.07-.07.11c.19,1.1.23,2.38-.71,2.89,0,0,0,.07,0,.06C565.85,125,565.79,123.26,565.43,122.25Z" style="fill:#263238"></path><path d="M564.28,121.25c-1.78.12-1.41,3.68.24,3.57S565.78,121.15,564.28,121.25Z" style="fill:#263238"></path><path d="M573.88,118.62a13.77,13.77,0,0,1-1.45-.29,2.33,2.33,0,0,1-1.41-.57.75.75,0,0,1,0-.93,1.89,1.89,0,0,1,1.84-.46,2.74,2.74,0,0,1,1.75,1A.81.81,0,0,1,573.88,118.62Z" style="fill:#263238"></path><path d="M562.78,119.86a13.47,13.47,0,0,0,1.36-.57,2.37,2.37,0,0,0,1.27-.84.76.76,0,0,0-.17-.91,1.87,1.87,0,0,0-1.9-.08,2.71,2.71,0,0,0-1.52,1.28A.81.81,0,0,0,562.78,119.86Z" style="fill:#263238"></path><path d="M574.14,131.5c-.23.3-.44.69-.83.78a2.86,2.86,0,0,1-1.23-.11s-.06,0,0,.07a1.49,1.49,0,0,0,1.48.39,1.19,1.19,0,0,0,.72-1.1C574.26,131.47,574.17,131.46,574.14,131.5Z" style="fill:#263238"></path><path d="M572.51,128.38a3.79,3.79,0,0,1-2.26,2,5,5,0,0,1-1.34.26h-.5a.28.28,0,0,1-.26-.21h0a.41.41,0,0,1,0-.11h0v-.1c-.14-.84-.25-2.14-.25-2.14-.29.2-1.76,1.14-1.8.69a56.92,56.92,0,0,1-.18-11.53c0-.12.2-.12.2,0,.44,3.53.26,7.12.64,10.68a6.4,6.4,0,0,1,1.69-.79c.12,0,.15,2.51.25,2.89v0a5.19,5.19,0,0,0,3.7-1.76C572.46,128.22,572.56,128.28,572.51,128.38Z" style="fill:#263238"></path><path d="M569.35,130.16a4.54,4.54,0,0,0,2,1.12,2.06,2.06,0,0,0,1.22-.1c.84-.36.75-1.17.49-1.83a4.59,4.59,0,0,0-.55-1A5.8,5.8,0,0,1,569.35,130.16Z" style="fill:#263238"></path><path d="M571.33,131.28a2.06,2.06,0,0,0,1.22-.1c.84-.36.75-1.17.49-1.83A2.06,2.06,0,0,0,571.33,131.28Z" style="fill:#ff9abb"></path><path d="M587.45,121.62c-4.06.88-6.91-3.7-6.52-7.78,0,0-10.7,3-12.48-5.66,0,0-2.19,4.58-7.12,5.42l-.16,2.94c-1.16-.17-2.81-3.18-.44-6.06a10.56,10.56,0,0,1,2.4-7.48,6,6,0,0,1,6.29-1.82,9.08,9.08,0,0,1,6.34-2.57A7.76,7.76,0,0,1,582,102s5.55.25,7,4a8,8,0,0,1-.14,6.56s1.57,1.32,1.35,4.69C590.14,119.35,588.67,121.36,587.45,121.62Z" style="fill:#263238"></path><path d="M568.58,107.37a11,11,0,0,0,.28,2.14,8.87,8.87,0,0,0,.7,2,5.58,5.58,0,0,0,3,2.78,9.09,9.09,0,0,0,4.16.43c.71-.12,1.42-.2,2.13-.36s1.39-.37,2.1-.53c-.67.27-1.36.51-2,.77s-1.42.34-2.14.51a8.8,8.8,0,0,1-4.4-.35,5.83,5.83,0,0,1-3.15-3.08A8.82,8.82,0,0,1,568.58,107.37Z" style="fill:#263238"></path><path d="M582,102a10.24,10.24,0,0,1,4.15.29,6.13,6.13,0,0,1,3.45,2.4,6.7,6.7,0,0,1,.82,2,6.5,6.5,0,0,1,.2,2.11,5.7,5.7,0,0,1-1.73,3.74,6.2,6.2,0,0,0,1.33-3.76,7,7,0,0,0-1-3.79,5.37,5.37,0,0,0-1.36-1.41,8.12,8.12,0,0,0-1.79-.9A13,13,0,0,0,582,102Z" style="fill:#263238"></path><path d="M569.42,101.18a10.44,10.44,0,0,0-3.29-.16,6.17,6.17,0,0,0-3,1.13,6.31,6.31,0,0,0-2,2.51,11.08,11.08,0,0,0-.87,3.19,8.28,8.28,0,0,1,.5-3.34,6.14,6.14,0,0,1,2-2.78,6,6,0,0,1,3.25-1.1A7.67,7.67,0,0,1,569.42,101.18Z" style="fill:#263238"></path><path d="M563.69,113.24a11.52,11.52,0,0,0,3-2.26,6.77,6.77,0,0,0,1.08-1.52,8.5,8.5,0,0,0,.68-1.79,4.75,4.75,0,0,1-.32,2,5.31,5.31,0,0,1-1.07,1.7,6.38,6.38,0,0,1-1.57,1.22A6,6,0,0,1,563.69,113.24Z" style="fill:#263238"></path><path d="M583.87,121.35s2.24-6,4.87-5.32,1.85,8.72-.59,10.42a2.84,2.84,0,0,1-4.07-.52Z" style="fill: rgb(211, 118, 106);"></path><path d="M588.46,118.33s.06,0,0,.07c-1.7,1.26-2.24,3.27-2.47,5.28a1.56,1.56,0,0,1,2.16-1c.06,0,0,.11,0,.11a1.73,1.73,0,0,0-1.71,1.07,8.69,8.69,0,0,0-.51,1.74c0,.19-.37.18-.36,0v0C584.92,123.11,585.92,119.24,588.46,118.33Z" style="fill:#263238"></path><path d="M657.36,240.22s-38.3,7.09-59.47,7.53c-7.44.16-29.49-4.1-29.49-4.1-.41-.24,7.75-9.22,8.76-23.16,1.85-25.34-2.16-64.14,1.59-75.77,1.46-4.51,11.18-10.71,16.59-9,11.06,3.48,34.54,34.5,48.33,60.06C653.53,214,657.36,240.22,657.36,240.22Z" style="fill:#F9A158"></path><path d="M585.63,149.49c7.19,11.55,10.77,60,9.56,64.68-2.79,10.83-35.65,21.82-51.06,25-3.89.79-.52-31.31,3.63-32.25,7.57-1.71,20.23-4.81,21.67-7.68s4.69-30.59,5.73-44.9C576,142.24,582,143.65,585.63,149.49Z" style="fill: rgb(211, 118, 106);"></path><path d="M549.68,207.18s-6.61-1.06-12.88-1.81c-7.53-.9-26.51.5-37.44,18.81-4.18,7-1.09,13,4.56,6.5,4-4.59,6.33-8.11,8.05-9.24,0,0-.39,9.28,3.87,12.58a99.29,99.29,0,0,0,11.74,7.83,20.93,20.93,0,0,0,1.66-2.07s8.33,3.22,14.89-.65Z" style="fill: rgb(211, 118, 106);"></path><path d="M529.47,205.32c-3.38,2.09-10.48,6.63-15,12.37-5,6.37-13,20-8.21,23.65,3.48,2.68,7-2.25,7-2.25s-2.1,6.32,1.57,8c3.35,1.58,5.82-2.4,5.82-2.4s-.62,4.06,2.9,5c4.23,1.08,4.81-7.6,10-10.2C534.74,238.92,529.47,205.32,529.47,205.32Z" style="fill: rgb(211, 118, 106);"></path><path d="M522.09,221.87c-2.86,2.48-7.91,9.79-8.93,17.06,0,.17.09.27.14.12a79.34,79.34,0,0,1,8.85-17.14S522.12,221.84,522.09,221.87Z" style="fill:#263238"></path><path d="M528.37,227.11c-2.24,2.4-7.11,10.17-7.89,17.57,0,.17.1.27.15.12a84.91,84.91,0,0,1,7.81-17.64S528.4,227.08,528.37,227.11Z" style="fill:#263238"></path><path d="M568.4,194.11,599,201.87s-2.93-28.83-10.58-48c-6-14.93-11.42-14.16-13.78-.78S568.4,194.11,568.4,194.11Z" style="fill:#F9A158"></path><path d="M574.62,153.14c2.36-13.38,7.82-14.15,13.78.78,7.65,19.12,10.58,48,10.58,48l-30.58-7.76S572.26,166.51,574.62,153.14Z" style="fill:#F9A158"></path><path d="M598.47,198.05c-2.6-10.73-4.29-22.18-6.46-33,3.49,10.67,5.14,21.88,6.46,33Z" style="fill:#263238"></path><path d="M593.59,166.27a6.87,6.87,0,0,1-.06,4.79,42.53,42.53,0,0,1,.06-4.79Z" style="fill:#263238"></path><polygon points="565.53 196.02 599.73 205.46 599.22 204.11 601.31 203.03 600.91 202.01 601.65 199.08 567.15 190.84 567.69 192.26 566.05 193.53 566.71 194.76 565.53 196.02" style="fill:#F9A158"></polygon><polygon points="565.53 196.02 599.73 205.46 599.22 204.11 601.31 203.03 600.91 202.01 601.65 199.08 567.15 190.84 567.69 192.26 566.05 193.53 566.71 194.76 565.53 196.02" style="opacity:0.1"></polygon></g><g id="freepik--character-1--inject-388"><rect x="287.68" y="132.64" width="120.25" height="57.23" transform="translate(702.38 307.02) rotate(177.47)" style="fill:#F9A158"></rect><rect x="286.56" y="132.66" width="120.25" height="6.33" transform="translate(699.02 256.25) rotate(177.47)" style="fill:#455a64"></rect><rect x="295" y="146.5" width="37.98" height="37.98" transform="translate(634.97 316.98) rotate(177.47)" style="fill:#fff"></rect><path d="M300.69,156.14a3.59,3.59,0,1,0,2.69-2.94A3.59,3.59,0,0,0,300.69,156.14Z" style="fill:#020100;opacity:0.1"></path><polygon points="305.94 174.98 333.36 173.77 318.97 159 305.94 174.98" style="fill:#ebebeb"></polygon><polygon points="295.42 175.45 318.06 174.45 306.3 164.94 295.42 175.45" style="fill:#dbdbdb"></polygon><rect x="295.62" y="174.6" width="37.98" height="9.86" transform="translate(-7.61 14.04) rotate(-2.53)" style="fill:#ebebeb"></rect><rect x="338.62" y="144.47" width="42.02" height="2.06" transform="matrix(1, -0.04, 0.04, 1, -6.06, 15.99)" style="fill:#fff"></rect><rect x="338.95" y="152.1" width="30.35" height="1.73" transform="translate(-6.4 15.75) rotate(-2.53)" style="fill:#fff"></rect><rect x="372.18" y="150.81" width="22.35" height="1.73" transform="translate(-6.31 17.04) rotate(-2.53)" style="fill:#fff"></rect><rect x="339.15" y="156.79" width="21.01" height="1.73" transform="translate(-6.61 15.56) rotate(-2.53)" style="fill:#fff"></rect><rect x="362.8" y="155.74" width="21.01" height="1.73" transform="translate(-6.54 16.6) rotate(-2.53)" style="fill:#fff"></rect><rect x="339.34" y="160.9" width="37.66" height="1.73" transform="translate(-6.78 15.94) rotate(-2.53)" style="fill:#fff"></rect><rect x="379.94" y="159.61" width="14.98" height="1.73" transform="matrix(1, -0.04, 0.04, 1, -6.7, 17.23)" style="fill:#fff"></rect><rect x="339.54" y="165.54" width="30.35" height="1.73" transform="translate(-6.99 15.79) rotate(-2.53)" style="fill:#fff"></rect><path d="M307,470.26c-2.4.76-72.61-.76-75.18-2.47-1-.64,5-67.14,5-67.14l44.53.85L276.28,446s25.91,12.28,28.53,14.46S309.37,469.52,307,470.26Z" style="fill:#f7a9a0"></path><path d="M307,470.26c-2.41.75-72.62-.76-75.19-2.48-.31-.19-.4-6.94.72-15.74,12.73,2.14,58.18,9.12,61.71,7,2.47-1.45.29-3.71-1.73-5.24,5.8,2.89,11.21,5.67,12.33,6.61C307.41,462.61,309.37,469.52,307,470.26Z" style="fill:#263238"></path><path d="M277.53,435.32l-43.71-.62S242.48,330,242.12,328c-.46-2.58-31.48-124.2-31.48-124.2h41.72s32.91,113.35,34.09,124.28C288.36,345.7,277.53,435.32,277.53,435.32Z" style="fill:#263238"></path><path d="M237.75,424.83c2.58-.18,5.19-.15,7.78-.18s5.19,0,7.78,0c5.18.05,10.37.13,15.55.28,1.42,0,2.83.08,4.25.14s3,.33,4.54.39a.09.09,0,0,1,0,.18c-1.28,0-2.55.2-3.83.24s-2.64.05-4,.05l-7.78,0c-5.18-.05-10.37-.12-15.54-.33-2.93-.12-5.89-.16-8.8-.45A.14.14,0,0,1,237.75,424.83Z" style="fill:#37474f"></path><path d="M219.82,213.61c3.73,13.22,7.14,26.56,10.49,39.88s6.68,26.67,10,40q2.48,10,5,20c1.62,6.5,3.49,13,3.89,19.73s-.46,13.7-1,20.49-1.15,13.65-1.75,20.48c-1.2,13.65-2.34,27.32-3.83,40.95-.18,1.7-.37,3.41-.54,5.11,0,.15-.24.15-.23,0,.91-13.67,1.85-27.32,2.94-41q.81-10.25,1.67-20.48c.56-6.81,1.35-13.65,1.57-20.48s-1.05-13.51-2.71-20.17-3.27-13.05-4.91-19.58q-5-20-10-40c-3.71-14.93-7.41-29.9-10.68-44.93C219.68,213.56,219.8,213.53,219.82,213.61Z" style="fill:#37474f"></path><path d="M210.64,203.79S224,256,233.26,292.7L251,203.79Z" style="fill:#37474f"></path><path d="M254.53,470.43c-2.4.75-72.62-.77-75.18-2.48-1-.63,2.68-67.18,2.68-67.18l43.94.85-2.12,44.53s25.9,12.27,28.52,14.45S256.94,469.68,254.53,470.43Z" style="fill:#f7a9a0"></path><path d="M254.53,470.43c-2.4.74-72.62-.77-75.18-2.48-.31-.2-.24-6.78,0-15.75,12.73,2.13,58.88,9.12,62.42,7,2.47-1.45.28-3.72-1.74-5.25,5.8,2.89,11.22,5.68,12.34,6.61C255,462.77,256.93,469.69,254.53,470.43Z" style="fill:#263238"></path><path d="M251,203.78s-2.35,29.49-7.22,36.9a74.54,74.54,0,0,0-12.1,6s-3,78.92-2.95,83.65c.2,17.73-4.34,104.08-4.34,104.08L180.32,434s4.57-97.64,4.59-104.14c0-6.28,3-45.9,5.66-80.25,0,0-3.92-11-3.49-16.52,1.06-13.44,7.08-29.32,7.08-29.32Z" style="fill:#263238"></path><path d="M235.5,231.83c.17-1.11.33-2.21.5-3.31.31-2,.73-4,1.08-6.05.8-4.57,1.64-9.16,2.66-13.69,0-.11.21-.08.19,0q-.27,2.74-.64,5.48c-.26,1.82-.44,3.65-.7,5.47-.51,3.62-1,7.23-1.63,10.83-.23,1.38-1.1,3.87.9,4.3,1.57.34,2.73-1.21,3.2-2.51a32.56,32.56,0,0,0,1.06-5c.32-1.83.61-3.65.87-5.49.56-4,1.18-8,1.83-12,0-.11.2-.08.2,0a122,122,0,0,1-.89,12.23q-.37,2.92-.87,5.82a20.43,20.43,0,0,1-1.34,5.41,4.38,4.38,0,0,1-3.3,2.65h-.09a.14.14,0,0,1,.06.11c0,.65,0,1.3-.08,1.95s-.19,1.27-.32,1.9a12.32,12.32,0,0,1-.49,1.9,8.48,8.48,0,0,1-.35.88,7.79,7.79,0,0,1-.52.8c-.07.11-.2,0-.21-.07h0c0-.1,0-.21,0-.31s0,0,0-.06h0a5.44,5.44,0,0,1,0-.57c.05-.31.12-.62.19-.92.13-.62.3-1.23.47-1.84s.29-1.22.45-1.83.37-1.24.51-1.88c0,0,0,0,.05-.06a2.88,2.88,0,0,1-2.79-1.74A5,5,0,0,1,235.5,231.83Z" style="fill:#37474f"></path><path d="M228.13,247.68a33.71,33.71,0,0,1,4.14-2.74,42.35,42.35,0,0,1,4.73-2.45c3.19-1.38,6.48-2.33,9.77-3.41.09,0,.16.13.06.17-3.18,1.26-6.24,2.95-9.32,4.45-1.51.75-3,1.45-4.59,2.13s-3.09,1.48-4.67,2.06A.12.12,0,0,1,228.13,247.68Z" style="fill:#37474f"></path><path d="M203.24,223.05c2.24,0,10-.57,12.3-3.14a15.81,15.81,0,0,0,2.87-5.18,50.81,50.81,0,0,0,1.74-6.28c0-.11.18-.07.18,0a24.26,24.26,0,0,1-.91,7.14c-.54,2-1.27,4.17-2.86,5.55a11.16,11.16,0,0,1-6.09,2.22,27.85,27.85,0,0,1-7.24-.1A.12.12,0,1,1,203.24,223.05Z" style="fill:#37474f"></path><path d="M256.29,223.65a7.55,7.55,0,0,1-3-1.79c-1.7-2.56-2.11-10.68-2.25-12.81,0-.11-.06-.07-.06,0,0,2.39.09,4.83.28,7.13a25.72,25.72,0,0,0,.88,5.55c.52,1.45,3.37,2.46,4.12,2.13C256.33,223.87,256.33,223.65,256.29,223.65Z" style="fill:#37474f"></path><path d="M182.27,425.48c2.59-.19,5.2-.15,7.79-.19s5.18,0,7.77,0c5.19.05,10.37.13,15.55.27,1.42,0,2.84.08,4.26.15s3,.33,4.54.39c.11,0,.11.18,0,.18-1.27,0-2.55.2-3.82.24s-2.64,0-4,0c-2.6,0-5.19,0-7.78,0-5.18,0-10.37-.11-15.55-.32-2.92-.12-5.88-.16-8.79-.45A.14.14,0,0,1,182.27,425.48Z" style="fill:#37474f"></path><path d="M187.65,419.74h0a.54.54,0,0,1-.51-.56l10-170.87c-.13-.75-2.94-10.3-3.19-15.17-.26-5.16,5.07-25.24,5.3-26.1a.53.53,0,1,1,1,.28c-.05.21-5.51,20.78-5.25,25.76s3.16,15,3.17,15.1-9.94,171.05-9.94,171.05A.54.54,0,0,1,187.65,419.74Z" style="fill:#37474f"></path><path d="M236,122.9a4.29,4.29,0,0,0-1.45.76c-1.94,1.58-2.39,4.21-2.33,6.56.07,2.52.72,5.19-.06,7.65a4.18,4.18,0,0,1-1.72,2.41,3.86,3.86,0,0,1-3.19.12c-1.11-.34-2.34-1-3.52-.58a3.22,3.22,0,0,0-1.87,2.27c-.72,2.47.79,5,1.09,7.45a13,13,0,0,1-1.39,7.6,12.75,12.75,0,0,1-5.07,5.17,12.57,12.57,0,0,1-3.34,1.29c-1.31.29-2.65.29-4,.52a4.66,4.66,0,0,0-3.24,1.81c-.53.85-.54,4.56,2.2,8.18.19.26-.29.6-.58.41a15.71,15.71,0,0,1-1.63-1.18,17.47,17.47,0,0,1-6.41-14.58,18.24,18.24,0,0,1,2.71-8.38,30,30,0,0,0,2.49-4.28,9.2,9.2,0,0,0,.55-4.29c-.25-2.78-1.17-5.47-.94-8.29a15.44,15.44,0,0,1,2.51-7.06,18.14,18.14,0,0,1,12.87-7.89C224.79,117.91,236.24,122.81,236,122.9Z" style="fill:#263238"></path><path d="M235.79,123a7.08,7.08,0,0,0-2.67,1.81,5.89,5.89,0,0,0-1.23,2.64,16.78,16.78,0,0,0,.42,6.42c.38,2,.67,4.13-.2,6a4.86,4.86,0,0,1-1.68,2.07,3.78,3.78,0,0,1-2.83.43c-1.79-.35-3.93-1.37-5.57-.05s-1.27,3.73-1,5.5c.54,4.33,1.89,9.85-1.71,13.29a15.93,15.93,0,0,1-6.82,3.44c-1.73.48-3.92,1.06-4.72,2.86,0,.06.08.09.11,0,.87-1.88,3.17-2.09,5-2.5a16.88,16.88,0,0,0,6-2.54,8.36,8.36,0,0,0,3.35-5.34,19.49,19.49,0,0,0-.12-6.64c-.17-1.13-.36-2.25-.49-3.39a6.86,6.86,0,0,1,.13-3.09,2.42,2.42,0,0,1,2.35-1.68,12.92,12.92,0,0,1,3.12.59,4.91,4.91,0,0,0,2.79,0,4.52,4.52,0,0,0,1.86-1.34,7,7,0,0,0,1.51-4.86c-.1-2.46-1-4.82-1.06-7.29a7,7,0,0,1,.79-3.68,7.09,7.09,0,0,1,2.9-2.44A.13.13,0,0,0,235.79,123Z" style="fill:#263238"></path><path d="M217.74,117.29a14.82,14.82,0,0,0-11.66,9.16,18.29,18.29,0,0,0-1.29,8.47c.2,2.7.77,5.42.38,8.12-.43,3-2.42,5.22-4,7.65a16.35,16.35,0,0,0-2.51,6.52,17.36,17.36,0,0,0,3.18,12.86c.34.46.71.91,1.1,1.34.05.05.13,0,.08-.08a16.71,16.71,0,0,1-3.92-12.64,16.25,16.25,0,0,1,1.93-6.33c1.33-2.42,3.35-4.41,4.36-7,.95-2.43.72-5.09.42-7.62a24.57,24.57,0,0,1,0-8.25,14.91,14.91,0,0,1,9.9-11.11c5.67-1.72,11.45.44,16.46,3l2,1.06a.07.07,0,0,0,.07-.12C229.25,119.47,223.67,116.64,217.74,117.29Z" style="fill:#263238"></path><path d="M237.73,120.37a2.54,2.54,0,0,0-2.45-.54c-.5.34-1.91,4.79-1.32,5.78s2.57.19,2.57.19Z" style="fill:#F9A158"></path><path d="M252.1,195.15l.34,17.34s-2.33-.33-10-1.48l-1.24-6.42L237,210.3l-42.86-6.51s19.47-46,30.18-54.45c8.51-6.72,16.93-4.77,21.48,1.6,1.16,1.61,11.76,23.88,12.17,32.43C258.33,190.91,252.1,195.15,252.1,195.15Z" style="fill:#F9A158"></path><path d="M232.55,188.6a57.94,57.94,0,0,1,8.9,2.57c1.43.57,2.83,1.21,4.23,1.88.7.33,1.4.64,2.1.95a9.37,9.37,0,0,0,2.29.72.06.06,0,0,1,0,.12,15.37,15.37,0,0,1-2.25-.28,16,16,0,0,1-2.1-.66c-1.46-.56-2.89-1.2-4.35-1.77-2.94-1.17-5.87-2.33-8.88-3.25C232.34,188.83,232.4,188.57,232.55,188.6Z" style="fill:#263238"></path><path d="M224.69,190.79a62.43,62.43,0,0,1,7.62.38c1.27.15,2.51.38,3.76.64l1.78.41c.65.16,1.28.42,1.93.57.07,0,.06.13,0,.12-.62-.12-1.26-.13-1.89-.21l-1.88-.25-3.78-.49c-2.52-.36-5-.68-7.55-.94C224.53,191,224.56,190.8,224.69,190.79Z" style="fill:#263238"></path><path d="M222.84,166.19c3.54,26.58,16.27,60.35,25.41,61.85,10.18,1.67,5.65-34.66,4.36-35.54-1-.66-10.68-14.14-20.4-30.54S222,159.62,222.84,166.19Z" style="fill:#f7a9a0"></path><path d="M252.74,192.38c-1.57-2.23-14.59-23.55-20.43-32.62s-11.14-7.91-10.06,5.89,7.08,40.52,17,54.69c9.55,13.65,15.47,8.53,16.3-4.51C256.21,205.16,252.74,192.38,252.74,192.38Z" style="fill:#F9A158"></path><path d="M255,196.2c-1.89-2.87-3.73-5.77-5.57-8.67s-3.63-5.82-5.45-8.73L238.67,170,236,165.6c-.87-1.49-1.75-3-2.6-4.45.95,1.43,1.87,2.88,2.8,4.32l2.76,4.35,5.46,8.73c1.78,2.93,3.58,5.85,5.35,8.79S253.33,193.22,255,196.2Z" style="fill:#263238"></path><path d="M237.73,167.86a18.54,18.54,0,0,1-1-2.49c-.15-.43-.29-.85-.42-1.28s-.24-.87-.36-1.31a12.47,12.47,0,0,1,1.13,2.47A16.45,16.45,0,0,1,237.73,167.86Z" style="fill:#263238"></path><path d="M248.24,228c7.64.7,15.66-6.52,39.41-25.53,3.28-2.64-8.82-31.83-12.48-29.2-4.6,3.31-21.74,17.16-22.87,18.33C242.81,201.47,243.06,227.51,248.24,228Z" style="fill:#f7a9a0"></path><path d="M268.15,180.68s6.93-9.18,11.74-15c2.68-3.24,7.77-8.37,10.83-9.84,4.57-2.2,25.11-8.5,26.74-3.55,1.48,4.48-16.85,7.64-16.85,7.64s18.21-4.83,19,.89-20.39,6.54-20.39,6.54,18.82-4.54,18.7,1.48c-.09,4.56-19.23,6.38-19.23,6.38s16.2-3.79,16.31.9c.12,5.18-17.44,8-17.44,8-1.73,12-7.45,16.95-11.93,20C284.54,204.87,268.15,180.68,268.15,180.68Z" style="fill:#f7a9a0"></path><path d="M294.2,161.23c2.12-.64,4.26-1.31,6.43-1.77s4.36-.83,6.56-1.08a38.61,38.61,0,0,1,8.66-.16c-5.16-.12-12.94,1.39-15.11,1.84s-4.36.8-6.52,1.25C294.16,161.32,294.15,161.25,294.2,161.23Z" style="fill:#263238"></path><path d="M295.7,169.09c2.74-.71,5.44-1.51,8.21-2.09s5.43-.9,8.22-1.29c.22,0,.16.1-.05.14-2.78.5-5.3,1.18-8.07,1.71s-5.56,1-8.3,1.6C295.67,169.17,295.66,169.1,295.7,169.09Z" style="fill:#263238"></path><path d="M295.78,176.07a62.32,62.32,0,0,1,12.79-2.24c.22,0,.13.13-.09.16-4.27.67-7.62,1.16-12.66,2.22C295.74,176.23,295.69,176.09,295.78,176.07Z" style="fill:#263238"></path><path d="M272,174.92l5.34,38.79S255.74,229.66,248,228.26c-5.06-.93-6.15-27.5,5.17-37.62Z" style="fill:#F9A158"></path><path d="M245.25,207.4a26,26,0,0,1,8-16.79c.06-.05.15,0,.1.09-4.38,4.89-7.48,13.86-7.94,16.72A.06.06,0,0,1,245.25,207.4Z" style="fill:#263238"></path><path d="M269,216c-.82-4.24-1.41-8.51-2-12.78s-1.17-8.56-1.64-12.85c-.26-2.42-.54-4.85-.73-7.28,0-.06.1-.09.12,0,.81,4.22,1.42,8.5,2,12.76s1.17,8.56,1.69,12.84c.3,2.42.55,4.85.73,7.28C269.2,216.09,269,216.14,269,216Z" style="fill:#263238"></path><path d="M271.72,174.64a39.06,39.06,0,0,0-4,3c-1.3,1.06-2.58,2.15-3.86,3.24-2.53,2.18-8.15,6.5-12.07,11.16,0,.05.43,0,.47-.06,1.75-2.31,18.33-15.5,19.52-16.73.05.13.09.25.15.37s.18.08.19,0c0-.26,0-.49,0-.75A.25.25,0,0,0,271.72,174.64Z" style="fill:#263238"></path><path d="M221.53,174.34c3.88,12.1,14.47,50.34,26.66,54-13.5-3.36-23.85-41.2-26.66-54Z" style="fill:#263238"></path><path d="M221.13,176.61a25.2,25.2,0,0,1,2.32,4.79,9.65,9.65,0,0,1-2.32-4.79Z" style="fill:#263238"></path><path d="M227.62,146.92s13.61,18.61,18.89,17.64-.69-13.62-.69-13.62S239.76,141.08,227.62,146.92Z" style="fill:#f7a9a0"></path><path d="M232.59,146c0,1.12,3.59,9.13,8.5,10,1.6.27,3.45-8.4,3.45-8.4l.29-.61,3.95-8.52-9.05-9.05-1.33-1.22s-.93,2.4-2.05,5.4c0,.14-.11.28-.16.43s-.14.33-.19.49c-.18.44-.35.9-.52,1.36s-.25.68-.37,1.06-.25.73-.38,1.09A60.12,60.12,0,0,0,232.59,146Z" style="fill:#f7a9a0"></path><path d="M236.35,133.53a18.83,18.83,0,0,0,8.48,13.39l3.95-8.52-9.05-9.05-1.33-1.22S237.47,130.53,236.35,133.53Z" style="fill:#263238"></path><path d="M263,122.49c2.2,16.35-7.34,19.51-10.87,20-3.2.42-14.15,1.47-18-14.56s3-22.22,10.3-23.58S260.77,106.15,263,122.49Z" style="fill:#f7a9a0"></path><path d="M260.23,121.42a10.82,10.82,0,0,1-1.12-.17,1.78,1.78,0,0,1-1.12-.38.59.59,0,0,1,0-.72,1.44,1.44,0,0,1,1.4-.43,2.16,2.16,0,0,1,1.39.67A.63.63,0,0,1,260.23,121.42Z" style="fill:#263238"></path><path d="M249.21,121.71a10.52,10.52,0,0,0,1.1-.3,1.85,1.85,0,0,0,1.06-.53.59.59,0,0,0-.05-.71,1.45,1.45,0,0,0-1.45-.25,2.11,2.11,0,0,0-1.29.84A.62.62,0,0,0,249.21,121.71Z" style="fill:#263238"></path><path d="M251.84,124.73s-.09.06-.08.1c.13,1.12.1,2.42-.88,2.88,0,0,0,.07,0,.06C252.11,127.49,252.14,125.76,251.84,124.73Z" style="fill:#263238"></path><path d="M250.74,123.64c-1.81,0-1.64,3.64,0,3.63S252.25,123.63,250.74,123.64Z" style="fill:#263238"></path><path d="M250,123.87c-.3.22-.59.6-1,.65s-.79-.3-1.1-.65c0,0-.06,0-.06,0,0,.69.32,1.39,1.07,1.46s1.14-.58,1.28-1.28C250.28,124,250.16,123.78,250,123.87Z" style="fill:#263238"></path><path d="M258,123.89s.09,0,.09.1c0,1.12.21,2.41,1.24,2.74,0,0,0,.07,0,.06C258.12,126.67,257.87,125,258,123.89Z" style="fill:#263238"></path><path d="M259,122.68c1.8-.21,2.08,3.41.42,3.6S257.49,122.86,259,122.68Z" style="fill:#263238"></path><path d="M259.77,122.86c.3.17.61.49,1,.49s.66-.42.88-.81c0-.05.06,0,.06,0,.08.69-.09,1.43-.75,1.61s-1.08-.39-1.3-1.06C259.57,123,259.65,122.79,259.77,122.86Z" style="fill:#263238"></path><path d="M252.25,134.2c.27.26.54.62.95.66a3,3,0,0,0,1.21-.29s.07,0,.05.06a1.52,1.52,0,0,1-1.43.61,1.18,1.18,0,0,1-.88-1C252.13,134.19,252.22,134.16,252.25,134.2Z" style="fill:#263238"></path><path d="M256.7,129.87s.33,1.66.38,2.45c0,.07-.19.12-.46.15h0a3.76,3.76,0,0,1-3.73-1.18c-.05-.07,0-.16.12-.12a5.6,5.6,0,0,0,3.48.78c0-.22-.66-2.82-.54-2.84a7,7,0,0,1,1.82.3c-.59-3.48-1.73-6.83-2.27-10.31a.11.11,0,0,1,.21-.06,57.4,57.4,0,0,1,2.91,11C258.68,130.48,257,130,256.7,129.87Z" style="fill:#263238"></path><path d="M256.53,132.18a4.5,4.5,0,0,1-1.64,1.62,2.05,2.05,0,0,1-1.23.23c-.92-.13-1-.95-1-1.67a4.74,4.74,0,0,1,.27-1.12A5.84,5.84,0,0,0,256.53,132.18Z" style="fill:#263238"></path><path d="M254.89,133.8a2.05,2.05,0,0,1-1.23.23c-.92-.13-1-.95-1-1.67A2.13,2.13,0,0,1,254.89,133.8Z" style="fill:#ff9abb"></path><path d="M234.12,128.81a6.83,6.83,0,0,0,3.9-5.5,17.73,17.73,0,0,0,7.33-5.73c-.12.34-.95,2.79-1.42,4,10.52-1.81,13.89-9.79,13.89-9.79a18,18,0,0,1,4.47,6.72s.17-6.43-3.07-10.79a10.37,10.37,0,0,0-9.51-4.42,14.83,14.83,0,0,0-14.55,4.24C228.23,114.89,234.12,128.81,234.12,128.81Z" style="fill:#263238"></path><path d="M251.93,120a19.34,19.34,0,0,1-5.41,1.89s0,0,0,0a16.42,16.42,0,0,0,7.77-4.54,16.12,16.12,0,0,0,2.31-3.13,10.79,10.79,0,0,0,1.45-4,.08.08,0,1,1,.16,0,12.67,12.67,0,0,1-.89,4.12,11.65,11.65,0,0,1-2.38,3.44,13.62,13.62,0,0,1-3,2.2" style="fill:#263238"></path><path d="M236.84,128.81s-3.84-5-6.11-3.58.78,8.72,3.57,9.61a2.79,2.79,0,0,0,3.66-1.67Z" style="fill:#f7a9a0"></path><path d="M231.66,127.31s0,.06,0,.08c2,.68,3.06,2.42,3.85,4.23a1.54,1.54,0,0,0-2.32-.31s0,.11.06.1a1.69,1.69,0,0,1,1.91.51,8.63,8.63,0,0,1,1,1.48c.09.17.4.06.32-.13v-.05C236.36,130.77,234.3,127.43,231.66,127.31Z" style="fill:#263238"></path></g><g id="freepik--speech-bubble--inject-388"><path d="M648.17,84A24.13,24.13,0,0,1,607.83,99.3l-12.08,1.78,6-10.45A24.15,24.15,0,1,1,648.17,84Z" style="fill:#fff"></path><path d="M648.17,84a24.24,24.24,0,0,1-4.87,12.24,26.18,26.18,0,0,1-2.19,2.52,27.71,27.71,0,0,1-2.55,2.16,23.87,23.87,0,0,1-5.82,3.24,24.27,24.27,0,0,1-6.5,1.55,23.56,23.56,0,0,1-3.36.06,20.78,20.78,0,0,1-3.34-.34,24.36,24.36,0,0,1-11.95-5.9l.29.09-12.07,1.85-.88.13.45-.77,6-10.46,0,.41a24.42,24.42,0,0,1,1.48-21.52,24.83,24.83,0,0,1,7.57-8.06,24.53,24.53,0,0,1,21.22-2.86A24.92,24.92,0,0,1,641,64.08,24.29,24.29,0,0,1,648.17,84Zm0,0a23.89,23.89,0,0,0-27.38-26.14,23.87,23.87,0,0,0-10,3.94,25,25,0,0,0-7.22,7.88,23.92,23.92,0,0,0-3.07,10.22,24.23,24.23,0,0,0,1.7,10.52l.09.22-.11.2-6.08,10.42-.44-.64L607.78,99l.16,0,.12.11a23.77,23.77,0,0,0,11.57,6,20,20,0,0,0,3.27.4,22.86,22.86,0,0,0,3.31,0,24.26,24.26,0,0,0,6.45-1.42,22.75,22.75,0,0,0,5.82-3.14A27.4,27.4,0,0,0,641,98.71a26.22,26.22,0,0,0,2.2-2.5A24.23,24.23,0,0,0,648.17,84Z" style="fill:#263238"></path><path d="M611.72,81.5a2.22,2.22,0,1,0,2.22-2.23A2.22,2.22,0,0,0,611.72,81.5Z" style="fill:#263238"></path><path d="M622.38,81.5a2.22,2.22,0,1,0,2.22-2.23A2.22,2.22,0,0,0,622.38,81.5Z" style="fill:#263238"></path><path d="M633,81.5a2.22,2.22,0,1,0,2.22-2.23A2.22,2.22,0,0,0,633,81.5Z" style="fill:#263238"></path><path d="M314.76,89.48a24.14,24.14,0,0,1-40.35,15.27l-12.08,1.78,6.05-10.45a23.9,23.9,0,0,1-1.66-11.63,24.15,24.15,0,1,1,48,5Z" style="fill:#fff"></path><path d="M314.76,89.48a24.32,24.32,0,0,1-4.87,12.24,21.92,21.92,0,0,1-4.74,4.68,24.52,24.52,0,0,1-12.33,4.79,23.42,23.42,0,0,1-3.35.06,20.78,20.78,0,0,1-3.34-.34,24.36,24.36,0,0,1-11.95-5.9l.28.09L262.39,107l-.87.13.44-.77,6-10.46,0,.41a24.45,24.45,0,0,1,1.49-21.52,24.3,24.3,0,0,1,38.1-5.21A24.33,24.33,0,0,1,314.76,89.48Zm0,0a23.9,23.9,0,0,0-27.39-26.14,23.83,23.83,0,0,0-10,3.94,25,25,0,0,0-7.22,7.88,23.79,23.79,0,0,0-1.37,20.74l.09.22-.12.2-6.08,10.42-.43-.64,12.09-1.69.17,0,.12.12a23.78,23.78,0,0,0,11.56,6,20.13,20.13,0,0,0,3.28.4,22.72,22.72,0,0,0,3.3,0,24.18,24.18,0,0,0,6.45-1.42,22.65,22.65,0,0,0,5.83-3.14,28.76,28.76,0,0,0,2.55-2.13,24.8,24.8,0,0,0,2.19-2.5A24.16,24.16,0,0,0,314.76,89.48Z" style="fill:#263238"></path><path d="M278.3,87a2.23,2.23,0,1,0,2.23-2.23A2.23,2.23,0,0,0,278.3,87Z" style="fill:#263238"></path><path d="M289,87a2.22,2.22,0,1,0,2.22-2.23A2.22,2.22,0,0,0,289,87Z" style="fill:#263238"></path><path d="M299.63,87a2.22,2.22,0,1,0,2.22-2.23A2.22,2.22,0,0,0,299.63,87Z" style="fill:#263238"></path></g></svg>