<svg xmlns="http://www.w3.org/2000/svg" viewBox="0 0 500 500"><g id="freepik--plant-2--inject-91"><path d="M376.38,422.14s-1.26-6.77-5.77-11.28-10-5-14.05-6.27a29,29,0,0,1-8-4.52s4.76,11,7.77,14.8,7,6.27,9.53,6.77S376.38,422.14,376.38,422.14Z" style="fill:#B4C49D;stroke:#263238;stroke-miterlimit:10"></path><path d="M383.9,381s0-6.27,2.51-9.28,15.8-7.28,15.8-7.28-3.76,7.78-9,12S383.9,381,383.9,381Z" style="fill:#B4C49D;stroke:#263238;stroke-miterlimit:10"></path><path d="M380.39,386.28s-3-.25-4-8.28,3.76-22.83,3.76-22.83,5,12,4.26,19.57S382.9,382,380.39,386.28Z" style="fill:#B4C49D;stroke:#263238;stroke-miterlimit:10"></path><path d="M384.4,407.85s.5-10.54,7.28-14.3A166.59,166.59,0,0,1,408,386s-2.76,9.28-6.52,13.29-7.53,8.78-11,10A5.83,5.83,0,0,1,384.4,407.85Z" style="fill:#B4C49D;stroke:#263238;stroke-miterlimit:10"></path><path d="M374.62,390.29A33,33,0,0,0,364.34,377c-7.53-5.77-11.79-6-11.79-6s1.75,10.53,7.77,15.8S374.62,390.29,374.62,390.29Z" style="fill:#B4C49D;stroke:#263238;stroke-miterlimit:10"></path><line x1="380.64" y1="439.95" x2="380.64" y2="378.75" style="fill:none;stroke:#263238;stroke-miterlimit:10"></line><line x1="380.89" y1="425.91" x2="367.85" y2="414.12" style="fill:none;stroke:#263238;stroke-miterlimit:10"></line><line x1="381.14" y1="411.61" x2="395.19" y2="398.82" style="fill:none;stroke:#263238;stroke-miterlimit:10"></line><line x1="380.64" y1="395.05" x2="364.34" y2="383.27" style="fill:none;stroke:#263238;stroke-miterlimit:10"></line><line x1="381.14" y1="383.77" x2="389.42" y2="375.74" style="fill:none;stroke:#263238;stroke-miterlimit:10"></line><path d="M359.19,445.73s17.82-8.41,21.54-8.66S402.51,446,402.51,446Z" style="fill:#263238;stroke:#263238;stroke-miterlimit:10"></path></g><g id="freepik--plant-1--inject-91"><path d="M114.73,422.14s-1.25-6.77-5.77-11.28-10-5-14-6.27a29,29,0,0,1-8-4.52s4.77,11,7.78,14.8,7,6.27,9.53,6.77S114.73,422.14,114.73,422.14Z" style="fill:#B4C49D;stroke:#263238;stroke-miterlimit:10"></path><path d="M122.26,381s0-6.27,2.5-9.28,15.81-7.28,15.81-7.28-3.77,7.78-9,12S122.26,381,122.26,381Z" style="fill:#B4C49D;stroke:#263238;stroke-miterlimit:10"></path><path d="M118.74,386.28s-3-.25-4-8.28,3.76-22.83,3.76-22.83,5,12,4.27,19.57S121.25,382,118.74,386.28Z" style="fill:#B4C49D;stroke:#263238;stroke-miterlimit:10"></path><path d="M122.76,407.85s.5-10.54,7.27-14.3A166.27,166.27,0,0,1,146.34,386s-2.76,9.28-6.53,13.29-7.52,8.78-11,10A5.83,5.83,0,0,1,122.76,407.85Z" style="fill:#B4C49D;stroke:#263238;stroke-miterlimit:10"></path><path d="M113,390.29A32.94,32.94,0,0,0,102.69,377c-7.52-5.77-11.79-6-11.79-6s1.76,10.53,7.78,15.8S113,390.29,113,390.29Z" style="fill:#B4C49D;stroke:#263238;stroke-miterlimit:10"></path><line x1="119" y1="439.95" x2="119" y2="378.75" style="fill:none;stroke:#263238;stroke-miterlimit:10"></line><line x1="119.25" y1="425.91" x2="106.2" y2="414.12" style="fill:none;stroke:#263238;stroke-miterlimit:10"></line><line x1="119.5" y1="411.61" x2="133.54" y2="398.82" style="fill:none;stroke:#263238;stroke-miterlimit:10"></line><line x1="119" y1="395.05" x2="102.69" y2="383.27" style="fill:none;stroke:#263238;stroke-miterlimit:10"></line><line x1="119.5" y1="383.77" x2="127.77" y2="375.74" style="fill:none;stroke:#263238;stroke-miterlimit:10"></line><path d="M97.54,445.73s17.83-8.41,21.54-8.66S140.87,446,140.87,446Z" style="fill:#263238;stroke:#263238;stroke-miterlimit:10"></path></g><g id="freepik--Floor--inject-91"><line x1="450.65" y1="445.95" x2="43.84" y2="445.95" style="fill:none;stroke:#263238;stroke-miterlimit:10"></line></g><g id="freepik--Clouds--inject-91"><path d="M173.31,73.1S162,59.83,150.75,59.83s-15.26,6.63-19.24,8.62-13.27-3.31-20.57-4-11.94,8-14.6,9.29-8.62-2.65-15.26,0-6.63,6-9.29,6-8.62-3.31-13.27-3.31-11.94,6.63-11.94,6.63H204.49s-3.31-6.63-12.6-8.62S182.6,76.42,173.31,73.1Z" style="fill:none;stroke:#263238;stroke-miterlimit:10"></path><path d="M443.35,168.64s-7.09-8.34-14.18-8.34-9.59,4.17-12.09,5.42-8.34-2.08-12.93-2.5-7.51,5-9.18,5.84-5.42-1.67-9.59,0-4.17,3.75-5.84,3.75-5.42-2.08-8.34-2.08-7.5,4.17-7.5,4.17H463a11.63,11.63,0,0,0-7.92-5.42C449.19,168.23,449.19,170.73,443.35,168.64Z" style="fill:none;stroke:#263238;stroke-miterlimit:10"></path><path d="M137,170.92s-4.51-5.3-9-5.3-6.1,2.65-7.69,3.45-5.3-1.33-8.21-1.59-4.77,3.18-5.83,3.71-3.45-1.06-6.1,0-2.65,2.38-3.71,2.38-3.44-1.32-5.3-1.32-4.77,2.65-4.77,2.65h63.07a7.4,7.4,0,0,0-5-3.45C140.68,170.66,140.68,172.25,137,170.92Z" style="fill:none;stroke:#263238;stroke-miterlimit:10"></path></g></svg>
