<svg xmlns="http://www.w3.org/2000/svg" viewBox="0 0 500 500"><g id="freepik--Clouds--inject-4"><path id="freepik--Cloud--inject-4" d="M404.2,413.05a17.73,17.73,0,0,0-6-1.1c-1.94-.16-2.55-.54-2.92-1a14.3,14.3,0,0,0-17.15-5.07c-1.14-4.64-6.75-8.66-12.93-7.31.21-6-7.49-12.5-14.4-14-6.64-1.41-12.42-.82-16.2,3.54-4.05-7.91-19.93-10.14-28.52-5.95-4.94,2.4-9.14,4.87-11.19,9.4a19,19,0,0,0-1.86,9c-3.35-2.95-10.05-3.75-14.52-2-4.82,1.87-5.19,5.5-5.43,9.2a16.92,16.92,0,0,0-8.78-.16c-3,.9-4.79,3.29-4.37,5.21-2.4-.13-8.13,1.81-7.47,4.35.74,2.85,7.28,2.56,9.72,2.47a44.73,44.73,0,0,0,6.84-1.07,10.43,10.43,0,0,0,3.55.67c4.17,0,5.93-1.81,6.6-3.36,2,4.28,9.26,7.54,14.38,8.85,9.62,2.46,23.25,1,29.18-6.24a10.77,10.77,0,0,0,2.86,3.5,16.69,16.69,0,0,0,8.91,3.61c4,.37,14.57.87,17.56-5.41,2.11,4.18,11.56,6.08,18.74,5.06a29.26,29.26,0,0,0,8.05-2.43,48.65,48.65,0,0,0,4.62-2.77c1.42-.85,2.06-.84,3.94-.27,4.93,1.49,10.66,2.09,15.69,0C407.13,418.12,408,414.76,404.2,413.05Z" style="fill:#f5f5f5"></path><path id="freepik--cloud--inject-4" d="M351,349.36a11.73,11.73,0,0,1,3.9-.72c1.26-.1,1.66-.35,1.9-.62a9.32,9.32,0,0,1,11.18-3.3c.74-3,4.4-5.65,8.43-4.77-.14-3.93,4.88-8.15,9.38-9.11,4.33-.92,8.09-.53,10.56,2.31,2.64-5.15,13-6.61,18.59-3.88,3.22,1.57,5.67,3.32,7.29,6.13a7.77,7.77,0,0,1,1.16,4.45c5.23-5.76,15.27.63,17,6.5a6.82,6.82,0,0,1,10.13,3.37,13.82,13.82,0,0,1,6.93.49,2.29,2.29,0,0,1,1.48,1.07,1.71,1.71,0,0,1-.56,1.89c-1.41,1.17-4,1.64-7.67,1.45-.66.3-1.66.79-2.3,1.16a12.21,12.21,0,0,1-4.93,1.33c-4.81.06-8.82-.84-11.05-3.22a13.06,13.06,0,0,1-16.7,2.65,1.76,1.76,0,0,0-1.24-.44,1.81,1.81,0,0,0-.58.27c-3.56,2.22-10.37,2.38-13.43-.28a18.51,18.51,0,0,1-8.42,1.54c-2.64-.21-5.86-1-7.11-3.59-1.38,2.72-7.53,4-12.22,3.3a19.54,19.54,0,0,1-5.24-1.58,32,32,0,0,1-3-1.81,2.52,2.52,0,0,0-2.57-.18c-3.22,1-6.95,1.37-10.23,0C349.09,352.67,348.54,350.48,351,349.36Z" style="fill:#f5f5f5"></path><path id="freepik--cloud--inject-4" d="M156.05,270.69a13.42,13.42,0,0,0-4.5-.83c-1.45-.11-1.91-.4-2.19-.72a10.75,10.75,0,0,0-12.89-3.81c-.86-3.48-5.07-6.51-9.72-5.49.16-4.53-5.62-9.39-10.82-10.5-5-1.06-9.33-.62-12.17,2.66-3-5.94-15-7.62-21.43-4.47-3.71,1.81-6.86,3.66-8.4,7.06a14.2,14.2,0,0,0-1.4,6.77c-2.52-2.22-7.56-2.82-10.92-1.52-3.62,1.4-3.9,4.13-4.07,6.91a12.83,12.83,0,0,0-6.6-.12c-2.28.68-3.6,2.47-3.29,3.92-1.8-.1-6.11,1.36-5.61,3.27.55,2.14,5.47,1.92,7.3,1.85a33.87,33.87,0,0,0,5.14-.8,8,8,0,0,0,2.67.5c3.13,0,4.46-1.36,5-2.52,1.53,3.21,7,5.66,10.8,6.64,7.24,1.86,17.48.73,21.93-4.68A8.13,8.13,0,0,0,97,277.44a12.54,12.54,0,0,0,6.69,2.71c3,.28,10.94.66,13.19-4.07,1.59,3.14,8.69,4.57,14.09,3.81a22.17,22.17,0,0,0,6-1.83,36.36,36.36,0,0,0,3.48-2.08c1.06-.64,1.54-.63,3-.2,3.7,1.11,8,1.57,11.78,0C158.25,274.5,158.88,272,156.05,270.69Z" style="fill:#f5f5f5"></path><path id="freepik--cloud--inject-4" d="M167.85,119a12.89,12.89,0,0,0-4.37-.8c-1.42-.11-1.87-.39-2.14-.7a10.43,10.43,0,0,0-12.52-3.7c-.83-3.39-4.92-6.33-9.44-5.34.16-4.4-5.46-9.12-10.51-10.2-4.84-1-9.06-.6-11.82,2.59-3-5.78-14.55-7.41-20.82-4.35-3.61,1.76-6.67,3.56-8.17,6.87a13.75,13.75,0,0,0-1.36,6.57c-2.44-2.16-7.34-2.74-10.6-1.48-3.52,1.36-3.79,4-4,6.72a12.35,12.35,0,0,0-6.41-.12c-2.22.66-3.5,2.4-3.19,3.81-1.76-.1-5.94,1.32-5.46,3.17.54,2.08,5.32,1.87,7.1,1.8a33.17,33.17,0,0,0,5-.78,7.62,7.62,0,0,0,2.6.49c3,0,4.32-1.32,4.81-2.45,1.48,3.12,6.77,5.5,10.5,6.46,7,1.8,17,.7,21.3-4.55a7.86,7.86,0,0,0,2.09,2.55,12.2,12.2,0,0,0,6.51,2.63c2.88.27,10.63.64,12.81-4,1.55,3,8.44,4.44,13.69,3.7a21.72,21.72,0,0,0,5.87-1.77,35,35,0,0,0,3.37-2c1-.62,1.5-.61,2.88-.2,3.6,1.09,7.78,1.53,11.45,0C170,122.66,170.6,120.21,167.85,119Z" style="fill:#f5f5f5"></path><path id="freepik--cloud--inject-4" d="M369.53,74a15,15,0,0,0-5-.92c-1.62-.12-2.13-.44-2.44-.79a11.9,11.9,0,0,0-14.3-4.23c-.95-3.87-5.63-7.22-10.78-6.09.18-5-6.24-10.43-12-11.66-5.52-1.17-10.34-.68-13.5,3-3.38-6.6-16.62-8.46-23.78-5-4.12,2-7.62,4.07-9.32,7.84a15.84,15.84,0,0,0-1.56,7.51c-2.79-2.46-8.38-3.13-12.11-1.69-4,1.56-4.32,4.59-4.52,7.67a14.08,14.08,0,0,0-7.32-.13c-2.53.75-4,2.74-3.65,4.35-2-.11-6.77,1.51-6.23,3.62.62,2.38,6.07,2.14,8.11,2.06a37.69,37.69,0,0,0,5.7-.89,8.81,8.81,0,0,0,3,.56c3.48,0,4.95-1.51,5.5-2.81,1.7,3.57,7.73,6.29,12,7.38,8,2.06,19.39.8,24.33-5.2A9.05,9.05,0,0,0,304,81.5a14,14,0,0,0,7.43,3c3.3.31,12.14.73,14.64-4.51,1.76,3.48,9.64,5.07,15.63,4.22a24.58,24.58,0,0,0,6.7-2,38.61,38.61,0,0,0,3.86-2.31c1.18-.71,1.71-.7,3.29-.22,4.11,1.24,8.88,1.74,13.07,0C372,78.24,372.67,75.44,369.53,74Z" style="fill:#f5f5f5"></path></g><g id="freepik--lines-2--inject-4"><path id="freepik--Lines--inject-4" d="M129.93,413.38a1.36,1.36,0,0,0-.66-.87l-65-35.58L128,415.24a1.36,1.36,0,0,0,2-1.52Zm48.48-73.95-42.76-23.11L177,341.78a1.37,1.37,0,0,0,1,.18h0A1.35,1.35,0,0,0,178.41,339.43Zm-18.73,11.43-80.1-44.54,78.55,47.05a1.36,1.36,0,0,0,1.57-.14l.19-.15A1.36,1.36,0,0,0,159.68,350.86Zm-27.15,39.67a1.35,1.35,0,0,0,2-.79l.42-1.37h0L23.88,326Zm11.89-23.07L85.58,335.23l57.31,34.83a1.36,1.36,0,0,0,1.82-.41,1.88,1.88,0,0,1,.16-.23A1.36,1.36,0,0,0,144.42,367.46Z" style="fill:#f5f5f5"></path></g><g id="freepik--clock-1--inject-4"><g id="freepik--clock--inject-4"><path d="M276.26,200.08c-14.18-3.6-29.56,2.15-52.47-10.73-19.25-10.83-35.76-35.61-39.68-19.92C182.76,177,194.66,195.27,201.6,201c-15.69-7-20-4.4-14.43,7.35,7.19,15.16,24.27,26.21,24.27,26.21s-11.61,2.63-1.53,12.47c13.31,13,39.4,11.92,39.4,11.92s-20.11,5.52-9.66,10.67a27.27,27.27,0,0,0,9.72,2.12c32.55,2.16,58.06-35.4,44.29-60.61C289.9,204.23,281.88,201.51,276.26,200.08Z" style="fill:#FFFFFF"></path><path d="M276.26,200.08c-14.18-3.6-29.56,2.15-52.47-10.73-19.25-10.83-35.76-35.61-39.68-19.92C182.76,177,194.66,195.27,201.6,201c-15.69-7-20-4.4-14.43,7.35,7.19,15.16,24.27,26.21,24.27,26.21s-11.61,2.63-1.53,12.47c13.31,13,39.4,11.92,39.4,11.92s-20.11,5.52-9.66,10.67a27.27,27.27,0,0,0,9.72,2.12c32.55,2.16,58.06-35.4,44.29-60.61C289.9,204.23,281.88,201.51,276.26,200.08Z" style="fill:#fff;opacity:0.65"></path><path d="M279.65,213.18c-8.86-3.22-18.26-4.61-27.33-7.14-12.1-3.38-23.53-8.76-34.89-14.12l-8.07-5.63c-2.43,4.32-.94,10.57,1.6,14.82s6.58,7.38,10.75,10c-2.07,2.22-2.07,5.83-.65,8.51s4,4.59,6.61,6.09a38.55,38.55,0,0,0,12.57,4.46c-3.38,1.19-3.09,4.18-2.78,5.54a10.5,10.5,0,0,0,5,6.36c3.12,1.84,6.83,2.38,10.44,2.77a68.64,68.64,0,0,0,11.19-.09c-1.23,1.84.06,4.42,1.88,5.67,5.23,3.62,12.51,3.42,18.36,1.59a29.28,29.28,0,0,0,6.22-2.81c4.81-7.66,7.4-16.42,6.9-24.84C292.73,219.23,286.28,215.6,279.65,213.18Z" style="fill:#FFFFFF;opacity:0.4"></path><path d="M267.22,199.9a223.21,223.21,0,0,1-26.87-5.46c-8.79-2.38-16.91-5.88-25.36-9.13a6.28,6.28,0,0,0-3.62-.58c-1.88.46-2.77,2.59-2.87,4.52a16.62,16.62,0,0,0,2.35,8.51A27.63,27.63,0,0,0,226.5,209.2a5.66,5.66,0,0,0-3.67,5.78c.39,3.92,3.11,5.89,5.33,7.31,5.59,3.58,13.07,5,19.67,5.69-2.52,1.07-5.34,2.45-6.09,5.09-1.7,6,6.24,7.94,10.42,8.72,5.59,1,11.35.6,17,.15-1.7,1.23-1.31,4.07.23,5.5,4.73,4.41,15.18,2.06,19.78-1.64,6.28-5.07,9.08-12.62,8.18-22.54-1.4-7-6.25-14.81-12.34-18.6-5.08-3.16-11.27-3.84-17.2-4.68Z" style="fill:#FFFFFF"></path><path d="M267.22,199.9a223.21,223.21,0,0,1-26.87-5.46c-8.79-2.38-16.91-5.88-25.36-9.13a6.28,6.28,0,0,0-3.62-.58c-1.88.46-2.77,2.59-2.87,4.52a16.62,16.62,0,0,0,2.35,8.51A27.63,27.63,0,0,0,226.5,209.2a5.66,5.66,0,0,0-3.67,5.78c.39,3.92,3.11,5.89,5.33,7.31,5.59,3.58,13.07,5,19.67,5.69-2.52,1.07-5.34,2.45-6.09,5.09-1.7,6,6.24,7.94,10.42,8.72,5.59,1,11.35.6,17,.15-1.7,1.23-1.31,4.07.23,5.5,4.73,4.41,15.18,2.06,19.78-1.64,6.28-5.07,9.08-12.62,8.18-22.54-1.4-7-6.25-14.81-12.34-18.6-5.08-3.16-11.27-3.84-17.2-4.68Z" style="fill:#fff;opacity:0.75"></path><path d="M293.66,211.12c-3.76-6.89-11.78-9.61-17.4-11-14.18-3.6-29.56,2.15-52.47-10.73-14-7.85-26.48-23-33.8-24.81l.24,2.61c6.93,2.53,12.1,11.29,22.84,20.5s24.39,15.12,43.8,16.8,29.13,0,36.55,11.27c1.18,1.79,2.08,2.15,2.76,1.48A30.75,30.75,0,0,0,293.66,211.12Z" style="fill:#FFFFFF;opacity:0.4"></path><path d="M297.33,223.26c-.45-11.51-7.35-25.92-26.87-26.07-26.17-.21-45-7.34-65.52-26.4-10-9.27-20.94-10.12-20.92.44.7-6.17,8.14-6,16.49,2.73,9.66,10.11,20.57,20.7,42.84,25.89s30.47,2,38.81,5.59C288.46,208.15,294.08,215.11,297.33,223.26Z" style="fill:#FFFFFF"></path><path d="M297.33,223.26c-.45-11.51-7.35-25.92-26.87-26.07-26.17-.21-45-7.34-65.52-26.4-10-9.27-20.94-10.12-20.92.44.7-6.17,8.14-6,16.49,2.73,9.66,10.11,20.57,20.7,42.84,25.89s30.47,2,38.81,5.59C288.46,208.15,294.08,215.11,297.33,223.26Z" style="fill:#fff;opacity:0.9"></path><path d="M377.25,152c6.12-12.43,19.68-19.95,24.51-44.41,4.05-20.56-3.59-47.79,10.07-40.9,6.22,3.68,12.05,23.58,11.89,32.12,4.65-15.6,9.12-17.13,14.13-5.84,6.46,14.55,3.9,33.69,3.9,33.69s8.13-5.54,8.28,7.83c.19,16-17.15,38.5-17.15,38.5,4.79-4.25,16.14-9.4,12.15,1.55-1.6,4.41-10.22,14.32-27.63,21.95-20.86,9.14-42.45-6.89-42.92-25.13C374.29,164,374.82,157,377.25,152Z" style="fill:#FFFFFF"></path><path d="M377.25,152c6.12-12.43,19.68-19.95,24.51-44.41,4.05-20.56-3.59-47.79,10.07-40.9,6.22,3.68,12.05,23.58,11.89,32.12,4.65-15.6,9.12-17.13,14.13-5.84,6.46,14.55,3.9,33.69,3.9,33.69s8.13-5.54,8.28,7.83c.19,16-17.15,38.5-17.15,38.5,4.79-4.25,16.14-9.4,12.15,1.55-1.6,4.41-10.22,14.32-27.63,21.95-20.86,9.14-42.45-6.89-42.92-25.13C374.29,164,374.82,157,377.25,152Z" style="fill:#fff;opacity:0.65"></path><path d="M384.57,162.59c3.12-8.37,7.89-16,11.64-24.1,5-10.8,8.16-22.36,11.29-33.85l.92-9.3c4.59.93,8.16,5.87,9.65,10.32s1.25,9.31.6,14c2.86-.12,5.44,2.11,6.5,4.79a15.35,15.35,0,0,1,.31,8.53A36.56,36.56,0,0,1,421,144.75c2.93-1.69,4.89.36,5.68,1.43a9.92,9.92,0,0,1,1.51,7.5c-.59,3.39-2.48,6.39-4.41,9.23a64.45,64.45,0,0,1-6.94,8c2.08.24,3.13,2.77,2.92,4.86-.62,6-5.23,11.12-10.14,14.2a28,28,0,0,1-5.83,2.75c-11.16,2.46-22.74-2.33-22-10.41C380.87,175.75,382.23,168.86,384.57,162.59Z" style="fill:#FFFFFF;opacity:0.4"></path><path d="M382.67,145.42a213.92,213.92,0,0,0,12.58-22.72c3.68-7.8,6.16-15.82,9-23.91a6,6,0,0,1,1.81-3c1.49-1.07,3.55-.39,5,.73a15.89,15.89,0,0,1,4.67,7,26.48,26.48,0,0,1-1.41,18.35,5.31,5.31,0,0,1,6.4.93c2.57,2.71,2.31,5.89,2,8.37-.87,6.23-4.41,12.52-8,17.68,2.32-1.16,5-2.33,7.39-1.24,5.32,2.46,1.87,9.41-.14,12.9-2.69,4.67-6.54,8.54-10.31,12.32,1.92-.47,3.72,1.57,3.8,3.56.26,6.14-7.84,12.21-13.32,13.23-7.49,1.39-16.41,2.66-23-4.13-4.19-5.35-5-17.59-4-24.31.86-5.62,4.17-10.49,7.2-15.28Z" style="fill:#FFFFFF"></path><path d="M382.67,145.42a213.92,213.92,0,0,0,12.58-22.72c3.68-7.8,6.16-15.82,9-23.91a6,6,0,0,1,1.81-3c1.49-1.07,3.55-.39,5,.73a15.89,15.89,0,0,1,4.67,7,26.48,26.48,0,0,1-1.41,18.35,5.31,5.31,0,0,1,6.4.93c2.57,2.71,2.31,5.89,2,8.37-.87,6.23-4.41,12.52-8,17.68,2.32-1.16,5-2.33,7.39-1.24,5.32,2.46,1.87,9.41-.14,12.9-2.69,4.67-6.54,8.54-10.31,12.32,1.92-.47,3.72,1.57,3.8,3.56.26,6.14-7.84,12.21-13.32,13.23-7.49,1.39-16.41,2.66-23-4.13-4.19-5.35-5-17.59-4-24.31.86-5.62,4.17-10.49,7.2-15.28Z" style="fill:#fff;opacity:0.75"></path><path d="M373.45,172.44c-1.37-7.33,1.37-15.47,3.8-20.4,6.12-12.43,19.68-19.95,24.51-44.41,2.94-14.91-.27-33.33,2.95-39.69l1.73,1.78c-2.44,6.56.67,15.71.68,29.14s-2.6,27.8-13.31,42.81-15,19.6-15.88,32.41c-.24,3.34-.28,6.66-1.18,6.74A22.68,22.68,0,0,1,373.45,172.44Z" style="fill:#FFFFFF;opacity:0.4"></path><path d="M379.15,185.48c-8-7.45-12.29-25.25-.42-39.4,15.91-19,21-37.09,21.29-63.51.16-14.63,5.6-21.34,13.16-14.79-4.86-3.32-9,2.67-8.72,14.89.27,14.08-.11,30-7.18,45.54-8.95,19.73-17.26,23.18-19.81,31.4C375.54,165.83,375.29,178.1,379.15,185.48Z" style="fill:#FFFFFF"></path><path d="M379.15,185.48c-8-7.45-12.29-25.25-.42-39.4,15.91-19,21-37.09,21.29-63.51.16-14.63,5.6-21.34,13.16-14.79-4.86-3.32-9,2.67-8.72,14.89.27,14.08-.11,30-7.18,45.54-8.95,19.73-17.26,23.18-19.81,31.4C375.54,165.83,375.29,178.1,379.15,185.48Z" style="fill:#fff;opacity:0.9"></path><g id="freepik--timer--inject-4"><g id="freepik--clock--inject-4"><g id="freepik--clock--inject-4"><path d="M404.46,170.79l-26.2-15.11c-10.49-6-24.92-5-40.86,4.17-32.07,18.51-58.06,63.54-58.06,100.57,0,18.41,6.42,31.36,16.81,37.48L322.34,313l3.69-9.71a61.8,61.8,0,0,0,16.06-6.66c32.07-18.51,58.07-63.54,58.07-100.57A62,62,0,0,0,397.93,179Z" style="fill:#FFFFFF"></path><path d="M279.84,251.37a87.11,87.11,0,0,0-.5,9.05c0,18.41,6.42,31.36,16.81,37.48L322.34,313l3.69-9.71c1.21-.3,2.43-.66,3.67-1.06l5.49-18.93Z" style="opacity:0.1"></path><ellipse cx="363.6" cy="242.02" rx="82.12" ry="47.41" transform="translate(-27.8 435.89) rotate(-60)" style="fill:#FFFFFF"></ellipse><ellipse cx="363.6" cy="242.02" rx="82.12" ry="47.41" transform="translate(-27.8 435.89) rotate(-60)" style="fill:#fff;opacity:0.30000000000000004"></ellipse><path d="M407.66,186.64c-7.2-12.47-22-13.88-39.49-3.76-29,16.75-53.51,59.18-53.5,92.67,0,8.77,1.68,16.33,4.87,21.85,7.2,12.48,22,13.88,39.49,3.76,29-16.74,53.5-59.18,53.5-92.67,0-8.77-1.68-16.33-4.87-21.85Z" style="fill:#FFFFFF"></path><path d="M408.46,187.1c-8.16-13-24-15-42.26-5.36-30.29,16-54.79,58.44-53.5,92.67.34,9,2.42,16.76,6,22.53,8.16,13,23.95,15,42.26,5.36,30.29-16,54.79-58.44,53.5-92.67-.34-9-2.43-16.76-6-22.53Z" style="fill:#FFFFFF"></path><path d="M355.1,299c-11.66,6.16-22.29,7.56-30.58,4.42a24.77,24.77,0,0,1-5.78-6.46c-3.62-5.77-5.7-13.56-6-22.53-1.29-34.23,23.21-76.66,53.5-92.67,11.65-6.15,22.28-7.56,30.58-4.42a24.82,24.82,0,0,1,5.78,6.47h0c3.61,5.76,5.7,13.56,6,22.52C409.88,240.55,385.39,283,355.1,299Z" style="fill:#fafafa"></path><path d="M360,190.18a2.8,2.8,0,0,0-1.22,2.23v6.29c0,.84.55,1.2,1.22.81a2.85,2.85,0,0,0,1.23-2.24V191C361.26,190.14,360.71,189.78,360,190.18Z" style="fill:#FFFFFF"></path><path d="M401.76,214.27a2.8,2.8,0,0,1-1.32,2.17L395,219.59c-.72.42-1.31.13-1.31-.65a2.84,2.84,0,0,1,1.33-2.18l5.44-3.15C401.18,213.19,401.76,213.48,401.76,214.27Z" style="fill:#FFFFFF"></path><path d="M316.79,265.09a2.82,2.82,0,0,1,1.32-2.18l5.45-3.15c.72-.42,1.31-.12,1.31.66a2.86,2.86,0,0,1-1.33,2.18l-5.44,3.15C317.37,266.17,316.79,265.87,316.79,265.09Z" style="fill:#FFFFFF"></path><path d="M358.51,289.18a2.84,2.84,0,0,0,1.22-2.24v-6.29c0-.84-.55-1.2-1.22-.8a2.81,2.81,0,0,0-1.23,2.23v6.29C357.29,289.21,357.84,289.57,358.51,289.18Z" style="fill:#FFFFFF"></path></g><polygon points="362.51 244.29 331.72 239.87 364.92 239.87 362.51 244.29" style="fill:#FFFFFF"></polygon><path d="M363.69,206.06s2.85,26.45,3.74,32.58a4.59,4.59,0,0,1,.13,1.09,8.77,8.77,0,0,1-4,6.87,2.77,2.77,0,0,1-2.8.27l-2.12-1.22a2.75,2.75,0,0,1-1.19-2.58c-.36-6.33,2-36.76,2-36.76l2.07-1.49Z" style="fill:#37474f"></path><path d="M367.56,239.73a8.77,8.77,0,0,1-4,6.87c-2.19,1.26-4,.24-4-2.29-.36-6.33,2-36.76,2-36.76l2.07-1.49S367.55,237.19,367.56,239.73Z" style="fill:#455a64"></path><path d="M365.39,241a4,4,0,0,1-1.79,3.1c-1,.57-1.79.11-1.79-1A4,4,0,0,1,363.6,240C364.59,239.38,365.39,239.84,365.39,241Z" style="fill:#263238"></path><rect x="389.26" y="238.95" width="6.42" height="0.53" transform="translate(-25.8 48.66) rotate(-6.87)" style="fill:#37474f"></rect><rect x="375.18" y="265.5" width="0.53" height="6.42" transform="translate(-75.38 169.13) rotate(-23.14)" style="fill:#37474f"></rect><rect x="343.06" y="207.63" width="0.53" height="6.42" transform="matrix(0.92, -0.39, 0.39, 0.92, -55.23, 151.86)" style="fill:#37474f"></rect><rect x="323.09" y="240.07" width="6.42" height="0.53" transform="translate(-26.4 40.75) rotate(-6.87)" style="fill:#37474f"></rect><rect x="392.95" y="198.25" width="8.6" height="0.53" transform="translate(-15.3 362.88) rotate(-48.27)" style="fill:#37474f"></rect><rect x="371.63" y="185.94" width="8.6" height="0.53" transform="translate(81.04 484.6) rotate(-71.69)" style="fill:#37474f"></rect><rect x="338.28" y="292.94" width="8.6" height="0.53" transform="translate(-43.42 526.32) rotate(-71.69)" style="fill:#37474f"></rect><rect x="316.96" y="280.63" width="8.6" height="0.53" transform="matrix(0.67, -0.75, 0.75, 0.67, -102.21, 333.66)" style="fill:#37474f"></rect></g><path d="M358.74,155a2,2,0,0,0-1.15-1.61,6.16,6.16,0,0,0-5.58,0,2,2,0,0,0-1.16,1.61v15.12a2,2,0,0,0,1.16,1.61,6.16,6.16,0,0,0,5.58,0,1.94,1.94,0,0,0,1.15-1.61Z" style="fill:#455a64"></path><path d="M352,156.56a1.7,1.7,0,0,1,0-3.22,6.16,6.16,0,0,1,5.58,0,1.7,1.7,0,0,1,0,3.22A6.16,6.16,0,0,1,352,156.56Z" style="fill:#37474f"></path><path d="M366.07,145.69c0-1.66-1.1-3.32-3.3-4.59a17.6,17.6,0,0,0-15.93,0c-2.2,1.27-3.3,2.93-3.3,4.59v13.8c0,1.67,1.1,3.33,3.3,4.6a17.6,17.6,0,0,0,15.93,0c2.2-1.27,3.3-2.93,3.3-4.6Z" style="fill:#FFFFFF"></path><path d="M346.84,150.29c-2.2-1.27-3.3-2.93-3.3-4.59s1.1-3.33,3.3-4.6a17.6,17.6,0,0,1,15.93,0c2.2,1.27,3.3,2.93,3.3,4.59s-1.1,3.33-3.3,4.6A17.6,17.6,0,0,1,346.84,150.29Z" style="fill:#fff;opacity:0.30000000000000004"></path><path d="M347.33,150.54v13.78c.31.16.65.32,1,.46V151A8.68,8.68,0,0,1,347.33,150.54Zm3.45,1.22v13.8c.31.06.65.12,1,.16V151.93C351.43,151.89,351.09,151.83,350.78,151.76Zm-6.2-3.36v13.79a7.68,7.68,0,0,0,1,1V149.4A5.13,5.13,0,0,1,344.58,148.4Zm16.59,2.65v13.78a8.06,8.06,0,0,0,1-.45V150.6A7.94,7.94,0,0,1,361.17,151.05Zm2.75-1.55v13.78a7.44,7.44,0,0,0,1-1V148.58A5.74,5.74,0,0,1,363.92,149.5Zm-6.2,2.45v13.79c.33,0,.67-.1,1-.16v-13.8C358.37,151.85,358.05,151.91,357.72,152Zm-3.41.22V166h1v-13.8A4,4,0,0,1,354.31,152.17Z" style="opacity:0.2"></path><path d="M320.84,209.81c-6,10.35-17.25,15-25.72,10.14a21.66,21.66,0,0,1,21.67-37.5C325.24,187.4,326.83,199.45,320.84,209.81Z" style="fill:#455a64"></path><path d="M295.12,220c8.47,4.89,19.74.21,25.72-10.14a27.11,27.11,0,0,0,3-7.42c-.35.45-10.31,13.15-22.69,9.58-12.6-3.64-15-13.35-13.89-21.61A21.65,21.65,0,0,0,295.12,220Z" style="fill:#37474f"></path><path d="M291.63,188.25l-3.14-1.82a3.88,3.88,0,1,0-4,6.67l3.22,1.87c1.37.8,3.36-.06,4.44-1.91S293,189.05,291.63,188.25Z" style="fill:#FFFFFF"></path><path d="M412,153.13l3.71-6.42a3.88,3.88,0,1,0-6.67-4l-3.76,6.5c-.8,1.37.06,3.36,1.92,4.44S411.18,154.5,412,153.13Z" style="fill:#FFFFFF"></path><path d="M382.26,153.42a21.65,21.65,0,1,1,37.49,21.68Z" style="fill:#455a64"></path><path d="M415.05,147.79c1.23,2.56,4.54,13.37,0,16.06s-25.53-6.24-25.53-6.24l30.24,17.49A21.65,21.65,0,0,0,415.05,147.79Z" style="fill:#37474f"></path></g></g></g></svg>
